<?xml version="1.0" encoding="UTF-8"?>
<svg id="_레이어_2" data-name="레이어 2" xmlns="http://www.w3.org/2000/svg" viewBox="0 0 430.57 500.93">
  <defs>
    <style>
      .cls-1 {
        fill: #fff;
      }

      .cls-1, .cls-2 {
        stroke: #07a59f;
        stroke-miterlimit: 10;
      }

      .cls-3 {
        fill: #609093;
      }

      .cls-2 {
        fill: none;
      }
    </style>
  </defs>
  <g id="Layer_5" data-name="Layer 5">
    <g>
      <path class="cls-1" d="M307.37,283.11l-1.71-2.54c-.52-3-6.16-6.06-6.16-6.06v-.72h-.52v-1.35l-1.92-1.45v-1.92h-1.97v-.36l-.26-1.4c-1.14-.31-.47-1.71-.47-1.71,0,0,.83-1.55-.57-.83-1.4.72-1.61,0-1.61,0l-.93-.93-.78-.31-.93-.57-.88-.93-.26-1.45-.52-1.24c-1.14-.88-3.68-.36-3.68-.36l-.88.36-1.55-1.66,1.29-1.45-.05-2.12c-1.14-1.61-.21-2.07-.21-2.07l1.04-.41-.47-1.24,2.23-1.19,3.16-3.52.38-1.29v-1.76l-.38.31-.67.26h-.57v-1.5l-2.33-2.23-1.71-.62-.05-1.76h.31v-1.35h-1.19v-.78c-.16-1.76-2.28-1.92-2.28-1.92-1.19-.21-1.24-1.76-1.24-1.76v-2.59l-.57-.78h-2.12l-.52-.16-1.97-1.4-1.04-1.29v-1.92c-1.24-1.66-1.81,1.14-1.81,1.14l-1.81.26v-.41l-.57-.62-.78-.47-2.23-1.55-.26-.83-1.4-1.61c-.47-2.28-1.29-.36-1.29-.36l-1.09,1.5.1,3.57c.57,1.81,0,2.23,0,2.23l-1.09,1.55v.98l-1.86,1.92v.93l-.71.29c-4.49,3.24-5.25-1.73-6.7-2.49-1.45-.76-2.28,0-2.28,0l-1.93.41c-1.86,2.41-3.6.5-3.94.08l-1.44,1.58c-.41,2.14-1.93,2.83-1.93,2.83h-1.93l-.48.48h-2.21l-2,2.83h-.83l-.97.97c1.45,1.66,0,2,0,2l-1.45.9s-.15.63-.46.93c-.2.2-.46.25-.79-.1-.83-.9-2.14,0-2.14,0l-2,2.07-.35.83-1.04.28-1.38,1.47-2.35.46c-.62-1.04-1.38,0-1.38,0h-1.45l-.48.62h-2.42l-1.73,1.86-.43.15-.54.19c-2.97-1.31-3.87,1.52-3.87,1.52,0,0,.62,1.31-.76,1.38-1.38.07-2.55,1.66-2.55,1.66l-.76,1.38-1.05.35-1.16,1.04h-.97l-.76.76h-1.86l-1.59,1.86-1.79.76s.14.69-1.79.55-2.21.48-2.21.48l-1.66.34c-.62.27-1.04.83-2.51.14l.23.42.48,2.69.48,1.17s0,.1-.03.27c-.08.43-.37,1.29-1.42,1.94-1.45.9,2.49,3.59,2.49,3.59l1.43.92,1.47.95v3.59l.83.39.35.16v8.56l-.76,1.38,1.31,1.45v2.49l-.45.29-2.52,1.64s-.14,2.69-2.62.76l-2,.7-.76.54h-2.42l.14,1.59h-1.04l-.35,1.79-.9.83-.07,1.04.07,3.04s-1.45,1.79.07,1.86c0,0,.76,1.59,2.28,0,0,0,.69-1.17,1.24.07,0,0,3.24-.83,1.38,1.59-1.86,2.42,2.62,2,1.79,4.97l.55,1.1s.07.34.05.61c-.03.4-.23.68-1.09-.34-1.45-1.73-1.38.28-4.28,1.17l-1.73,1.04h-1.31s-2.97-4.83-5.25-2.9l-1.31.21-1.17-.9-.14,2.28.07,1.66h1.59s1.24,1.79.69,3.38l.9,1.17-.14,1.93.41.97-.21,1.52s-1.17,1.04-.48,1.79c.69.76-1.24,2.83-3.73,3.45l-.07.97,1.31,2.9.55,1.38-.14,2.07h1.31s1.79-.48,2.21,2.21l.62.9,1.24.41,2.35,1.24.28.41,3.38.48.41,4.76,1.46,1.87c1.78.03,2.68,1.85.47,5.41-3.11,5.02-1.04,5.85-1.04,5.85,4.61,4.97,8.8-1.92,10.1.47,1.29,2.38.83,2.38-3.62,7.04-4.45,4.66.78,10.25.78,10.25v1.09l.41.36v2.43l1.35,2.49c3.83,3.52,5.23.26,6.42-8.39,1.19-8.65,12.84-10.36,12.84-10.36l.1-2.07.93-1.09.47-1.29h.72l.1-.52.83-1.45.16-1.14.36-1.19c-.72-1.5.98-2.59.98-2.59v-2.49h.83l.47-.67.1-.93,1.04-1.66.36-.72,1.55-.98c-.67-1.81,2.64-2.74,2.64-2.74l1.24-1.5c1.66-.05.05-.88.05-.88l-1.4-1.09-.26-1.5c-2.02-2.9.47-6.16.47-6.16l.16-4.66-1.4-1.81-.36-1.71-.57-1.97c-1.17-.76-1.18-1.51-.86-2.08.38-.68,1.22-1.13,1.22-1.13.88-1.92,3.52-2.02,3.52-2.02l1.4-.36.05-2.28h1.45l.72-.64.93-.08c2.33.47,2.59-1.24,2.59-1.24,0,0,1.09-.1,1.29-.57s1.5-1.29,2.02-.72,1.35,0,1.35,0l3.47-2.23.36-1.97c1.66-1.45,1.55-2.23-.52-4.5-1.84-2.02.32-4.17.83-4.62.06-.06.1-.09.1-.09.88-2.9,3-2.38,3-2.38v-1.45l.67-.36,2.28-2.43,1.04-1.45c-1.61-1.71.31-3.83.31-3.83l.26-.72.93-1.06,1.5-.34c2.33-3.85,3.56-3.12,3.75-2.97.02.01.03.02.03.02,1.45-.26,2.28,1.71,2.28,1.71,0,0,.21,2.54,2.54.66,2.33-1.88,2.95.68,2.95.68l.93.24.41,1.21-.36.93c0,1.24.93.26.93.26l1.55.05v-.36c1.14-1.09,1.92.05,1.92.05l.88,1.97,2.74.05s.88.52,1.76,1.35c.88.83,2.64.21,2.64.21l2.28-1.4c.41-2.02,1.19-1.81,1.19-1.81,2.17,0,3.47-3.43,3.47-3.43l2.02-.3c.72-.57,2.59.3,2.59.3.72,1.08.78.68,1.19,0,.41-.68,1.66,0,1.66,0l.57.58,1.5.34.26.85c-.67,1.09,0,2.49,0,2.49l.67.67.93.1s.16.98,1.24,2.49c1.09,1.5,1.92.57,1.92.57l2.95-2.02,1.19-.31,2.33-.26.62-.62,1.81-1.04c.93-2.54,0-6.11,0-6.11Z"/>
      <path class="cls-1" d="M191.29,288.29l.76-1.38v-8.56l-1.17-.55v-3.59l-2.9-1.86s-1.75-1.2-2.49-2.27c-.36-.53-.48-1.02,0-1.32,1.04-.65,1.34-1.51,1.42-1.94.03-.17.03-.27.03-.27l-.48-1.17-.48-2.69-.23-.42c-1.48-.7-3.91,1.53-3.91,1.53h-1.93v1.31l-.76.55c-1.1,1.52-2.14,0-2.14,0l-1.24.55h-.9l-.35,1.93-.41,1.93-2.49,1.86v1.31c-1.66,0-2.55.48-2.55.48l.62,1.31c.62,2.28-.07,3.04-2.28,4.49-2.21,1.45-.55,2.62-1.38,3.11-.67.4-1.07,1.6-.98,2.33.02.17.07.31.15.41.41.54.35,2.36-1.59,1.32-1.93-1.04-2.86,1.17-2.86,1.17-2.38.93-2.28-2.07-3.21-4.35-.93-2.28-2.07.52-2.07.52l-1.76,1.33-.43,1.56-1.85.83-1.24,3-4.35,3.62-.72,3.73-3.31,3.11-2.06,2.97.19.14.47.67c1.19,1.04-.05,1.97-.05,1.97l-1.09.1v.98l.98.36,1.29,1.97v2.38c2.02-.36,2.02,1.97,2.02,1.97v2.33l1.81.16c.62.72,2.02.5,2.02.5l2.31-.07c1.52-1.69,2.11.14,2.11.14v1l.9.14.21,1.59s.14,1.62.1,1.83.72,1,.72,1c.07.4.13.74.18,1.04.59,3.31.34,1.23-2.7,2.34-3.31,1.21,1.28,3.18,1.28,3.18l.07,2.28c1.73.35,1.73,1.59,1.66,3.59-.07,2-.55,1.86.62,3.31,1.17,1.45-.35,2.35-.35,2.35l-1.1.14s-.55.9-1.73.83c-1.17-.07-4.14-.14-.86,2.83s.87,8.08.87,8.08c0,0-1.97,7.04,0,8.75,1.97,1.71,6.63.31,6.63.31,6.16-1.71,7.46-.67,7.46-.67,7.56,8.59,11.75-.31,11.75-.31v-1.45l.36-.36v-2.54c.47-2.28,1.45-3.47,4.45-5.49.87-.59,1.75-.87,2.48-.86l-1.46-1.87-.41-4.76-3.38-.48-.28-.41-2.35-1.24-1.24-.41-.62-.9c-.41-2.69-2.21-2.21-2.21-2.21h-1.31l.14-2.07-.55-1.38-1.31-2.9.07-.97c2.49-.62,4.42-2.69,3.73-3.45-.69-.76.48-1.79.48-1.79l.21-1.52-.41-.97.14-1.93-.9-1.17c.55-1.59-.69-3.38-.69-3.38h-1.59v-.34s-.07-1.31-.07-1.31l.14-2.28,1.17.9,1.31-.21c2.28-1.93,5.25,2.9,5.25,2.9h1.31l1.73-1.04c2.9-.9,2.83-2.9,4.28-1.17,1.45,1.73,1.04-.28,1.04-.28l-.55-1.1c.83-2.97-3.66-2.55-1.79-4.97,1.86-2.42-1.38-1.59-1.38-1.59-.55-1.24-1.24-.07-1.24-.07-1.52,1.59-2.28,0-2.28,0-1.52-.07-.07-1.86-.07-1.86l-.07-3.04.07-1.04.9-.83.35-1.79h1.04l-.14-1.59h2.42l.76-.54,2-.7c2.49,1.93,2.62-.76,2.62-.76l2.97-1.93v-2.49l-1.31-1.45Z"/>
      <path class="cls-1" d="M243.41,226.51v-1.93l-1.31-.83s-.21-1.17-.28-2.9c-.07-1.73-1.45-1.86-1.45-1.86v-.55l-.53-.69-.3-.62c.97-1.79-.69-3.38-1.38-5.66s-1.38-2.35-2.42-1.59c-1.04.76-2.07,0-2.07,0l-.83-.35-1.31-1.38c0-2.07-.35-2.9-.35-2.9-1.31-.69-.62-2.14-.62-2.14v-1.59l-2-.83c-.97-2.62-3.73-2.59-3.73-2.59l-1.35-2.17-.93.1-.52-.72-.72-1.14v-1.55l-.83-1.35-1.04.83-2.49.52-3.11,1.35-2.69.52-2.38.72-2.28,1.14-2.17.52h-2.8l-3.11,1.24h-2.17c2.74-3.05-.83-6.47-.83-6.47l-3.62.1-2.23,1.76s.47,1.97-1.66.57c-2.12-1.4-2.85.26-2.85.26l-1.04.67s-1.81,1.04-2.85,1.86-1.55-.05-1.55-.05h-2.23s-1.09-.83-1.29.31c-.21,1.14-2.85,3.42-2.85,3.42l-1.45,1.66s.16,1.45.1,1.61-.52,1.35-.52,1.35c1.35,2.33.47,2.54.47,2.54-4.61.36-2.38-.67-3.57-1.71-1.19-1.04-2.28.16-2.28.16,0,0-.57.31-2.43.52s-2.95-2.07-2.12-2.49c.83-.41.78-.57.1-1.19-.67-.62-1.76.05-1.76.05l-1.14.16s-.41,1.5-1.5.41-1.86.52-1.86.52l-.05,1.66c-3.78,2.02-1.45,2.38-2.59,3.37-1.14.98-1.55.16-1.55.16l-1.4-.62-.83-.78c-1.09-2.64-.98-1.81-2.43-2.07-1.45-.26-.52-2.38-1.35-3.37-.83-.98-1.66-.05-1.66-.05,0,0-.78.83-1.35.1-.57-.72-1.45-.05-1.45-.05-2.02,1.14-2.59-1.24-2.59-1.24,0,0-2.12-.26-2.95.26-.83.52-1.61.67-1.66.36s-.67-1.04-1.04.57c-.36,1.61-2.38,2.64-2.38,2.64,0,0-1.61,1.04-2.33.52-.72-.52-2.43,0-2.43,0l-1.55.1-.67.72c-.93,3.47,1.24,3.68,1.24,3.68l.36,2.38c2.8,1.4,2.12,2.28.78,4.45-1.35,2.17-4.04-.1-4.04-.1l.05-1.14c-.47-.72-2.49.05-2.49.05v1.09l-.83.31-1.76,3.31-.41.05.88.72h2.38l2.59,1.14,1.97.83h.52l5.49.31s2.28,1.1,3.73.83c1.45-.28,2.42.55,2.42.55,0,0,2.28,3.38,6.83.9s5.18-2.62,8.15,1.38l2.35,1.31s4.14-1.52,1.1,2.14c0,0,6.9,6.07,7.39,8.08v.41h2.49v2.76s1.93,1.1,3.73,0c.87-.54,1.85-.58,2.52-.38.72.21,1.08.71.58,1.21l-.21,3.66.44.62h2.81l3.17,2.4.21.16.9,1.79,1.31,1.93,1.59.97.27.48,1.52,2.76,2.67,4.83c1.48.7,1.89.13,2.51-.14l1.66-.34s.28-.62,2.21-.48,1.79-.55,1.79-.55l1.79-.76,1.59-1.86h1.86l.76-.76h.97l1.16-1.04,1.05-.35.76-1.38s1.17-1.59,2.55-1.66c1.38-.07.76-1.38.76-1.38,0,0,.9-2.83,3.87-1.52l.97-.35,1.73-1.86h2.42l.48-.62h1.45s.76-1.04,1.38,0l2.35-.46,1.38-1.47,1.04-.28.35-.83,2-2.07s1.31-.9,2.14,0c.83.9,1.24-.83,1.24-.83l1.45-.9s1.45-.35,0-2l.97-.97h.83l2-2.83h2.21l.48-.48h1.93s1.52-.69,1.93-2.83l1.44-1.58s-.06-.08-.06-.08v-2.49l.28-.62Z"/>
      <path class="cls-1" d="M181.28,254.19l-1.59-.97-.9-1.33-.41-.6-.9-1.79-3.38-2.55h-2.81l-.44-.62.21-3.66c.97-.97-1.31-1.93-3.11-.83-.52.32-1.05.45-1.54.48-1.21.07-2.19-.48-2.19-.48v-2.76h-2.49v-.41c-.48-2-7.39-8.08-7.39-8.08,3.04-3.66-1.1-2.14-1.1-2.14l-2.35-1.31c-2.97-4-3.59-3.87-8.15-1.38s-6.83-.9-6.83-.9c0,0-.97-.83-2.42-.55-1.45.28-3.73-.83-3.73-.83l-5.49-.31h-.52l-1.97-.83-2.59-1.14h-2.38l-.88-.72-3.11.41-1.09,1.97c.26,5.07-1.76,4.5-.57,6.52,1.19,2.02.1,2.07.1,2.07l-2.64,1.97-1.35.36-.36.67s-1.04-.52-3.73,1.97,3.16,4.35,3.16,4.35l2.9.21c2.54,1.04,2.28,4.5,1.86,5.13s-1.14,1.35-.36,2.28.21,2.33.21,2.33c-1.97-.31-2.17,2.38-2.17,2.38-1.5.41-2.33,1.5-2.33,1.5l-3,.16-.05,1.66-.62.21-.41,2.69-.72.41c-2.64,3.21.52,5.7-1.76,4.76s-2.07.52-2.07.52l1.55,3,2.12.31c1.61-3,4.3-1.09,3.11,0-1.19,1.09,0,4.71,0,4.71l1.97,3,1.86.88.05,1.4.21,1.97.21,1.92,1.29,1.81c1.55.47.52,1.39.52,1.39v1.72l-.83,1.66.16,2.38-2.23,1.4v.78l.78.36,1.5,1.24,4.4.31v-.36l2.74-.26.26,1.61,1.14.21.57,1.55c1.09,1.71,2.28,1.35,2.28,1.35l.78,1.04,1.26,1.55c-.91,1.04.09,2.28.09,2.28,0,0-.67,2.43,1.76,1.19,2.43-1.24,4.25.62,4.25.62l6.89.05.36-1.29.41-.78,1.55-.41.89.64,2.06-2.97,3.31-3.11.72-3.73,4.35-3.62,1.24-3,1.85-.83.43-1.56,1.76-1.33s1.14-2.8,2.07-.52c.93,2.28.83,5.28,3.21,4.35,0,0,.93-2.21,2.86-1.17,1.93,1.04,2-.78,1.59-1.32-.41-.54,0-2.26.83-2.75.64-.37-.19-1.16.39-2.16.18-.3.48-.62.99-.95,2.21-1.45,2.9-2.21,2.28-4.49l-.62-1.31s.9-.48,2.55-.48v-1.31l2.49-1.86.41-1.93.2-1.09.15-.84h.9l1.24-.55s1.04,1.52,2.14,0l.76-.55v-1.31h1.93s2.43-2.23,3.91-1.53l-4.46-8.07Z"/>
      <g>
        <path class="cls-3" d="M218.05,280.94l-.47.46c-.61-.58-1.22-1.16-1.72-1.74-.04-.04-.1-.09-.11-.14-.02.05-.06.09-.11.14-.54.6-1.11,1.21-1.73,1.8l-.48-.41c.63-.6,1.24-1.23,1.8-1.89.09-.09.16-.16.16-.28v-1.42h.73v1.42c0,.12.06.19.15.28.53.61,1.15,1.21,1.8,1.79ZM218.21,281.92c1.01,0,1.77.53,1.77,1.48s-.75,1.48-1.77,1.48h-2.44c-1.02,0-1.75-.53-1.75-1.48s.74-1.48,1.75-1.48h2.44ZM215.77,282.54c-.58,0-1.04.31-1.04.86s.46.87,1.04.87h2.44c.59,0,1.06-.32,1.06-.87s-.47-.86-1.06-.86h-2.44ZM219.71,281.69h-.73v-4.34h.73v1.8h1.26v.62h-1.26v1.92Z"/>
        <path class="cls-3" d="M221.74,277.75c0-.18.1-.28.3-.28h3.56v.62h-3.14v1.73c0,.18.04.29.15.39l.25.22c.1.1.22.13.41.13h2.58v.64h-2.71c-.31,0-.5-.08-.72-.27l-.36-.31c-.19-.17-.32-.41-.32-.68v-2.18ZM226.22,281.92c1.01,0,1.76.53,1.76,1.48s-.74,1.48-1.76,1.48h-2.44c-1.02,0-1.76-.53-1.76-1.48s.75-1.48,1.76-1.48h2.44ZM223.78,282.54c-.58,0-1.05.31-1.05.86s.47.87,1.05.87h2.44c.59,0,1.05-.32,1.05-.87s-.46-.86-1.05-.86h-2.44ZM227.69,281.69h-.73v-4.34h.73v1.8h1.26v.62h-1.26v1.92Z"/>
        <path class="cls-3" d="M232.7,284.99v-3.08h-3.03v-.63h5.19c.29-.53.33-.73.33-1.09v-1.98h-5.04v-.62h5.51c.16,0,.25.09.25.25v2.24c0,.48-.02.67-.32,1.19h.86v.63h-3.04v3.08h-.71Z"/>
      </g>
      <g>
        <path class="cls-3" d="M184.17,223.86h1.73v-.95h.76v.95h1.72v.62h-1.7v.61c0,.16.04.25.18.37.53.45,1.09.91,1.67,1.3l-.41.55c-.6-.41-1.16-.88-1.69-1.36-.04-.04-.1-.09-.12-.16-.03.07-.08.12-.11.16-.56.52-1.12.98-1.76,1.4l-.41-.56c.62-.43,1.17-.87,1.69-1.33.11-.11.18-.22.18-.37v-.62h-1.71v-.62ZM189.06,227.94c.99,0,1.73.4,1.73,1.31s-.73,1.32-1.73,1.32h-2.48c-1.02,0-1.73-.4-1.73-1.32s.73-1.31,1.73-1.31h2.48ZM186.59,228.56c-.58,0-1.02.19-1.02.68s.45.7,1.02.7h2.48c.57,0,1.01-.19,1.01-.7s-.44-.68-1.01-.68h-2.48ZM189.9,223.05h.71v4.58h-.71v-2.01h-1.65v-.6h1.65v-1.96Z"/>
        <path class="cls-3" d="M194.21,228.78v-1.59h-2.19v-.63h5.11v.63h-2.19v1.59h-.73ZM196.47,224.46v.08c0,.8-.68,1.44-1.93,1.44s-1.95-.64-1.95-1.44v-.08c0-.79.69-1.44,1.95-1.44s1.93.65,1.93,1.44ZM193.83,230.61c-.27,0-.44-.04-.6-.2l-.28-.27c-.17-.17-.25-.32-.25-.59v-1.38h.72v1.24c0,.16.03.22.11.3l.21.2c.05.06.1.08.23.08h4.76v.62h-4.9ZM195.77,224.49c0-.51-.48-.84-1.23-.84s-1.25.33-1.25.84v.03c0,.51.49.84,1.25.84s1.23-.33,1.23-.84v-.03ZM198.58,223.05v5.99h-.71v-.69h-1.93v-.63h1.93v-4.67h.71Z"/>
        <path class="cls-3" d="M203.17,230.69v-3.08h-3.03v-.63h5.19c.29-.53.33-.73.33-1.09v-1.98h-5.04v-.62h5.51c.16,0,.25.09.25.25v2.24c0,.48-.02.67-.32,1.19h.86v.63h-3.04v3.08h-.71Z"/>
      </g>
      <g>
        <path class="cls-3" d="M127.5,257.72v-.6h6.78v.6h-6.78ZM127.71,253.99v-.62h2.8v-.67h.71v.67h2.76v.62h-6.27ZM132.24,258.3c.97,0,1.51.41,1.51,1.2s-.53,1.18-1.51,1.18h-2.72c-.95,0-1.52-.41-1.52-1.18s.57-1.2,1.52-1.2h2.72ZM131.87,254.48c.83,0,1.3.46,1.3,1.06s-.47,1.06-1.3,1.06h-1.95c-.88,0-1.32-.48-1.32-1.06s.45-1.06,1.32-1.06h1.95ZM132.24,260.07c.5,0,.81-.2.81-.57,0-.39-.31-.58-.81-.58h-2.72c-.5,0-.82.18-.82.58,0,.37.32.57.82.57h2.72ZM131.86,255.97c.34,0,.62-.14.62-.43s-.28-.44-.62-.44h-1.94c-.38,0-.63.14-.63.44s.25.43.63.43h1.94Z"/>
        <path class="cls-3" d="M135.6,253.67c0-.18.1-.27.3-.27h3.49v.62h-3.07v1.73c0,.18.04.29.15.39l.24.22c.12.1.24.12.41.12h2.51v.64h-2.62c-.32,0-.52-.06-.74-.26l-.36-.31c-.19-.17-.32-.41-.32-.68v-2.2ZM141.64,258.07c.17,0,.25.08.25.25v2.51h-.7v-2.15h-4.97v-.61h5.42ZM141.19,253.19h.71v4.38h-.71v-2.06h-2.5v-.6h2.5v-1.72Z"/>
        <path class="cls-3" d="M146.48,260.82v-3.08h-3.03v-.63h5.19c.29-.53.33-.73.33-1.09v-1.98h-5.04v-.62h5.51c.16,0,.25.09.25.25v2.24c0,.48-.02.67-.32,1.19h.86v.63h-3.04v3.08h-.71Z"/>
      </g>
      <g>
        <path class="cls-3" d="M155.94,304.21l-.52.4c-.66-.78-1.25-1.56-1.82-2.36-.02-.03-.04-.05-.05-.11,0,.05-.04.08-.07.11-.55.85-1.16,1.66-1.8,2.43l-.55-.4c.7-.81,1.32-1.64,1.89-2.52.13-.18.17-.3.17-.54v-3.09h.72v3.09c0,.25.04.37.17.54.6.85,1.2,1.67,1.87,2.46ZM157.79,297.93v7.51h-.71v-4.15h-1.86v-.6h1.86v-2.75h.71Z"/>
        <path class="cls-3" d="M161.39,303.66v-1.59h-2.19v-.63h5.11v.63h-2.19v1.59h-.73ZM163.65,299.34v.08c0,.8-.68,1.44-1.93,1.44s-1.95-.64-1.95-1.44v-.08c0-.79.69-1.44,1.95-1.44s1.93.65,1.93,1.44ZM161.01,305.49c-.27,0-.44-.04-.6-.2l-.28-.27c-.17-.17-.25-.32-.25-.59v-1.38h.72v1.24c0,.16.03.22.11.3l.21.2c.05.06.1.08.23.08h4.76v.62h-4.9ZM162.95,299.37c0-.51-.48-.84-1.23-.84s-1.25.33-1.25.84v.04c0,.51.49.84,1.25.84s1.23-.33,1.23-.84v-.04ZM165.76,297.93v5.99h-.71v-.69h-1.93v-.63h1.93v-4.67h.71Z"/>
        <path class="cls-3" d="M170.35,305.57v-3.08h-3.03v-.63h5.19c.29-.53.33-.73.33-1.09v-1.98h-5.04v-.62h5.51c.16,0,.25.09.25.25v2.24c0,.48-.02.67-.32,1.19h.86v.63h-3.04v3.08h-.71Z"/>
      </g>
      <path class="cls-2" d="M101.4,383.7s-.04.06-.06.09c-1.66,2.68-2.26,9.36-2.13,12.49.1,2.46,1.3,4.96.93,7.45-.46,3.09-3.3,4.16-3.37,7.17-.06,2.46,1.99,4.13,1.83,6.7-.17,2.77-2.1,3.45-3.58,5.79-1.39,2.21-2.26,4.75-2.78,7.35.04.04.08.09.11.13-.04-.04-.08-.09-.11-.13-.36,1.81-.57,3.64-.65,5.43-.1,2.18.71,5.52-.06,7.54-.87,2.27-4.11,2.66-4.5,5.25-1.01,6.61,8.57,5.28,12.64,5.48,1.56.07,6.49.16,7.4,1.6,1.44,2.27-2.03,3.68-3.19,5.1-3.34,4.12-4.38,11.61-.4,15.46,1.17,1.13,2.05,1.79,2.76,3.1.68,1.26-.16,2.65,1.81,3.3,3.4,1.13,4.41-3.86,7.74-.09,2.4,2.72,1.91,7.17,4.42,9.5,1.41,1.31,2.72,1.21,3.37,3.13.36,1.08.05,2.26.08,3.41.28-.33.57-.66.85-.99-.28.33-.57.66-.85.99,0,.49.07.97.28,1.43,2.93-.42,6.96-6.82,8.77-9.1,3.18-4.02,5.12-7.3,4.56-12.49-.6-5.54-1.58-10.86-1.19-16.53.19-2.72.28-4.59,3.31-5.09,2.59-.43,4.99.7,6.42,2.46,3.09,3.8,1.27,8.73,1.52,13.08.19,3.36,1.53,3.58,4.27,4.95,3.1,1.54,2.67,3.06,3.58,6.08,1.02,3.4,5.06,6.85,8.21,8.83,1.98,1.24,4.74,2.79,7.15,2.67,3.53-.18,2.01-1.43,3.27-3.65,1.41-2.5,5.61-2.18,6.65-4.33.54-1.11-.43-2.26-.23-3.28.44-2.29.95-1.53,2.46-2.96,1.07-1.01,2.17-1.98,3.15-2.97,0,0,0,0,0,0,1.14-1.15,2.13-2.33,2.72-3.62,0,0,0-.02.01-.02.25-.55.43-1.12.52-1.72,0,0,0,0,0,0,.04-.29.06-.59.06-.89,0,0,0-.02,0-.03,0-.28-.03-.57-.07-.86,0-.04,0-.07-.01-.11-.04-.27-.11-.55-.19-.83-.02-.06-.03-.12-.04-.18-.11-.34-.24-.68-.4-1.04-1.46-3.17-1-9.36.75-12.33,1.79-3.03,3.96-3.22,2.74-7.16-.6-1.94-1.29-3.7-1.63-5.7.63-.82,2.62-2.64,2.74-3.74.12-1.08-1.24-2.6-1.25-3.96,0-2.09,1.29-4.38,1.9-6.4.74-2.44.29-3.21.21-5.73-.13-4.34,4.12-6.02,7.15-8.58,3.57-3.02,1.87-4.28,1.7-8.56-.14-3.33-.44-8.25,1.68-10.59,2.48-2.73,5.26-3.29,8.68-3.68,4.31-.49,4.23-1.55,1.94-4.1,0,0-.01.01-.02.02,0,0,.01-.01.02-.02-.13-.15-.26-.29-.41-.45-1.43-1.54-2.13-3.1-3.12-4.89-1.32-2.37-1.23-2.28-4.19-2.98-2.49-.58-5.93-3.52-8.45-1.51"/>
      <path class="cls-2" d="M150.06,343.13c-.22-.34-.46-.67-.71-.98-.02-.02-.03-.04-.05-.07-.23-.28-.46-.55-.71-.81-.05-.05-.09-.1-.14-.15-.22-.23-.45-.43-.68-.63-.06-.05-.12-.11-.19-.17-.29-.23-.58-.45-.87-.62-2.98-1.81-3.84-.51-5.24,1.69-2.8,4.41-7.3,7.09-7.86,12.86-.32,3.36-.07,4.97-1.82,7.92-1.34,2.26-3.09,4.28-4.19,6.71-2.77,6.14-4.23,9.82-11.34,9.74-.32,0-.66,0-.99,0-.22,0-.45.02-.68.02-.12,0-.23,0-.35.01-.34.02-.69.04-1.04.07,0,0,0,0-.01,0-4.62.38-9.72,1.79-11.78,4.98"/>
      <path class="cls-2" d="M105.58,237.86c-5.76-2.6-16.39,2.67-21.12-2.21-1.74-1.8-3.13-4.01-5.1-5.56-2.28-1.79-5.15-2.17-7.48-3.81-2.85-2-2.92-3.95-6.29-4.53-3.03-.52-6.16-.22-9.16-1.37-1.9-.73-4.19-2.89-6.22-2.87-2.44.02-4.31,2.92-6.26,4.42-2.27,1.75-11.14,5.3-9.21,8.6,1.12,1.91,3.76,1.79,5.17,4.36,1.54,2.82.82,4.42,4.05,5.82,3.2,1.38,6.06.57,6.84,4.51.66,3.35-1.47,4.27-2.66,7.1-1.29,3.08,1.74,3.92,1.45,7.08-.13,1.45-1.4,2.24-1.69,3.65-.45,2.24.59,2.9,1.37,4.88.74,1.88,1.62,5.16.33,6.84-2.01,2.64-4.98,2.02-2.68,6.33,1.52,2.85,4.84,6.13,7.66,7.68,2.03,1.12,6.45,1.64,7.73,3.1.7.8.53,3.3.41,4.14,1.71,1.76,4.48,1.1,6.05,2.64,2.78,2.72-.4,5.06-2.44,6.65-1.75,1.36-4.23,2.56-4.95,5.01-.77,2.61,2.1,3.24,1.55,5.81-3.61.17-7.1-.84-7.14,4.24,2.12,1.96,2.22,5.69,2.92,8.29-1.23,2.83-4.76,4.15-3.57,7.24.25.64,1.07,1.15,1.3,1.72.26.68.15,1.7.45,2.46.75,1.94.44,1.99,2.31,3.16,1.97,1.23,3.42,1.03,4.39,3.54.75,1.95-.57,3.11-.31,4.74.52,3.28,5.03,4.28,4.58,8.51-.33,3.09-2.92,7.19-.12,10.03.84.86,2.72,1.05,3.77,1.7,1.47.92,2.46,2.24,3.66,3.44.89.9,1.85,2.91,2.66,3.5,1.29.95,2.57.78,3.97,1.44,2.51,1.19,3.65,4.51,5.71,5.8,3.09,1.93,5.32-1.72,8.14-2.68,2.13-.72,4-.32,5.78.45,2.06-3.19,7.16-4.59,11.78-4.98,0,0,0,0,.01,0,.35-.03.7-.05,1.04-.07.12,0,.23,0,.35-.01.23,0,.46-.02.68-.02.34,0,.67,0,.99,0,7.11.08,8.57-3.6,11.34-9.74,1.09-2.42,2.85-4.45,4.19-6.71,1.75-2.94,1.5-4.56,1.82-7.92.55-5.76,5.06-8.45,7.86-12.86,1.4-2.2,2.26-3.5,5.24-1.69.29.18.58.39.87.62.06.05.12.11.19.17.23.2.46.41.68.63.05.05.09.1.14.15.24.26.48.52.71.81.02.02.03.04.05.07.25.32.49.65.71.98"/>
      <path class="cls-2" d="M156.15,207.01c2.73-3.87,1.1-7.63-2.76-9.89-4.27-2.5-3.95-4.53-3.27-9.14.51-3.44.45-4.05-2.87-6.92-1.61-1.39-4.04-2.41-4.56-4.61-2.55-.48-5.9-1.04-7.85-3.06-1.44-1.49-1.56-2.89-3.43-4-1.77-1.05-3.39-.52-5.12-.89-5.96-1.28-3.99-5.33-3.95-10.06.05-6.94-8.57-2.66-9.44-8.22-.35-2.23,1.04-4.8.26-7-.88-2.47-4.32-3.98-6.04-5.64-1.26-1.22-2.26-2.7-3.1-4.29-2.25.8-5.23-3.85-7.72-6.87-.1-.12-.2-.24-.3-.35-.07-.08-.13-.16-.2-.23-.15-.17-.3-.34-.44-.49-.04-.04-.08-.08-.11-.12-.16-.17-.32-.32-.47-.46-.02-.02-.04-.03-.06-.05-.17-.15-.33-.28-.49-.38-5.02-3.38-9.51-2.36-15.01-4.47-7.79-2.98-7.38-10.27-13.29-14.63-3.87-2.85-13.78-7.32-18.72-7.06-.63-5.25-6.98-.97-9.41-.73-4.73.46-8.13-3.47-12.35.18-4.3,3.73.1,5.54-1.54,9.45-.25.61.06.96.03,1.65-1.92.28-3.85-.58-5.62-.34-1.93.26-2.54,1.31-4.16,1.93-3.22,1.22-6.54,1.55-9.85,2.94M92.24,430.74c.52-2.6,1.39-5.14,2.78-7.35,1.48-2.34,3.41-3.02,3.58-5.79.16-2.57-1.89-4.24-1.83-6.7.07-3.01,2.91-4.08,3.37-7.17.37-2.49-.83-4.99-.93-7.45-.13-3.13.47-9.81,2.13-12.49.02-.03.04-.06.06-.09-1.79-.78-3.66-1.18-5.78-.45-2.82.96-5.05,4.61-8.14,2.68-2.06-1.28-3.2-4.6-5.71-5.8-1.4-.67-2.68-.49-3.97-1.44-.81-.59-1.77-2.6-2.66-3.5-1.19-1.2-2.19-2.52-3.66-3.44-1.05-.65-2.92-.84-3.77-1.7-2.79-2.83-.21-6.94.12-10.03.45-4.23-4.06-5.23-4.58-8.51-.26-1.62,1.06-2.79.31-4.74-.97-2.51-2.42-2.31-4.39-3.54-1.87-1.16-1.56-1.22-2.31-3.16-.29-.76-.18-1.79-.45-2.46-.22-.57-1.05-1.08-1.3-1.72-1.19-3.09,2.34-4.41,3.57-7.24-.71-2.6-.81-6.33-2.92-8.29.04-5.08,3.54-4.07,7.14-4.24.54-2.57-2.32-3.2-1.55-5.81.72-2.45,3.2-3.65,4.95-5.01,2.04-1.59,5.22-3.94,2.44-6.65-1.58-1.54-4.34-.88-6.05-2.64.12-.84.29-3.34-.41-4.14-1.28-1.47-5.7-1.99-7.73-3.1-2.83-1.55-6.14-4.83-7.66-7.68-2.3-4.31.66-3.69,2.68-6.33,1.29-1.69.4-4.96-.33-6.84-.78-1.98-1.82-2.64-1.37-4.88.29-1.41,1.55-2.21,1.69-3.65.29-3.16-2.74-4-1.45-7.08,1.19-2.84,3.33-3.75,2.66-7.1-.78-3.95-3.64-3.13-6.84-4.51-3.23-1.4-2.51-3-4.05-5.82-1.4-2.57-4.05-2.44-5.17-4.36-1.93-3.3,6.95-6.85,9.21-8.6,1.95-1.5,3.82-4.4,6.26-4.42,2.03-.01,4.32,2.14,6.22,2.87,3,1.16,6.13.86,9.16,1.37,3.38.58,3.44,2.53,6.29,4.53,2.33,1.63,5.2,2.02,7.48,3.81,1.97,1.55,3.36,3.77,5.1,5.56,4.73,4.89,15.37-.38,21.12,2.21M123.65,498.95c-.02-1.15.29-2.33-.08-3.41-.65-1.92-1.96-1.82-3.37-3.13-2.51-2.33-2.02-6.78-4.42-9.5-3.33-3.77-4.34,1.22-7.74.09-1.97-.65-1.13-2.05-1.81-3.3-.71-1.31-1.58-1.96-2.76-3.1-3.98-3.85-2.94-11.34.4-15.46,1.16-1.43,4.62-2.83,3.19-5.1-.91-1.44-5.84-1.53-7.4-1.6-4.07-.19-13.64,1.13-12.64-5.48.39-2.59,3.63-2.97,4.5-5.25.77-2.02-.04-5.36.06-7.54.08-1.79.29-3.62.65-5.43M192.38,473.34c-.88-.08-2.04-.32-3.29-.66,0,0,0,0,0,0-.09.6-.27,1.17-.52,1.72,0,0,0,.02-.01.02-.59,1.29-1.58,2.47-2.72,3.62,0,0,0,0,0,0-.99.99-2.08,1.96-3.15,2.97-1.51,1.43-2.02.67-2.46,2.96-.2,1.03.77,2.17.23,3.28-1.04,2.15-5.23,1.84-6.65,4.33-1.26,2.23.27,3.48-3.27,3.65-2.4.12-5.17-1.43-7.15-2.67-3.15-1.98-7.19-5.43-8.21-8.83-.91-3.03-.48-4.54-3.58-6.08-2.74-1.36-4.08-1.59-4.27-4.95-.25-4.35,1.56-9.28-1.52-13.08-1.43-1.76-3.83-2.89-6.42-2.46-3.03.5-3.13,2.37-3.31,5.09-.39,5.68.59,10.99,1.19,16.53.56,5.18-1.38,8.47-4.56,12.49-1.81,2.28-5.84,8.68-8.77,9.1-.21-.47-.27-.95-.28-1.43M.07,261.39c5.34.8,9.31,5.21,14.7,6.2,6.99,1.28,6.24-6.84,10.83-8.67,4.51-1.8,9.59,1.65,12.31,4.81,3.38,3.93,3.41,10.29,9.01,12.66-5.59-2.37-5.63-8.73-9.01-12.66-2.72-3.17-7.8-6.61-12.31-4.81-4.59,1.83-3.84,9.95-10.83,8.67-5.39-.99-9.36-5.41-14.7-6.2M5.07,235.09c7.1-2.9,11.72-7.79,12.42-15.29.33-3.53-.3-7.53,2.43-10.22,2.69-2.65,7.14-1.8,10.23-4.12,4.82-3.62,3.91-12.96-.17-17.66-1.6-1.84-3.98-2.61-4.73-4.7-.55-1.51.3-3.76.37-5.25.19-3.78.06-7.39.99-10.98.71-2.73,3.18-7.12,3.16-9.8-.02-3.73-4.32-4.48-6.59-6.46-4.78-4.16-2.2-15.94-1.04-21.5.89-4.27.19-6.76-2.75-10.31-2.36-2.85-3.4-5.65-6.4-7.89,3,2.24,4.04,5.04,6.4,7.89,2.93,3.55,3.64,6.04,2.75,10.31-1.16,5.56-3.74,17.34,1.04,21.5,2.27,1.98,6.58,2.73,6.59,6.46.01,2.68-2.45,7.07-3.16,9.8-.94,3.59-.81,7.19-.99,10.98-.07,1.49-.92,3.74-.37,5.25.76,2.09,3.13,2.86,4.73,4.7,4.08,4.7,5,14.04.17,17.66-3.09,2.32-7.54,1.46-10.23,4.12-2.73,2.69-2.1,6.69-2.43,10.22-.7,7.5-5.32,12.39-12.42,15.29"/>
      <path class="cls-2" d="M269.91,6.44c3.49,1.72,6.58,3.26,6.62,7.85.03,4.84-2.83,6.13-6.12,8.72-2.48,1.95-5.07,7.95-5.95,10.85-1.21,3.96.84,8.23-.43,12.33-1.03,3.35-1.86,6.6-4.37,9.25-3.17,3.34-5.86,5.83-7.27,10.2-1.38,4.3-4.84,20.7,2.29,20.99,4.48.18,6.74-4.73,10.85.21,2.41,2.9,5.36,6.46,7.5,9.58,1.99,2.92,4.97,1.39,7.19,1.78,2.18.38,2.22,1.2,3.98,2.27,3.84,2.35,7.66-1.98,10.08-.14,3.46,2.65-.52,8.15,5.12,9.37,6.16,1.32,5.36-3.25,9.26-5.34,3.68-1.97,9.83,1.94,12.96,3.5,5.21,2.6,5.6,3.63,5.58,9.35-.03,6.02,2.87,7.71,8.04,9.7,4.58,1.76,8.91,4.14,13.5,5.84,4.55,1.69,9.99,4.03,14.81,3.07,5.6-1.11,7.6.56,9.44,6.03.87,2.6,2.94,3.41,4.96,4.81,3.04,2.11,3.02,3.12,3.43,6.73.61,5.49,2.36,9.56,5.15,14.32,2.6,4.42,8.59,7.8,14.07,6.65,3.83-.8,1.61-2.56,3.57-5.24,1.52-2.08,5.55-2.49,7.97-2.12,6.74,1.05,10.3,6.39,12.58,12.25-2.29-5.86-5.85-11.2-12.58-12.25-2.41-.38-6.44.03-7.97,2.12-1.96,2.68.27,4.44-3.57,5.24-5.48,1.15-11.47-2.23-14.07-6.65-2.79-4.76-4.54-8.83-5.15-14.32-.4-3.61-.38-4.62-3.43-6.73-2.02-1.4-4.09-2.21-4.96-4.81-1.84-5.47-3.83-7.14-9.44-6.03-4.82.95-10.26-1.38-14.81-3.07-4.59-1.7-8.91-4.08-13.5-5.84-5.16-1.99-8.06-3.67-8.04-9.7.03-5.71-.36-6.75-5.58-9.35-3.13-1.56-9.28-5.47-12.96-3.5-3.9,2.08-3.1,6.66-9.26,5.34-5.64-1.21-1.66-6.72-5.12-9.37-2.42-1.85-6.24,2.49-10.08.14-1.75-1.07-1.79-1.89-3.98-2.27-2.22-.39-5.2,1.14-7.19-1.78-2.14-3.12-5.09-6.68-7.5-9.58-4.1-4.94-6.37-.03-10.85-.21-7.13-.28-3.67-16.69-2.29-20.99,1.41-4.38,4.1-6.86,7.27-10.2,2.51-2.64,3.34-5.9,4.37-9.25,1.26-4.11-.79-8.38.43-12.33.89-2.9,3.48-8.89,5.95-10.85,3.29-2.59,6.15-3.89,6.12-8.72-.03-4.6-3.13-6.13-6.62-7.85-.69,1.67-1.77,2.95-4.54,3.26-7.29.8-11.65-11.17-18.26-8.92-5.1,1.73.61,18.13-.29,23.16-.73,4.05-3.04,6.03-6.59,7.71-2.54,1.2-7.79,1.15-8.77,4.05-.66,1.95,1.98,3.55.24,5.46-1.11,1.22-3.8.6-5.3.61-3.98.01-6.53.65-7.51,5.28-.77,3.63,1.54,9.48-4.05,10.2-3.65.47-8.52-4.17-12.19-5.1-5.13-1.29-6.68.62-10.94,1.81-.33.09-.66.15-.98.18-.02.02-.04.04-.06.06.02-.02.04-.04.06-.06-3.8.43-7.43-2.57-11.62-1.61-10.89,2.5-3.56,11.21-9.54,17.27-1.27,1.28-2.78,1.94-4.27,2.98-2.34,1.63-3.08,4.1-5.27,5.14-2.06.97-5.41.65-7.71,1.2-7.18,1.7-8.02,5.34-7.4,11.89.37,3.82.1,5.61-1.9,8.64-1.18,1.8-3.33,6.07-5.31,7.02-2.54,1.23-5.31-1.21-7.4-1.07-3.03.21-4.56,3-6.82,4.71-2.53,1.92-6.34,3.97-9.34,4.88-1.66.5-6.83-.29-7.68,1.13-.97,1.61,1.06,2.6,1.2,3.82.19,1.69-.22,3.69-.74,5.38-.4,1.32-1.32,6.38-2.11,7.23-.25.26-.5.43-.77.53.85,1.59,1.84,3.07,3.1,4.29,1.72,1.66,5.16,3.17,6.04,5.64.78,2.2-.61,4.76-.26,7,.87,5.57,9.49,1.29,9.44,8.22-.03,4.73-2.01,8.78,3.95,10.06,1.73.37,3.34-.16,5.12.89,1.87,1.11,1.99,2.51,3.43,4,1.95,2.02,5.3,2.58,7.85,3.06.52,2.2,2.95,3.22,4.56,4.61,3.32,2.87,3.38,3.48,2.87,6.92-.69,4.62-1,6.64,3.27,9.14,3.85,2.26,5.49,6.02,2.76,9.89M306,288.93c6.43-3.74,8.58-6.25,14.6-3.87.36-.17.76-.37,1.21-.63,1.82-1.07,3.23-2.9,5.28-3.51,2.02-.6,3.63.48,5.46.5,1.07,0,4.4-.37,5.3-.93,2.67-1.68,1.31-1.25.81-3.4-.8-3.49-4.62-6.25-.49-8.78,3.76-2.31,5.01-.17,7.7-4.47.75-1.19,1.44-4.08,3.35-4.16,2.22-.09,2.53,3.44,3.29,5.27,2.05,4.94,5.79,5.45,8.99,9.13,2.54,2.93,1.74,8.94,4.36,11.17,4.4,3.74,4.26-3.45,4.88-5.89.88-3.49,2.56-7.01,3.26-10.76.87-4.65.36-9.17-2.16-13.19-1.52-2.43-3.33-2.65-5.17-4.05-1.88-1.45-1.7-3.27-3.44-5.09-4.08-4.24-10.1.39-13.64-2.21-4.03-2.96,3.62-6.28,6.11-6.54,4.18-.43,10.76,3.51,13.55.58,3.1-3.25-.91-5.53,3.88-7.87,1.89-.92,3.48-.71,4.5-2.43.69-1.16.31-4.48.6-5.9.57-2.76,1.7-8.16,5.07-8.73,4.67,2.4,7.08,8.48,12.18,10.56,6.59,2.69,5.63-7.6,12.27-4.06,4.75,2.53,5.69,6.86,11.06,7.92,4.47.88,11.84,3.98,11.18-3.05-.49-5.27-5.86-8.15-9.43-11.39-5.09-4.63-6.99-6.33-4.82-13.59,1.74-5.81,4.72-11.18,7.38-16.9M259.28,152.23c2.3-1.06,4.04-5.18,5.66-7.18,1.91-2.36,5-4.9,7.63-6.26,8.72-4.52,18.8,5.12,27.99,1.63,2.74-1.04,5.95-4.07,6.66-6.96.38-1.54.36-2.68,1-4.21.6-1.45,1.63-2.86,1.29-4.59-.33-1.7-1.57-2.28-2.79-3.41-1.84-1.71-2.25-2.16-2.29-4.33-.05-2.42-.25-6.44.54-8.72-.78,2.27-.58,6.3-.54,8.72.04,2.16.45,2.62,2.29,4.33,1.22,1.13,2.46,1.71,2.79,3.41.34,1.74-.69,3.14-1.29,4.59-.64,1.53-.62,2.67-1,4.21-.71,2.9-3.92,5.92-6.66,6.96-9.19,3.48-19.27-6.15-27.99-1.63-2.63,1.36-5.72,3.89-7.63,6.26-1.62,2-3.36,6.12-5.66,7.18-3.28,1.51-22.63-6.06-22.99-1.25.36-4.82,19.71,2.75,22.99,1.25ZM164.57,82.8c.24,2.71,2.44,4.73,2.8,7.45.51,3.76-1.88,5.64-2.63,8.94-1.07,4.7,3.6,5.58,7.02,6.34,4,.89,3.47,5.14,7.68,5.99,5.08,1.02,10.47.44,15.25,3.07,3.37,1.85,4.97,5.04,6.82,8.21,1.22,2.09,2.53,3.37,4.03,5.09,1.7,1.93,2.24,4.6,3.95,6.53,2.5,2.83,4.6,3.25,8.08,3.25,2.06,0,3.39-.43,4.5,1.45,1.45,2.47.66,7.43.11,10,.55-2.57,1.34-7.54-.11-10-1.11-1.88-2.44-1.45-4.5-1.45-3.48,0-5.59-.43-8.08-3.25-1.71-1.94-2.25-4.6-3.95-6.53-1.5-1.71-2.81-3-4.03-5.09-1.85-3.17-3.45-6.35-6.82-8.21-4.78-2.63-10.16-2.04-15.25-3.07-4.21-.85-3.69-5.1-7.68-5.99-3.42-.76-8.08-1.64-7.02-6.34.75-3.3,3.14-5.17,2.63-8.94-.37-2.71-2.56-4.74-2.8-7.45-.3-3.31.53-5.47-.46-8.75.99,3.28.16,5.44.46,8.75ZM220.47,191.91c-.9-1.04-7.24-3.88-8.3-4.73M212.17,187.17c-2.7-2.15-5.62-4.02-7.3-7.33-2.04-4.02-.65-7.63,3.34-9.33,4.72-2.01,7.19-1.49,8.28-6.91.6-3.01,1.26-6.25,1.68-9.34.59-4.33.94-5.53,5.56-5.05,6.3.66,4.39-4.8,15.77,3.55,1.23.9,2.15,2.17,2.69,3.6.49,1.28,1.03,2.84,1.14,3.66.48,3.81-.67,7.66.69,11.35,1.57,4.28,3.77,7.22-.42,11.27-2.59,2.51-6.58,4.22-6.22,8.65.1,1.21,1.19,2.45,1.65,3.67.75,1.96.48,4.13,1.4,5.95,1.77,3.49,4.06,4.14,4.81,8.44,1.02,5.87,13.81,6.23,18.12,8.84"/>
      <path class="cls-2" d="M198.86,378.38c2.52-2.01,5.97.93,8.45,1.51,2.96.7,2.88.6,4.19,2.98.99,1.79,1.69,3.34,3.12,4.89.14.16.28.3.41.45,2.43-2.53,1.68-5.4,4.18-7.07,2.85-1.91,5.56,1.29,7.61,2.64,7.05,4.61,9.03-1.34,12.04-7.08,2.54-4.85,5.25-11.38,11.45-11.53,5.59-.14,10.1,3.13,11.53,8.21.56,1.99.06,4.67,2.16,6.05,2.42,1.59,6.05.17,8.61,2.17,2.03,1.58,2.85,4.42,3.91,6.66,1.63,3.42,3.25,4.64,6.92,6.2,2.01.85,6.29,2.45,8.46,1.84,2.92-.83,3.72-3.3,7.34-3.52,6.86-.41,11.45,3.99,17.65,5.24,3.76.76,4.95,3.46,8.22,4.83,2.53,1.06,5.71-.15,8.38-.29,6.73-.34,12.49-.69,19.13-.7.26-.7.8-1.53.68-2.34-.47-3.27-2.51-3.39-4.69-4.87-4.01-2.71-4.88-4.71-2.13-8.85,3.3-4.95,4.54-5.45,2.12-11.24-2.68-6.41.28-7.89,2.15-13.3,1.86-5.36-.19-9.58-.72-14.53-1.09-10.12,16.9-9.42,10.47-21.93-2.08-4.03-7.73-6.09-11.28-8.65-4.52-3.27-1.75-6.47-4.47-10.84-.94-1.51-2.18-2.01-3.68-2.84-3.91-2.18-7.22-2.04-11.55-2.44-3.99-.36-7.62-2.89-10.25-6.19-1.38-1.72-2.18-2.79-1.72-5.25.51-2.77,1.22-2.7,3.05-3.55-6.02-2.37-8.17.13-14.6,3.87"/>
    </g>
  </g>
</svg>