<?xml version="1.0" encoding="UTF-8"?>
<svg id="_레이어_2" data-name="레이어 2" xmlns="http://www.w3.org/2000/svg" viewBox="0 0 140.29 87.28">
  <defs>
    <style>
      .cls-1 {
        fill: #fff;
        stroke: #07a59f;
        stroke-miterlimit: 10;
      }
    </style>
  </defs>
  <g id="Layer_3" data-name="Layer 3">
    <path class="cls-1" d="M138.97,65.07c2.4-4.47-1.72-8.42-3.44-14.09-1.72-5.67-3.44-5.84-6.01-3.95s-5.15,0-5.15,0l-2.06-.86-3.26-3.44c0-5.15-.86-7.21-.86-7.21-3.26-1.72-1.55-5.33-1.55-5.33v-3.95l-4.98-2.06c-2.4-6.53-9.28-6.44-9.28-6.44l-3.35-5.41-2.32.26-1.29-1.8-1.8-2.83v-3.86l-2.06-3.35-2.58,2.06-6.18,1.29-7.73,3.35-6.7,1.29-5.93,1.8-5.67,2.83-5.41,1.29h-6.96l-7.73,3.09h-5.41s-6.01-.26-7.56,11.25l-12.71,15.29-3.09,8.42-1.72,5.84-3.95,4.64v3.95l-1.72,3.78.86,6.18h7.9s1.03-10.48,8.07-12.71h5.5s1.89-3.44,5.33-1.55c3.44,1.89,4.29-4.47,11.68.52,7.39,4.98,11.51-8.07,20.61.34l5.33,1.03,2.92,4.22,2.58.34s1.72,1.29,3.09,5.75c1.37,4.47,9.28-.52,11.17,4.98l3.09,3.44,1.89.86s1.37,4.12,6.36,1.72c4.98-2.4,6.87.69,11.85-6.87,0,0,1.89-3.44,7.21-2.75l4.29-1.89s7.04.42,9.1-.73c2.06-1.16,5.67-1.16,5.67-1.16l4.69-6.01-.73-1.55Z"/>
  </g>
</svg>