<?xml version="1.0" encoding="UTF-8"?>
<svg id="_레이어_2" data-name="레이어 2" xmlns="http://www.w3.org/2000/svg" viewBox="0 0 141.65 91.07">
  <defs>
    <style>
      .cls-1 {
        fill: #fff;
        stroke: #07a59f;
        stroke-miterlimit: 10;
      }
    </style>
  </defs>
  <g id="Layer_3" data-name="Layer 3">
    <path class="cls-1" d="M141.15,28.14v-4.81l-3.26-2.06s-.52-2.92-.69-7.21c-.17-4.29-3.61-4.64-3.61-4.64v-1.37l-1.33-1.72-4.69,6.01s-3.61,0-5.67,1.16c-2.06,1.16-9.1.73-9.1.73l-4.29,1.89c-5.33-.69-7.21,2.75-7.21,2.75-4.98,7.56-6.87,4.47-11.85,6.87-4.98,2.4-6.36-1.72-6.36-1.72l-1.89-.86-3.09-3.44c-1.89-5.5-9.79-.52-11.17-4.98-1.37-4.47-3.09-5.75-3.09-5.75l-2.58-.34-2.92-4.22-5.33-1.03c-9.1-8.42-13.23,4.64-20.61-.34-7.39-4.98-8.25,1.37-11.68-.52-3.44-1.89-5.33,1.55-5.33,1.55h-5.5C2.87,6.33,1.84,16.8,1.84,16.8c0,0-3.78,6.36,1.37,6.7,5.15.34,2.51,4.12,9.93,0,7.42-4.12.03,4.29,2.87,6.36,2.84,2.06.43,7.9-2.66,7.9,0,0-2.06,1.89,1.37,3.78,0,0,.86,1.89-1.37,2.58l-.21,5.5-1.17,1.89v5.67h4.04l1.26.69-1.86,3.26s-2.12,4.81,1.86,6.1c3.98,1.29,5.18,4.21,5.18,4.21l3.78,3.61,1.55,4.29h3.45s1.71,4.29,3.94,4.12h2.14s4.56,2.78,4.56,2.78l4.29,3.39,4.81.87s2.23-7.04,9.62-3.78l2.4-.86,4.29-4.63h6.01l1.2-1.55h3.61s1.89-2.58,3.44,0l5.84-1.15,3.44-3.66,2.58-.69.86-2.06,4.98-5.15s3.26-2.23,5.33,0c2.06,2.23,3.09-2.06,3.09-2.06l3.61-2.23s3.61-.86,0-4.98l2.4-2.4h2.06l4.98-7.04h5.5l1.2-1.2h4.81s3.78-1.72,4.81-7.04l3.59-3.92c-.1-.12-.15-.2-.15-.2v-6.18l.69-1.55Z"/>
  </g>
</svg>