<?xml version="1.0" encoding="UTF-8"?>
<svg id="_레이어_2" data-name="레이어 2" xmlns="http://www.w3.org/2000/svg" viewBox="0 0 204.1 127.15">
  <defs>
    <style>
      .cls-1 {
        fill: #fff;
        stroke: #07a59f;
        stroke-miterlimit: 10;
      }
    </style>
  </defs>
  <g id="Layer_3" data-name="Layer 3">
    <path class="cls-1" d="M198.96.51l-9.02.26-5.54,4.38s1.16,4.9-4.12,1.42c-5.28-3.48-7.09.64-7.09.64l-2.58,1.67s-4.51,2.58-7.09,4.64c-2.58,2.06-3.86-.13-3.86-.13h-5.54s-2.71-2.06-3.22.77-7.09,8.5-7.09,8.5l-3.61,4.12s.39,3.61.26,3.99-1.29,3.35-1.29,3.35c3.35,5.8,1.16,6.31,1.16,6.31-11.47.9-5.93-1.67-8.89-4.25-2.96-2.58-5.67.39-5.67.39,0,0-1.42.77-6.06,1.29-4.64.52-7.34-5.15-5.28-6.18,2.06-1.03,1.93-1.42.26-2.96-1.67-1.55-4.38.13-4.38.13l-2.83.39s-1.03,3.74-3.74,1.03c-2.71-2.71-4.64,1.29-4.64,1.29l-.13,4.12c-9.4,5.02-3.61,5.93-6.44,8.37-2.83,2.45-3.86.39-3.86.39l-3.48-1.55-2.06-1.93c-2.71-6.57-2.45-4.51-6.06-5.15-3.61-.64-1.29-5.93-3.35-8.37-2.06-2.45-4.12-.13-4.12-.13,0,0-1.93,2.06-3.35.26-1.42-1.8-3.61-.13-3.61-.13-5.02,2.83-6.44-3.09-6.44-3.09,0,0-5.28-.64-7.34.64-2.06,1.29-3.99,1.67-4.12.9s-1.67-2.58-2.58,1.42c-.9,3.99-5.93,6.57-5.93,6.57,0,0-3.99,2.58-5.8,1.29s-6.06,0-6.06,0l-3.86.26-1.67,1.8c-2.32,8.63,3.09,9.15,3.09,9.15l.9,5.93c6.96,3.48,5.28,5.67,1.93,11.08s-10.05-.26-10.05-.26l.13-2.83c-1.16-1.8-6.18.13-6.18.13v2.71l-2.06.77-4.38,8.25-1.03.14,2.19,1.8h5.93l6.44,2.83,4.9,2.06h1.29l13.66.77s5.67,2.75,9.28,2.06c3.61-.69,6.01,1.37,6.01,1.37,0,0,5.67,8.42,17.01,2.23,11.34-6.18,12.88-6.53,20.27,3.44l5.84,3.26s10.31-3.78,2.75,5.33c0,0,17.18,15.12,18.38,20.1v1.03h6.18v6.87s4.81,2.75,9.28,0c2.16-1.33,4.61-1.45,6.28-.95l2.14-4.89.86-5.5h1.55l3.26-2.4c11.17.17,10.65-4.64,10.65-4.64,0,0-2.58-16.83,7.21-19.75,9.79-2.92,8.59-11.34,8.59-11.34l-.86-6.18,1.72-3.78v-3.95l3.95-4.64,1.72-5.84,3.09-8.42,12.71-15.29c1.55-11.51,7.56-11.25,7.56-11.25,6.83-7.6-2.06-16.1-2.06-16.1Z"/>
  </g>
</svg>