<?xml version="1.0" encoding="UTF-8"?>
<svg id="_레이어_2" data-name="레이어 2" xmlns="http://www.w3.org/2000/svg" viewBox="0 0 69.36 69.96">
  <defs>
    <style>
      .cls-1 {
        fill: #fff;
        stroke: #07a59f;
        stroke-miterlimit: 10;
      }
    </style>
  </defs>
  <g id="Layer_3" data-name="Layer 3">
    <path class="cls-1" d="M68.78,63.03l-1.55-4.29-3.78-3.61s-1.2-2.92-5.18-4.21c-3.98-1.29-1.86-6.1-1.86-6.1l1.86-3.26-1.26-.69h-4.04v-5.67l1.17-1.89.21-5.5c2.23-.69,1.37-2.58,1.37-2.58-3.44-1.89-1.37-3.78-1.37-3.78,3.09,0,5.5-5.84,2.66-7.9-2.84-2.06,4.55-10.48-2.87-6.36-7.42,4.12-4.77.34-9.93,0-5.15-.34-1.37-6.7-1.37-6.7h-7.9s1.2,8.42-8.59,11.34c-9.79,2.92-7.21,19.75-7.21,19.75,0,0,.52,4.81-10.65,4.64l-3.26,2.4h-1.55l-.86,5.5-2.14,4.89c1.78.53,2.69,1.77,1.45,3.01l-.52,9.1,1.09,1.55h6.99l7.9,5.96s2.56.74,3.77-2.53c1.21-3.26-2.85-5.84,3.13-6.53,5.98-.69,7.01-4.29,7.01-4.29,0,0,2.23-3.09,4.64,0l1.88,1.55,1.55.17v9.1l6.18.34,2,1.37h6.38s4.16,2.96,5.36.88c1.2-2.08,2.23-.54,5.33-2.77,0,0,4.66-.96,3.95-2.92Z"/>
  </g>
</svg>