<?xml version="1.0" encoding="UTF-8"?>
<svg id="_레이어_2" data-name="레이어 2" xmlns="http://www.w3.org/2000/svg" viewBox="0 0 77.68 42.73">
  <defs>
    <style>
      .cls-1 {
        fill: #fff;
        stroke: #07a59f;
        stroke-miterlimit: 10;
      }
    </style>
  </defs>
  <g id="Layer_3" data-name="Layer 3">
    <path class="cls-1" d="M76.84,20.77l-4.81-.87-4.29-3.39-4.56-2.78h-2.14c-2.23.17-3.94-4.13-3.94-4.13h-3.45c.71,1.96-3.95,2.92-3.95,2.92-3.09,2.23-4.12.69-5.33,2.77-1.2,2.08-5.36-.88-5.36-.88h-6.38l-2-1.37-6.18-.34V3.59l-1.55-.17-1.88-1.55c-2.4-3.09-4.64,0-4.64,0,0,0-1.03,3.61-7.01,4.29-5.98.69-1.92,3.26-3.13,6.53-1.21,3.26-3.77,2.53-3.77,2.53l.52.39,2.23,4.47,3.26,4.81,3.95,2.4.66,1.2h2.6l1.89-3.61,5.32-.83s2.2-1.54,5.2-1.97c1.39-.2,2.95-.16,4.55.39,5.04,1.72,13.46-.34,10.54,7.56l3.53,3.26v3.44l1.63,4.98,3.95-4.64h4.64l1.89-1.89h2.4l2.89-2.58,2.61-.86,1.89-3.44s2.92-3.95,6.36-4.12c3.44-.17,1.89-3.44,1.89-3.44Z"/>
  </g>
</svg>