<?xml version="1.0" encoding="UTF-8"?>
<svg id="_레이어_2" data-name="레이어 2" xmlns="http://www.w3.org/2000/svg" viewBox="0 0 318.85 178.73">
  <defs>
    <style>
      .cls-1, .cls-2, .cls-3, .cls-4 {
        stroke: #07a59f;
      }

      .cls-1, .cls-3, .cls-4 {
        fill: none;
        stroke-linecap: round;
        stroke-linejoin: round;
      }

      .cls-2 {
        fill: #fff;
        stroke-miterlimit: 10;
      }

      .cls-3 {
        stroke-dasharray: .49 1.97;
      }

      .cls-4 {
        stroke-dasharray: .5 1.99;
      }
    </style>
  </defs>
  <g id="Layer_6" data-name="Layer 6">
    <g>
      <g>
        <path class="cls-2" d="M194.5,160.07c2.92-7.9-5.5-5.84-10.54-7.56-1.6-.54-3.16-.58-4.55-.39v3.48l1.51,4.98v3.02l.27,4.07c2.06.88,5.16,1.1,10.72,1.84l.69-1.84,5.42-.9v-3.44l-3.53-3.26Z"/>
        <path class="cls-2" d="M204.97,139.62l-1.55-4.29-3.78-3.61s-1.2-2.92-5.18-4.21c-3.98-1.29-1.86-6.1-1.86-6.1l1.86-3.26-1.26-.69h-4.04v-5.67l1.17-1.89.21-5.5c2.23-.69,1.37-2.58,1.37-2.58-3.44-1.89-1.37-3.78-1.37-3.78,3.09,0,5.5-5.84,2.66-7.9-2.84-2.06,4.55-10.48-2.87-6.36-7.42,4.12-4.77.34-9.93,0-5.15-.34-1.37-6.7-1.37-6.7h-7.9s1.2,8.42-8.59,11.34c-9.79,2.92-7.21,19.75-7.21,19.75,0,0,.52,4.81-10.65,4.64l-3.26,2.4h-1.55l-.86,5.5-2.14,4.89c1.78.53,2.69,1.77,1.45,3.01l-.52,9.1,1.09,1.55h6.99l7.9,5.96s2.56.74,3.77-2.53c1.21-3.26-2.85-5.84,3.13-6.53,5.98-.69,7.01-4.29,7.01-4.29,0,0,2.23-3.09,4.64,0l1.88,1.55,1.55.17v9.1l6.18.34,2,1.37h6.38s4.16,2.96,5.36.88c1.2-2.08,2.23-.54,5.33-2.77,0,0,4.66-.96,3.95-2.92Z"/>
        <path class="cls-2" d="M308.73,65.07c2.4-4.47-1.72-8.42-3.44-14.09-1.72-5.67-3.44-5.84-6.01-3.95s-5.15,0-5.15,0l-2.06-.86-3.26-3.44c0-5.15-.86-7.21-.86-7.21-3.26-1.72-1.55-5.33-1.55-5.33v-3.95l-4.98-2.06c-2.4-6.53-9.28-6.44-9.28-6.44l-3.35-5.41-2.32.26-1.29-1.8-1.8-2.83v-3.86l-2.06-3.35-2.58,2.06-6.18,1.29-7.73,3.35-6.7,1.29-5.93,1.8-5.67,2.83-5.41,1.29h-6.96l-7.73,3.09h-5.41s-6.01-.26-7.56,11.25l-12.71,15.29-3.09,8.42-1.72,5.84-3.95,4.64v3.95l-1.72,3.78.86,6.18h7.9s1.03-10.48,8.07-12.71h5.5s1.89-3.44,5.33-1.55c3.44,1.89,4.29-4.47,11.68.52,7.39,4.98,11.51-8.07,20.61.34l5.33,1.03,2.92,4.22,2.58.34s1.72,1.29,3.09,5.75c1.37,4.47,9.28-.52,11.17,4.98l3.09,3.44,1.89.86s1.37,4.12,6.36,1.72c4.98-2.4,6.87.69,11.85-6.87,0,0,1.89-3.44,7.21-2.75l4.29-1.89s7.04.42,9.1-.73c2.06-1.16,5.67-1.16,5.67-1.16l4.69-6.01-.73-1.55Z"/>
        <path class="cls-2" d="M198.96,1.65l-9.02.26-5.54,4.38s1.16,4.9-4.12,1.42c-5.28-3.48-7.09.64-7.09.64l-2.58,1.67s-4.51,2.58-7.09,4.64c-2.58,2.06-3.86-.13-3.86-.13h-5.54s-2.71-2.06-3.22.77-7.09,8.5-7.09,8.5l-3.61,4.12s.39,3.61.26,3.99-1.29,3.35-1.29,3.35c3.35,5.8,1.16,6.31,1.16,6.31-11.47.9-5.93-1.67-8.89-4.25-2.96-2.58-5.67.39-5.67.39,0,0-1.42.77-6.06,1.29-4.64.52-7.34-5.15-5.28-6.18,2.06-1.03,1.93-1.42.26-2.96-1.67-1.55-4.38.13-4.38.13l-2.83.39s-1.03,3.74-3.74,1.03c-2.71-2.71-4.64,1.29-4.64,1.29l-.13,4.12c-9.4,5.02-3.61,5.93-6.44,8.37-2.83,2.45-3.86.39-3.86.39l-3.48-1.55-2.06-1.93c-2.71-6.57-2.45-4.51-6.06-5.15-3.61-.64-1.29-5.93-3.35-8.37-2.06-2.45-4.12-.13-4.12-.13,0,0-1.93,2.06-3.35.26-1.42-1.8-3.61-.13-3.61-.13-5.02,2.83-6.44-3.09-6.44-3.09,0,0-5.28-.64-7.34.64-2.06,1.29-3.99,1.67-4.12.9s-1.67-2.58-2.58,1.42c-.9,3.99-5.93,6.57-5.93,6.57,0,0-3.99,2.58-5.8,1.29s-6.06,0-6.06,0l-3.86.26-1.67,1.8c-2.32,8.63,3.09,9.15,3.09,9.15l.9,5.93c6.96,3.48,5.28,5.67,1.93,11.08s-10.05-.26-10.05-.26l.13-2.83c-1.16-1.8-6.18.13-6.18.13v2.71l-2.06.77-4.38,8.25-1.03.14,2.19,1.8h5.93l6.44,2.83,4.9,2.06h1.29l13.66.77s5.67,2.75,9.28,2.06c3.61-.69,6.01,1.37,6.01,1.37,0,0,5.67,8.42,17.01,2.23,11.34-6.18,12.88-6.53,20.27,3.44l5.84,3.26s10.31-3.78,2.75,5.33c0,0,17.18,15.12,18.38,20.1v1.03h6.18v6.87s4.81,2.75,9.28,0c2.16-1.33,4.61-1.45,6.28-.95l2.14-4.89.86-5.5h1.55l3.26-2.4c11.17.17,10.65-4.64,10.65-4.64,0,0-2.58-16.83,7.21-19.75,9.79-2.92,8.59-11.34,8.59-11.34l-.86-6.18,1.72-3.78v-3.95l3.95-4.64,1.72-5.84,3.09-8.42,12.71-15.29c1.55-11.51,7.56-11.25,7.56-11.25,6.83-7.6-2.06-16.1-2.06-16.1Z"/>
        <path class="cls-2" d="M228.16,150.79l-4.81-.87-4.29-3.39-4.56-2.78h-2.14c-2.23.17-3.94-4.13-3.94-4.13h-3.45c.71,1.96-3.95,2.92-3.95,2.92-3.09,2.23-4.12.69-5.33,2.77-1.2,2.08-5.36-.88-5.36-.88h-6.38l-2-1.37-6.18-.34v-9.1l-1.55-.17-1.88-1.55c-2.4-3.09-4.64,0-4.64,0,0,0-1.03,3.61-7.01,4.29-5.98.69-1.92,3.26-3.13,6.53-1.21,3.26-3.77,2.53-3.77,2.53l.52.39,2.23,4.47,3.26,4.81,3.95,2.4.66,1.2h2.6l1.89-3.61,5.32-.83s2.2-1.54,5.2-1.97c1.39-.2,2.95-.16,4.55.39,5.04,1.72,13.46-.34,10.54,7.56l3.53,3.26v3.44l1.63,4.98,3.95-4.64h4.64l1.89-1.89h2.4l2.89-2.58,2.61-.86,1.89-3.44s2.92-3.95,6.36-4.12c3.44-.17,1.89-3.44,1.89-3.44Z"/>
        <path class="cls-2" d="M318.35,88.44v-4.81l-3.26-2.06s-.52-2.92-.69-7.21c-.17-4.29-3.61-4.64-3.61-4.64v-1.37l-1.33-1.72-4.69,6.01s-3.61,0-5.67,1.16c-2.06,1.16-9.1.73-9.1.73l-4.29,1.89c-5.33-.69-7.21,2.75-7.21,2.75-4.98,7.56-6.87,4.47-11.85,6.87-4.98,2.4-6.36-1.72-6.36-1.72l-1.89-.86-3.09-3.44c-1.89-5.5-9.79-.52-11.17-4.98-1.37-4.47-3.09-5.75-3.09-5.75l-2.58-.34-2.92-4.22-5.33-1.03c-9.1-8.42-13.23,4.64-20.61-.34-7.39-4.98-8.25,1.37-11.68-.52-3.44-1.89-5.33,1.55-5.33,1.55h-5.5c-7.04,2.23-8.07,12.71-8.07,12.71,0,0-3.78,6.36,1.37,6.7,5.15.34,2.51,4.12,9.93,0,7.42-4.12.03,4.29,2.87,6.36,2.84,2.06.43,7.9-2.66,7.9,0,0-2.06,1.89,1.37,3.78,0,0,.86,1.89-1.37,2.58l-.21,5.5-1.17,1.89v5.67h4.04l1.26.69-1.86,3.26s-2.12,4.81,1.86,6.1c3.98,1.29,5.18,4.21,5.18,4.21l3.78,3.61,1.55,4.29h3.45s1.71,4.29,3.94,4.12h2.14s4.56,2.78,4.56,2.78l4.29,3.39,4.81.87s2.23-7.04,9.62-3.78l2.4-.86,4.29-4.63h6.01l1.2-1.55h3.61s1.89-2.58,3.44,0l5.84-1.15,3.44-3.66,2.58-.69.86-2.06,4.98-5.15s3.26-2.23,5.33,0c2.06,2.23,3.09-2.06,3.09-2.06l3.61-2.23s3.61-.86,0-4.98l2.4-2.4h2.06l4.98-7.04h5.5l1.2-1.2h4.81s3.78-1.72,4.81-7.04l3.59-3.92c-.1-.12-.15-.2-.15-.2v-6.18l.69-1.55Z"/>
        <path class="cls-2" d="M180.92,163.6v-3.02l-1.51-4.98v-3.48c-3,.43-5.2,1.97-5.2,1.97l-5.32.83-1.89,3.61h-2.6l3.79,6.86,6.01-1.19s2.15-1.91,4.26,1.19c.75,1.11,1.58,1.8,2.72,2.29l-.27-4.07Z"/>
        <path class="cls-2" d="M199.65,171.75l-1.63-4.98-5.42.9-.69,1.84c-5.56-.74-8.66-.96-10.72-1.84-1.14-.49-1.97-1.19-2.72-2.29-2.11-3.1-4.26-1.19-4.26-1.19l-6.01,1.19,6.64,12.02c3.67,1.74,4.7.33,6.25-.34l4.12-.84s.69-1.55,5.5-1.2c4.81.34,4.47-1.37,4.47-1.37l4.47-1.89Z"/>
      </g>
      <g>
        <line class="cls-1" x1="150.19" y1="161.88" x2="150.44" y2="161.88"/>
        <line class="cls-3" x1="152.4" y1="161.88" x2="168.63" y2="161.88"/>
        <line class="cls-1" x1="169.62" y1="161.88" x2="169.87" y2="161.88"/>
      </g>
      <g>
        <line class="cls-1" x1="158.36" y1="172.86" x2="158.61" y2="172.86"/>
        <line class="cls-3" x1="160.57" y1="172.86" x2="176.8" y2="172.86"/>
        <line class="cls-1" x1="177.79" y1="172.86" x2="178.04" y2="172.86"/>
      </g>
      <g>
        <line class="cls-1" x1="190.53" y1="163.66" x2="190.77" y2="163.71"/>
        <polyline class="cls-4" points="192.73 164.08 216.82 168.64 228.6 169.09"/>
        <line class="cls-1" x1="229.6" y1="169.12" x2="229.85" y2="169.13"/>
      </g>
      <g>
        <line class="cls-1" x1="210.44" y1="156.26" x2="210.69" y2="156.26"/>
        <line class="cls-3" x1="212.66" y1="156.26" x2="228.89" y2="156.26"/>
        <line class="cls-1" x1="229.87" y1="156.26" x2="230.12" y2="156.26"/>
      </g>
    </g>
  </g>
</svg>