<?xml version="1.0" encoding="UTF-8"?>
<svg id="_레이어_2" data-name="레이어 2" xmlns="http://www.w3.org/2000/svg" viewBox="0 0 129.16 72.57">
  <defs>
    <style>
      .cls-1 {
        fill: #fff;
        stroke: #07a59f;
        stroke-miterlimit: 10;
      }
    </style>
  </defs>
  <g id="Layer_4" data-name="Layer 4">
    <path class="cls-1" d="M128.66,35.99v-1.93l-1.31-.83s-.21-1.17-.28-2.9c-.07-1.73-1.45-1.86-1.45-1.86v-.55l-.53-.69-.3-.62c.97-1.79-.69-3.38-1.38-5.66s-1.38-2.35-2.42-1.59c-1.04.76-2.07,0-2.07,0l-.83-.35-1.31-1.38c0-2.07-.35-2.9-.35-2.9-1.31-.69-.62-2.14-.62-2.14v-1.59l-2-.83c-.97-2.62-3.73-2.59-3.73-2.59l-1.35-2.17-.93.1-.52-.72-.72-1.14v-1.55l-.83-1.35-1.04.83-2.49.52-3.11,1.35-2.69.52-2.38.72-2.28,1.14-2.17.52h-2.8l-3.11,1.24h-2.17c2.74-3.05-.83-6.47-.83-6.47l-3.62.1-2.23,1.76s.47,1.97-1.66.57c-2.12-1.4-2.85.26-2.85.26l-1.04.67s-1.81,1.04-2.85,1.86-1.55-.05-1.55-.05h-2.23s-1.09-.83-1.29.31c-.21,1.14-2.85,3.42-2.85,3.42l-1.45,1.66s.16,1.45.1,1.61-.52,1.35-.52,1.35c1.35,2.33.47,2.54.47,2.54-4.61.36-2.38-.67-3.57-1.71-1.19-1.04-2.28.16-2.28.16,0,0-.57.31-2.43.52s-2.95-2.07-2.12-2.49c.83-.41.78-.57.1-1.19-.67-.62-1.76.05-1.76.05l-1.14.16s-.41,1.5-1.5.41-1.86.52-1.86.52l-.05,1.66c-3.78,2.02-1.45,2.38-2.59,3.37-1.14.98-1.55.16-1.55.16l-1.4-.62-.83-.78c-1.09-2.64-.98-1.81-2.43-2.07-1.45-.26-.52-2.38-1.35-3.37-.83-.98-1.66-.05-1.66-.05,0,0-.78.83-1.35.1-.57-.72-1.45-.05-1.45-.05-2.02,1.14-2.59-1.24-2.59-1.24,0,0-2.12-.26-2.95.26-.83.52-1.61.67-1.66.36s-.67-1.04-1.04.57c-.36,1.61-2.38,2.64-2.38,2.64,0,0-1.61,1.04-2.33.52-.72-.52-2.43,0-2.43,0l-1.55.1-.67.72c-.93,3.47,1.24,3.68,1.24,3.68l.36,2.38c2.8,1.4,2.12,2.28.78,4.45-1.35,2.17-4.04-.1-4.04-.1l.05-1.14c-.47-.72-2.49.05-2.49.05v1.09l-.83.31-1.76,3.31-.41.05.88.72h2.38l2.59,1.14,1.97.83h.52l5.49.31s2.28,1.1,3.73.83c1.45-.28,2.42.55,2.42.55,0,0,2.28,3.38,6.83.9s5.18-2.62,8.15,1.38l2.35,1.31s4.14-1.52,1.1,2.14c0,0,6.9,6.07,7.39,8.08v.41h2.49v2.76s1.93,1.1,3.73,0c.87-.54,1.85-.58,2.52-.38.72.21,1.08.71.58,1.21l-.21,3.66.44.62h2.81l3.17,2.4.21.16.9,1.79,1.31,1.93,1.59.97.27.48,1.52,2.76,2.67,4.83c1.48.7,1.89.13,2.51-.14l1.66-.34s.28-.62,2.21-.48,1.79-.55,1.79-.55l1.79-.76,1.59-1.86h1.86l.76-.76h.97l1.16-1.04,1.05-.35.76-1.38s1.17-1.59,2.55-1.66c1.38-.07.76-1.38.76-1.38,0,0,.9-2.83,3.87-1.52l.97-.35,1.73-1.86h2.42l.48-.62h1.45s.76-1.04,1.38,0l2.35-.46,1.38-1.47,1.04-.28.35-.83,2-2.07s1.31-.9,2.14,0c.83.9,1.24-.83,1.24-.83l1.45-.9s1.45-.35,0-2l.97-.97h.83l2-2.83h2.21l.48-.48h1.93s1.52-.69,1.93-2.83l1.44-1.58s-.06-.08-.06-.08v-2.49l.28-.62Z"/>
  </g>
</svg>