<?xml version="1.0" encoding="UTF-8"?>
<svg id="_레이어_2" data-name="레이어 2" xmlns="http://www.w3.org/2000/svg" viewBox="0 0 37.18 24.22">
  <defs>
    <style>
      .cls-1 {
        fill: #fff;
        stroke: #07a59f;
        stroke-miterlimit: 10;
      }
    </style>
  </defs>
  <g id="Layer_5" data-name="Layer 5">
    <path class="cls-1" d="M34.18,12.81h0c-2.5.16-2.08-.86-2.08-.86.26-2.48-3.74-1.58-3.74-1.58-4.51,1.99-6.96-1.99-6.96-1.99l-4.25-.77v-2.19h-3.48v-2.19h-2.83c-3.74-.39-2.96-2.48-2.96-2.48l-.03-.19c-1.77.18-4.23.3-6.97.06h0c.11.41.14.77,0,.99-.52.86-.34,3.69.86,4.9,1.2,1.2,1.03,3.01-.86,4.29-1.89,1.29,3.95,9.89,3.95,9.89l1.8,2.55s3.56-7.76,8.07-5.05c.86.52,1.76.67,2.73.59,4.08-.33,9.39-4.73,18.66-2.82l.49-2.72c-1.13.1-1.88-.08-2.39-.4Z"/>
  </g>
</svg>