<?xml version="1.0" encoding="UTF-8"?>
<svg id="_레이어_2" data-name="레이어 2" xmlns="http://www.w3.org/2000/svg" viewBox="0 0 42.77 31.96">
  <defs>
    <style>
      .cls-1 {
        fill: #fff;
        stroke: #07a59f;
        stroke-miterlimit: 10;
      }
    </style>
  </defs>
  <g id="Layer_5" data-name="Layer 5">
    <path class="cls-1" d="M40.04,19.62c-.99,0-.57-3.09-.57-3.09,0,0,.01-6.18-3.08-8.59-3.09-2.4,1.97-2.92,1.97-2.92l-1.11-3.95-1.59,1.98h-7.86s-4.51-1.16-5.67,1.67c-1.16,2.83-3.35-.26-2.96,4.12.39,4.38-3.09.9-3.09.9,0,0-2.58-1.03-3.22,2.19,0,0-.75,2.93-4.18,1.08l-5.23,5.75s-1.09.24-2.87.42l.03.19s-.77,2.1,2.96,2.48h2.83v2.19h3.48v2.19l4.25.77s2.45,3.98,6.96,1.99c0,0,3.99-.9,3.74,1.58,0,0-.41,1.02,2.08.87h0c-1.3-.81-1.01-2.45-1.01-2.45l1.01-5.94s4.66.17,11.53,0c6.87-.17,2.58-3.44,1.59-3.44Z"/>
  </g>
</svg>