<?xml version="1.0" encoding="UTF-8"?>
<svg id="_레이어_2" data-name="레이어 2" xmlns="http://www.w3.org/2000/svg" viewBox="0 0 24.22 31.92">
  <defs>
    <style>
      .cls-1 {
        fill: #fff;
        stroke: #07a59f;
        stroke-miterlimit: 10;
      }
    </style>
  </defs>
  <g id="Layer_5" data-name="Layer 5">
    <path class="cls-1" d="M23.18,16.02l-1.55-3.26-1.16-2.28-1.12-3.62c-2.96-1.95-2.81-5.19-2.81-5.19-.97.08-1.86-.07-2.73-.59C9.31-1.63,5.74,6.13,5.74,6.13v1.73l2.75,3.26s.86,1.71-2.49,2.06S.5,19.54.5,19.54c0,0-.17,5.67,2.83,10.13l2.92.86,1.63.56s2.35,1.08,3.75-.64c1.4-1.72,3.41-.89,3.41-.89.44-.75,1.19-1.54,2.46-2.37,5.5-3.61,7.21-5.5,5.67-11.17Z"/>
  </g>
</svg>