<?xml version="1.0" encoding="UTF-8"?>
<svg id="_레이어_2" data-name="레이어 2" xmlns="http://www.w3.org/2000/svg" viewBox="0 0 76.12 52.48">
  <defs>
    <style>
      .cls-1 {
        fill: #fff;
        stroke: #07a59f;
        stroke-miterlimit: 10;
      }
    </style>
  </defs>
  <g id="Layer_5" data-name="Layer 5">
    <path class="cls-1" d="M74.55,25.26l-2.23-4.47-8.42-6.36h-6.99l-1.09-1.55.52-9.1c2.4-2.4-3.26-4.81-7.73-2.06-1.29.79-2.61,1.13-3.83,1.2h0s-2.52,3.26-11.8,2.58c0,0-3.26,2.42-9.45.1-6.18-2.33-14.26,2.83-15.98,3.86-1.72,1.03-8.25,6.01-6.87,10.65,1.37,4.64,1.44,9.14,1.44,9.14h0c.99-2.01,1.37-3.85,4.4-4.16,0,0,2.4-.34,2.92,3.52l2.62.09v1.46s1.93,2.83.64,5.84l1.46,2.83,2.49,1.89,1.29,2.66s1.29,2.06,4.04.6l1.89.52,1.12,2.58,2.75-.09.6,2.06s1.04,1.61,1.37,2.79h0c2.74.24,5.2.12,6.97-.06,1.78-.18,2.87-.42,2.87-.42l5.23-5.75c3.42,1.85,4.18-1.08,4.18-1.08.64-3.22,3.22-2.19,3.22-2.19,0,0,3.48,3.48,3.09-.9-.39-4.38,1.8-1.29,2.96-4.12,1.16-2.83,5.67-1.67,5.67-1.67h7.86l1.59-1.98,2.22-6.91h0s-1.02-1.5-1.02-1.5Z"/>
  </g>
</svg>