<?xml version="1.0" encoding="UTF-8"?>
<svg id="_레이어_2" data-name="레이어 2" xmlns="http://www.w3.org/2000/svg" viewBox="0 0 91.99 113.8">
  <defs>
    <style>
      .cls-1 {
        fill: #fff;
        stroke: #07a59f;
        stroke-miterlimit: 10;
      }
    </style>
  </defs>
  <g id="Layer_5" data-name="Layer 5">
    <path class="cls-1" d="M90.22,26.33l-1.85-.17-1.2.94-.78,1.46-1.2.99-3.26-.39h-1.72l-3.44.39s-2.06,1.16-4.03,2.1c-1.98.95-3.87-.08-5.84-.85-1.98-.78-2.41-1.12-2.32-3.78.08-2.67-4.55.17-5.21-.86-.67-1.03-3.55,0-3.55,0-2.15,2.83-.17,5.49-.17,5.49l1.54.61,1.72,3.69,1.55.51c1.89,4.64.17,4.9.17,4.9l-.17,3.95c-3.01,1.89-1.09,5.75-1.09,5.75l.48,1.71.86,2.16c-4.03,3.61-3-1.8-6.95-2.15-3.95-.34-3.27,4.55-3.27,4.55,0,0,1.46,3.53.17,5.16-1.28,1.63-2.14,3-2.4,4.38-.26,1.37-3.69,2.83,2.15,6.1,5.84,3.26,1.29,6.01,5.24,7.55,3.95,1.55,4.03-1.2,4.03-1.2h2.84s.43,2.66,2.57.26c2.15-2.41,2.24,1.2,2.24,1.2l2.4,1.03,1.98,2.49-1.81,9.28-8.24,7.73-5.12,7.38-2.23-1.58-3.86,1.03-1.03,1.93-.9,3.22-17.14-.13s-4.51-4.64-10.56-1.54c-6.06,3.09-4.38-2.97-4.38-2.97,0,0-2.49-3.09-.21-5.67l-3.14-3.86-1.93-2.58s-2.97.9-5.67-3.35l-1.42-3.86-2.83-.52-.65-3.99c8.16-.09,9.88-10.05,9.88-10.05,6.53.69,6.87-11.81,6.87-11.81h5.67s5.15-1.25,2.23-9.66c-2.92-8.42,1.89-12.03,3.27-12.85,1.37-.83,5.32-5.36,3.26-11.2-2.06-5.84,1.93-9.96,1.93-9.96,2.92-.57,4.86-3.11,5.28-5.57,5.11.15,7.95-1.3,9.63-2.79,1.82-1.62,2.25-3.25,3.57-5.07.34-.47.72-.94,1.22-1.44,2.21-2.21,4.94-3.29,7.39-3.83.04.16.07.32.1.49,0,.09.03.18.05.27.56,2.93,2.01,6.08,2.01,6.08l3.55.34c-.37-.1-2.59-.71.66.01,3.52.77,3,3.69,3,3.69l3.26,3.26-.25,3.95v3.35l-.6.69.94,1.12h4.21c7.99,3.35,9.62-4.3,12.5-2.41,2.87,1.89,0,4.9,0,4.9Z"/>
  </g>
</svg>