<?xml version="1.0" encoding="UTF-8"?>
<svg id="_레이어_2" data-name="레이어 2" xmlns="http://www.w3.org/2000/svg" viewBox="0 0 77.13 108.67">
  <defs>
    <style>
      .cls-1 {
        fill: #fff;
        stroke: #07a59f;
        stroke-miterlimit: 10;
      }
    </style>
  </defs>
  <g id="Layer_5" data-name="Layer 5">
    <path class="cls-1" d="M76.41,73.31s-2.01-.83-3.41.89c-1.4,1.72-3.75.64-3.75.64l-1.63-.56-2.92-.86c-3.01-4.47-2.83-10.13-2.83-10.13,0,0,2.15-6.01,5.5-6.36s2.49-2.06,2.49-2.06l-2.75-3.26v-1.73l-1.8-2.55s-5.84-8.6-3.95-9.89c1.89-1.29,2.06-3.09.86-4.29-1.2-1.2-1.37-4.04-.86-4.9.13-.22.1-.58,0-.99-.32-1.18-1.37-2.79-1.37-2.79l-.6-2.06-2.75.09-1.12-2.58-1.89-.52c-2.75,1.46-4.04-.6-4.04-.6l-1.29-2.66-2.49-1.89-1.46-2.83c1.29-3.01-.64-5.84-.64-5.84v-1.46l-2.62-.09c-.52-3.86-2.92-3.52-2.92-3.52-3.03.3-3.41,2.15-4.4,4.16-.41.83-.93,1.7-1.78,2.49-2.92,2.69-8.25,1.86-11.08.57-2.83-1.29-5.67,0-5.67,0l-2.4,2.4-.26,8.93s1.29,2.66,1.8,5.67c.52,3.01,2.06,6.36,2.06,6.36l3.61.34s-2.92-.77.6,0c3.52.77,3.01,3.69,3.01,3.69l3.26,3.26-.26,3.95v3.35l-.6.69.94,1.12h4.21c7.99,3.35,9.62-4.29,12.5-2.4,2.88,1.89,0,4.9,0,4.9l-1.85-.17-1.2.94-.77,1.46-1.2.99-3.26-.39h-1.72l-3.44.39s-2.06,1.16-4.04,2.1-3.86-.09-5.84-.86c-1.98-.77-2.4-1.12-2.32-3.78.09-2.66-4.55.17-5.21-.86-.66-1.03-3.55,0-3.55,0-2.15,2.83-.17,5.5-.17,5.5l1.55.6,1.72,3.69,1.55.52c1.89,4.64.17,4.9.17,4.9l-.17,3.95c-3.01,1.89-1.09,5.75-1.09,5.75l.49,1.7.86,2.16c-4.04,3.61-3.01-1.8-6.96-2.15-3.95-.34-3.26,4.55-3.26,4.55,0,0,1.46,3.52.17,5.15-1.29,1.63-2.15,3.01-2.4,4.38-.26,1.37-3.69,2.83,2.15,6.1,5.84,3.26,1.29,6.01,5.24,7.56,3.95,1.55,4.04-1.2,4.04-1.2h2.83s.43,2.66,2.58.26c2.15-2.4,2.23,1.2,2.23,1.2l2.4,1.03,1.98,2.49,10.82-9.02,3.09-7.47,4.6-2.06,1.07-3.89,4.38-3.32s2.83-6.96,5.15-1.29c2.32,5.67,2.06,13.14,7.99,10.82,0,0,2.32-5.5,7.13-2.92,4.81,2.58,4.98-1.95,3.95-3.29-1.03-1.35,0-5.62,2.06-6.83,1.59-.93-.48-2.88.98-5.37Z"/>
  </g>
</svg>