<?xml version="1.0" encoding="UTF-8"?>
<svg id="_레이어_2" data-name="레이어 2" xmlns="http://www.w3.org/2000/svg" viewBox="0 0 160.58 114.41">
  <defs>
    <style>
      .cls-1 {
        fill: #fff;
        stroke: #07a59f;
        stroke-miterlimit: 10;
      }
    </style>
  </defs>
  <g id="Layer_5" data-name="Layer 5">
    <path class="cls-1" d="M159.51,54.88s-2.52,3.26-11.8,2.58c0,0-3.26,2.42-9.45.09-6.18-2.33-14.26,2.83-15.97,3.86-1.72,1.03-8.25,6.01-6.87,10.65.68,2.31,1.04,4.6,1.23,6.3.19,1.71.21,2.83.21,2.83-.41.84-.93,1.7-1.79,2.49-2.92,2.69-8.24,1.86-11.08.57-2.83-1.29-5.67,0-5.67,0l-2.4,2.41-.26,8.93s1.15,2.38,1.71,5.18c-2.45.54-5.18,1.62-7.39,3.83-.5.5-.88.97-1.22,1.44-1.32,1.82-1.75,3.45-3.57,5.07-1.68,1.49-4.52,2.94-9.63,2.79.07-.37.09-.75.09-1.11-.06-2.34-1.66-4.28-5.37-3.8-8.02,1.03-.21-10.19-.21-10.19,0,0,1.54-13.86-3.61-13.86s-4.29,5.67-4.29,5.67h-7.39l-1.89-2.41-1.37,1.03-1.04-1.37c-1.2-6.18-5.15-7.73-5.15-7.73h-3.95l-.86-4.38c-3.95-3.69-5.5,1.76-5.5,1.76l-3.93.39c-2.05,3.43-3.8-.69-3.8-.69h-4.98l-.73-1.46s1.42-3.48-.51-5.8-.13-4.12.9-5.67c1.03-1.54,1.67-10.17-4.64-12.75l-7.21-.52s-14.56-4.63-7.86-10.82c6.7-6.18,9.27-4.89,9.27-4.89l.91-1.68,3.35-.9,6.57-4.9s2.7-.13-.26-5.15c-2.96-5.02,2.06-3.61,1.42-16.23l2.7-4.9,7.73-1.02,2.19,1.79h5.93l6.44,2.84,4.89,2.06h1.29l13.66.77s5.67,2.75,9.28,2.06c3.6-.68,6.01,1.38,6.01,1.38,0,0,5.67,8.42,17,2.23,11.34-6.18,12.89-6.53,20.27,3.44l5.84,3.26s10.31-3.78,2.75,5.33c0,0,17.18,15.11,18.38,20.09v1.03h6.19v6.88s2.14,1.22,4.89,1.22c.18,0,.37-.01.55-.02Z"/>
  </g>
</svg>