<?xml version="1.0" encoding="UTF-8"?>
<svg id="_레이어_2" data-name="레이어 2" xmlns="http://www.w3.org/2000/svg" viewBox="0 0 87.8 113.12">
  <defs>
    <style>
      .cls-1 {
        fill: #fff;
        stroke: #07a59f;
        stroke-miterlimit: 10;
      }
    </style>
  </defs>
  <g id="Layer_5" data-name="Layer 5">
    <path class="cls-1" d="M81.94,35.02c-8.03,1.03-.22-10.19-.22-10.19,0,0,1.55-13.86-3.61-13.86s-4.29,5.67-4.29,5.67h-7.39l-1.89-2.4-1.37,1.03-1.03-1.37c-1.2-6.18-5.15-7.73-5.15-7.73h-3.95l-.86-4.38c-3.95-3.69-5.5,1.76-5.5,1.76l-3.94.39c-2.05,3.44-3.79-.69-3.79-.69h-4.98l-.73-1.46c-4.9-.77-5.41,5.93-5.41,5.93-3.74,1.03-5.8,3.74-5.8,3.74l-7.47.39-.13,4.12-1.55.52-1.03,6.7-1.8,1.03c-6.57,7.99,1.29,14.17-4.38,11.85s-5.15,1.29-5.15,1.29l3.86,7.47,5.28.77c3.99-7.47,10.69-2.71,7.73,0-2.96,2.71,0,11.72,0,11.72l4.9,7.47,4.64,2.19.13,3.48.52,4.9.52,4.77,3.22,4.51c3.86,1.16,1.29,3.45,1.29,3.45v4.28l-2.06,4.12.39,5.93-5.54,3.48v1.93l1.93.9,3.74,3.09,10.95.77v-.9l6.83-.64c8.16-.09,9.88-10.05,9.88-10.05,6.53.69,6.87-11.81,6.87-11.81h5.67s5.15-1.25,2.23-9.66c-2.92-8.42,1.89-12.02,3.26-12.85s5.33-5.36,3.26-11.2c-2.06-5.84,1.94-9.96,1.94-9.96,6.23-1.2,8.03-11.51,0-10.48Z"/>
  </g>
</svg>