<?xml version="1.0" encoding="UTF-8"?>
<svg id="_레이어_2" data-name="레이어 2" xmlns="http://www.w3.org/2000/svg" viewBox="0 0 56.83 81.43">
  <defs>
    <style>
      .cls-1, .cls-2, .cls-3, .cls-4, .cls-5, .cls-6, .cls-7 {
        fill: none;
        stroke: #07a59f;
        stroke-linecap: round;
        stroke-linejoin: round;
      }

      .cls-2 {
        stroke-dasharray: .5 1.99;
      }

      .cls-3 {
        stroke-dasharray: .53 2.12;
      }

      .cls-4 {
        stroke-dasharray: .5 2;
      }

      .cls-5 {
        stroke-dasharray: .44 1.76;
      }

      .cls-6 {
        stroke-dasharray: .52 2.08;
      }

      .cls-7 {
        stroke-dasharray: .49 1.95;
      }
    </style>
  </defs>
  <g id="Layer_6" data-name="Layer 6">
    <g>
      <g>
        <line class="cls-1" x1=".5" y1="67.03" x2=".61" y2="67.26"/>
        <line class="cls-2" x1="1.48" y1="69.04" x2="6.51" y2="79.3"/>
        <polyline class="cls-1" points="6.94 80.19 7.05 80.41 7.3 80.43"/>
        <line class="cls-5" x1="9.06" y1="80.57" x2="12.57" y2="80.84"/>
        <line class="cls-1" x1="13.44" y1="80.91" x2="13.69" y2="80.93"/>
      </g>
      <g>
        <line class="cls-1" x1="30.88" y1="36.14" x2="31.11" y2="36.23"/>
        <polyline class="cls-7" points="32.92 36.97 40.5 40.07 45.92 40.49"/>
        <line class="cls-1" x1="46.89" y1="40.57" x2="47.14" y2="40.59"/>
      </g>
      <g>
        <line class="cls-1" x1="19.9" y1="24.65" x2="20.1" y2="24.49"/>
        <polyline class="cls-4" points="21.65 23.23 49.69 .5 55.08 .91"/>
        <line class="cls-1" x1="56.08" y1=".99" x2="56.33" y2="1.01"/>
      </g>
      <g>
        <line class="cls-1" x1="38.8" y1="21.07" x2="39.01" y2="20.94"/>
        <polyline class="cls-3" points="40.77 19.77 48.67 14.54 54 14.95"/>
        <line class="cls-1" x1="55.06" y1="15.03" x2="55.31" y2="15.05"/>
      </g>
      <g>
        <line class="cls-1" x1="11.22" y1="51.46" x2="11.33" y2="51.68"/>
        <line class="cls-2" x1="12.21" y1="53.47" x2="17.23" y2="63.72"/>
        <polyline class="cls-1" points="17.67 64.62 17.78 64.84 18.03 64.86"/>
        <line class="cls-5" x1="19.78" y1="64.99" x2="23.29" y2="65.26"/>
        <line class="cls-1" x1="24.17" y1="65.33" x2="24.41" y2="65.35"/>
      </g>
      <g>
        <line class="cls-1" x1="5.1" y1="41.24" x2="5.29" y2="41.4"/>
        <polyline class="cls-6" points="6.93 42.67 20.33 53.1 25.68 53.51"/>
        <line class="cls-1" x1="26.72" y1="53.59" x2="26.97" y2="53.61"/>
      </g>
    </g>
  </g>
</svg>