<?xml version="1.0" encoding="UTF-8"?>
<svg id="_레이어_2" data-name="레이어 2" xmlns="http://www.w3.org/2000/svg" viewBox="0 0 226.4 213.98">
  <defs>
    <style>
      .cls-1, .cls-2, .cls-3, .cls-4, .cls-5, .cls-6, .cls-7, .cls-8 {
        stroke: #07a59f;
      }

      .cls-1, .cls-2, .cls-3, .cls-4, .cls-5, .cls-7, .cls-8 {
        fill: none;
        stroke-linecap: round;
        stroke-linejoin: round;
      }

      .cls-2 {
        stroke-dasharray: .5 1.99;
      }

      .cls-3 {
        stroke-dasharray: .53 2.12;
      }

      .cls-4 {
        stroke-dasharray: .5 2;
      }

      .cls-5 {
        stroke-dasharray: .44 1.76;
      }

      .cls-6 {
        fill: #fff;
        stroke-miterlimit: 10;
      }

      .cls-7 {
        stroke-dasharray: .52 2.08;
      }

      .cls-8 {
        stroke-dasharray: .49 1.95;
      }
    </style>
  </defs>
  <g id="Layer_6" data-name="Layer 6">
    <g>
      <g>
        <path class="cls-6" d="M81.94,108.99c-8.03,1.03-.22-10.19-.22-10.19,0,0,1.55-13.86-3.61-13.86s-4.29,5.67-4.29,5.67h-7.39l-1.89-2.4-1.37,1.03-1.03-1.37c-1.2-6.18-5.15-7.73-5.15-7.73h-3.95l-.86-4.38c-3.95-3.69-5.5,1.76-5.5,1.76l-3.94.39c-2.05,3.44-3.79-.69-3.79-.69h-4.98l-.73-1.46c-4.9-.77-5.41,5.93-5.41,5.93-3.74,1.03-5.8,3.74-5.8,3.74l-7.47.39-.13,4.12-1.55.52-1.03,6.7-1.8,1.03c-6.57,7.99,1.29,14.17-4.38,11.85s-5.15,1.29-5.15,1.29l3.86,7.47,5.28.77c3.99-7.47,10.69-2.71,7.73,0-2.96,2.71,0,11.72,0,11.72l4.9,7.47,4.64,2.19.13,3.48.52,4.9.52,4.77,3.22,4.51c3.86,1.16,1.29,3.45,1.29,3.45v4.28l-2.06,4.12.39,5.93-5.54,3.48v1.93l1.93.9,3.74,3.09,10.95.77v-.9l6.83-.64c8.16-.09,9.88-10.05,9.88-10.05,6.53.69,6.87-11.81,6.87-11.81h5.67s5.15-1.25,2.23-9.66c-2.92-8.42,1.89-12.02,3.26-12.85s5.33-5.36,3.26-11.2c-2.06-5.84,1.94-9.96,1.94-9.96,6.23-1.2,8.03-11.51,0-10.48Z"/>
        <path class="cls-6" d="M200.93,77.21l-2.23-4.47-8.42-6.36h-6.99l-1.09-1.55.52-9.1c2.4-2.4-3.26-4.81-7.73-2.06-1.29.79-2.61,1.13-3.83,1.2h0s-2.52,3.26-11.8,2.58c0,0-3.26,2.42-9.45.1-6.18-2.33-14.26,2.83-15.98,3.86-1.72,1.03-8.25,6.01-6.87,10.65,1.37,4.64,1.44,9.14,1.44,9.14h0c.99-2.01,1.37-3.85,4.4-4.16,0,0,2.4-.34,2.92,3.52l2.62.09v1.46s1.93,2.83.64,5.84l1.46,2.83,2.49,1.89,1.29,2.66s1.29,2.06,4.04.6l1.89.52,1.12,2.58,2.75-.09.6,2.06s1.04,1.61,1.37,2.79h0c2.74.24,5.2.12,6.97-.06,1.78-.18,2.87-.42,2.87-.42l5.23-5.75c3.42,1.85,4.18-1.08,4.18-1.08.64-3.22,3.22-2.19,3.22-2.19,0,0,3.48,3.48,3.09-.9-.39-4.38,1.8-1.29,2.96-4.12,1.16-2.83,5.67-1.67,5.67-1.67h7.86l1.59-1.98,2.22-6.91h0s-1.02-1.5-1.02-1.5Z"/>
        <path class="cls-6" d="M202.52,104.18c-.99,0-.57-3.09-.57-3.09,0,0,.01-6.18-3.08-8.59-3.09-2.4,1.97-2.92,1.97-2.92l-1.11-3.95-1.59,1.98h-7.86s-4.51-1.16-5.67,1.67c-1.16,2.83-3.35-.26-2.96,4.12.39,4.38-3.09.9-3.09.9,0,0-2.58-1.03-3.22,2.19,0,0-.75,2.93-4.18,1.08l-5.23,5.75s-1.09.24-2.87.42l.03.19s-.77,2.1,2.96,2.48h2.83v2.19h3.48v2.19l4.25.77s2.45,3.98,6.96,1.99c0,0,3.99-.9,3.74,1.58,0,0-.41,1.02,2.08.87h0c-1.3-.81-1.01-2.45-1.01-2.45l1.01-5.94s4.66.17,11.53,0c6.87-.17,2.58-3.44,1.59-3.44Z"/>
        <path class="cls-6" d="M189.41,116h0c-2.5.16-2.08-.86-2.08-.86.26-2.48-3.74-1.58-3.74-1.58-4.51,1.99-6.96-1.99-6.96-1.99l-4.25-.77v-2.19h-3.48v-2.19h-2.83c-3.74-.39-2.96-2.48-2.96-2.48l-.03-.19c-1.77.18-4.23.3-6.97.06h0c.11.41.14.77,0,.99-.52.86-.34,3.69.86,4.9,1.2,1.2,1.03,3.01-.86,4.29-1.89,1.29,3.95,9.89,3.95,9.89l1.8,2.55s3.56-7.76,8.07-5.05c.86.52,1.76.67,2.73.59,4.08-.33,9.39-4.73,18.66-2.82l.49-2.72c-1.13.1-1.88-.08-2.39-.4Z"/>
        <path class="cls-6" d="M171.16,149.84s-2.01-.83-3.41.89c-1.4,1.72-3.75.64-3.75.64l-1.63-.56-2.92-.86c-3.01-4.47-2.83-10.13-2.83-10.13,0,0,2.15-6.01,5.5-6.36s2.49-2.06,2.49-2.06l-2.75-3.26v-1.73l-1.8-2.55s-5.84-8.6-3.95-9.89c1.89-1.29,2.06-3.09.86-4.29-1.2-1.2-1.37-4.04-.86-4.9.13-.22.1-.58,0-.99-.32-1.18-1.37-2.79-1.37-2.79l-.6-2.06-2.75.09-1.12-2.58-1.89-.52c-2.75,1.46-4.04-.6-4.04-.6l-1.29-2.66-2.49-1.89-1.46-2.83c1.29-3.01-.64-5.84-.64-5.84v-1.46l-2.62-.09c-.52-3.86-2.92-3.52-2.92-3.52-3.03.3-3.41,2.15-4.4,4.16-.41.83-.93,1.7-1.78,2.49-2.92,2.69-8.25,1.86-11.08.57-2.83-1.29-5.67,0-5.67,0l-2.4,2.4-.26,8.93s1.29,2.66,1.8,5.67c.52,3.01,2.06,6.36,2.06,6.36l3.61.34s-2.92-.77.6,0c3.52.77,3.01,3.69,3.01,3.69l3.26,3.26-.26,3.95v3.35l-.6.69.94,1.12h4.21c7.99,3.35,9.62-4.29,12.5-2.4,2.88,1.89,0,4.9,0,4.9l-1.85-.17-1.2.94-.77,1.46-1.2.99-3.26-.39h-1.72l-3.44.39s-2.06,1.16-4.04,2.1-3.86-.09-5.84-.86c-1.98-.77-2.4-1.12-2.32-3.78.09-2.66-4.55.17-5.21-.86-.66-1.03-3.55,0-3.55,0-2.15,2.83-.17,5.5-.17,5.5l1.55.6,1.72,3.69,1.55.52c1.89,4.64.17,4.9.17,4.9l-.17,3.95c-3.01,1.89-1.09,5.75-1.09,5.75l.49,1.7.86,2.16c-4.04,3.61-3.01-1.8-6.96-2.15-3.95-.34-3.26,4.55-3.26,4.55,0,0,1.46,3.52.17,5.15-1.29,1.63-2.15,3.01-2.4,4.38-.26,1.37-3.69,2.83,2.15,6.1,5.84,3.26,1.29,6.01,5.24,7.56,3.95,1.55,4.04-1.2,4.04-1.2h2.83s.43,2.66,2.58.26c2.15-2.4,2.23,1.2,2.23,1.2l2.4,1.03,1.98,2.49,10.82-9.02,3.09-7.47,4.6-2.06,1.07-3.89,4.38-3.32s2.83-6.96,5.15-1.29c2.32,5.67,2.06,13.14,7.99,10.82,0,0,2.32-5.5,7.13-2.92,4.81,2.58,4.98-1.95,3.95-3.29-1.03-1.35,0-5.62,2.06-6.83,1.59-.93-.48-2.88.98-5.37Z"/>
        <path class="cls-6" d="M172.65,121.95s-.15,3.24,2.81,5.19l1.12,3.62,1.16,2.28s2.23-1.2,6.36-1.2v-3.26l6.18-4.64,1.03-4.81c-9.27-1.91-14.58,2.49-18.66,2.82Z"/>
        <path class="cls-6" d="M179.29,136.3l-1.55-3.26-1.16-2.28-1.12-3.62c-2.96-1.95-2.81-5.19-2.81-5.19-.97.08-1.86-.07-2.73-.59-4.51-2.71-8.07,5.05-8.07,5.05v1.73l2.75,3.26s.86,1.71-2.49,2.06-5.5,6.36-5.5,6.36c0,0-.17,5.67,2.83,10.13l2.92.86,1.63.56s2.35,1.08,3.75-.64c1.4-1.72,3.41-.89,3.41-.89.44-.75,1.19-1.54,2.46-2.37,5.5-3.61,7.21-5.5,5.67-11.17Z"/>
        <path class="cls-6" d="M208.15,84.43l-3.95-2.4-2.24-3.31h0l-2.22,6.91,1.11,3.95s-5.06.52-1.97,2.92c3.09,2.4,3.08,8.59,3.08,8.59,0,0-.42,3.09.57,3.09.55,0,2.12,1.01,2.22,1.94.81.66,1.47,1.51,2.2,2.19h2.58s6.05-5.54,9.72-3.8l-11.1-20.08Z"/>
        <path class="cls-6" d="M204.75,106.12c.08.74-.76,1.43-3.81,1.5-6.87.17-11.53,0-11.53,0l-1.01,5.94s-.29,1.65,1.01,2.45c.51.32,1.27.5,2.39.4l.37-2.09h2.23l3.09-1.37s2.58,3.78,5.33,0l1.89-1.37v-3.26h2.23c-.73-.68-1.39-1.53-2.2-2.19Z"/>
        <path class="cls-6" d="M171.16,54.88s-2.52,3.26-11.8,2.58c0,0-3.26,2.42-9.45.09-6.18-2.33-14.26,2.83-15.97,3.86-1.72,1.03-8.25,6.01-6.87,10.65.68,2.31,1.04,4.6,1.23,6.3.19,1.71.21,2.83.21,2.83-.41.84-.93,1.7-1.79,2.49-2.92,2.69-8.24,1.86-11.08.57-2.83-1.29-5.67,0-5.67,0l-2.4,2.41-.26,8.93s1.15,2.38,1.71,5.18c-2.45.54-5.18,1.62-7.39,3.83-.5.5-.88.97-1.22,1.44-1.32,1.82-1.75,3.45-3.57,5.07-1.68,1.49-4.52,2.94-9.63,2.79.07-.37.09-.75.09-1.11-.06-2.34-1.66-4.28-5.37-3.8-8.02,1.03-.21-10.19-.21-10.19,0,0,1.54-13.86-3.61-13.86s-4.29,5.67-4.29,5.67h-7.39l-1.89-2.41-1.37,1.03-1.04-1.37c-1.2-6.18-5.15-7.73-5.15-7.73h-3.95l-.86-4.38c-3.95-3.69-5.5,1.76-5.5,1.76l-3.93.39c-2.05,3.43-3.8-.69-3.8-.69h-4.98l-.73-1.46s1.42-3.48-.51-5.8-.13-4.12.9-5.67c1.03-1.54,1.67-10.17-4.64-12.75l-7.21-.52s-14.56-4.63-7.86-10.82c6.7-6.18,9.27-4.89,9.27-4.89l.91-1.68,3.35-.9,6.57-4.9s2.7-.13-.26-5.15c-2.96-5.02,2.06-3.61,1.42-16.23l2.7-4.9,7.73-1.02,2.19,1.79h5.93l6.44,2.84,4.89,2.06h1.29l13.66.77s5.67,2.75,9.28,2.06c3.6-.68,6.01,1.38,6.01,1.38,0,0,5.67,8.42,17,2.23,11.34-6.18,12.89-6.53,20.27,3.44l5.84,3.26s10.31-3.78,2.75,5.33c0,0,17.18,15.11,18.38,20.09v1.03h6.19v6.88s2.14,1.22,4.89,1.22c.18,0,.37-.01.55-.02Z"/>
        <path class="cls-6" d="M138.45,126.51l-1.85-.17-1.2.94-.78,1.46-1.2.99-3.26-.39h-1.72l-3.44.39s-2.06,1.16-4.03,2.1c-1.98.95-3.87-.08-5.84-.85-1.98-.78-2.41-1.12-2.32-3.78.08-2.67-4.55.17-5.21-.86-.67-1.03-3.55,0-3.55,0-2.15,2.83-.17,5.49-.17,5.49l1.54.61,1.72,3.69,1.55.51c1.89,4.64.17,4.9.17,4.9l-.17,3.95c-3.01,1.89-1.09,5.75-1.09,5.75l.48,1.71.86,2.16c-4.03,3.61-3-1.8-6.95-2.15-3.95-.34-3.27,4.55-3.27,4.55,0,0,1.46,3.53.17,5.16-1.28,1.63-2.14,3-2.4,4.38-.26,1.37-3.69,2.83,2.15,6.1,5.84,3.26,1.29,6.01,5.24,7.55,3.95,1.55,4.03-1.2,4.03-1.2h2.84s.43,2.66,2.57.26c2.15-2.41,2.24,1.2,2.24,1.2l2.4,1.03,1.98,2.49-1.81,9.28-8.24,7.73-5.12,7.38-2.23-1.58-3.86,1.03-1.03,1.93-.9,3.22-17.14-.13s-4.51-4.64-10.56-1.54c-6.06,3.09-4.38-2.97-4.38-2.97,0,0-2.49-3.09-.21-5.67l-3.14-3.86-1.93-2.58s-2.97.9-5.67-3.35l-1.42-3.86-2.83-.52-.65-3.99c8.16-.09,9.88-10.05,9.88-10.05,6.53.69,6.87-11.81,6.87-11.81h5.67s5.15-1.25,2.23-9.66c-2.92-8.42,1.89-12.03,3.27-12.85,1.37-.83,5.32-5.36,3.26-11.2-2.06-5.84,1.93-9.96,1.93-9.96,2.92-.57,4.86-3.11,5.28-5.57,5.11.15,7.95-1.3,9.63-2.79,1.82-1.62,2.25-3.25,3.57-5.07.34-.47.72-.94,1.22-1.44,2.21-2.21,4.94-3.29,7.39-3.83.04.16.07.32.1.49,0,.09.03.18.05.27.56,2.93,2.01,6.08,2.01,6.08l3.55.34c-.37-.1-2.59-.71.66.01,3.52.77,3,3.69,3,3.69l3.26,3.26-.25,3.95v3.35l-.6.69.94,1.12h4.21c7.99,3.35,9.62-4.3,12.5-2.41,2.87,1.89,0,4.9,0,4.9Z"/>
      </g>
      <g>
        <line class="cls-1" x1="170.07" y1="141.33" x2="170.18" y2="141.55"/>
        <line class="cls-2" x1="171.06" y1="143.34" x2="176.08" y2="153.59"/>
        <polyline class="cls-1" points="176.52 154.49 176.63 154.71 176.88 154.73"/>
        <line class="cls-5" x1="178.63" y1="154.87" x2="182.14" y2="155.14"/>
        <line class="cls-1" x1="183.02" y1="155.2" x2="183.27" y2="155.22"/>
      </g>
      <g>
        <line class="cls-1" x1="200.46" y1="110.43" x2="200.69" y2="110.53"/>
        <polyline class="cls-8" points="202.49 111.27 210.07 114.37 215.49 114.79"/>
        <line class="cls-1" x1="216.46" y1="114.86" x2="216.71" y2="114.88"/>
      </g>
      <g>
        <line class="cls-1" x1="189.48" y1="98.95" x2="189.67" y2="98.79"/>
        <polyline class="cls-4" points="191.23 97.53 219.27 74.8 224.66 75.21"/>
        <line class="cls-1" x1="225.66" y1="75.29" x2="225.9" y2="75.31"/>
      </g>
      <g>
        <line class="cls-1" x1="208.37" y1="95.37" x2="208.58" y2="95.23"/>
        <polyline class="cls-3" points="210.35 94.06 218.24 88.84 223.58 89.25"/>
        <line class="cls-1" x1="224.63" y1="89.33" x2="224.88" y2="89.35"/>
      </g>
      <g>
        <line class="cls-1" x1="180.8" y1="125.75" x2="180.91" y2="125.98"/>
        <line class="cls-2" x1="181.78" y1="127.76" x2="186.8" y2="138.02"/>
        <polyline class="cls-1" points="187.24 138.91 187.35 139.14 187.6 139.16"/>
        <line class="cls-5" x1="189.35" y1="139.29" x2="192.86" y2="139.56"/>
        <line class="cls-1" x1="193.74" y1="139.63" x2="193.99" y2="139.65"/>
      </g>
      <g>
        <line class="cls-1" x1="174.67" y1="115.54" x2="174.87" y2="115.69"/>
        <polyline class="cls-7" points="176.51 116.97 189.9 127.39 195.26 127.8"/>
        <line class="cls-1" x1="196.29" y1="127.88" x2="196.54" y2="127.9"/>
      </g>
    </g>
  </g>
</svg>