<?xml version="1.0" encoding="UTF-8"?>
<svg id="_레이어_2" data-name="레이어 2" xmlns="http://www.w3.org/2000/svg" viewBox="0 0 89.6 86.61">
  <defs>
    <style>
      .cls-1 {
        fill: #fff;
        stroke: #07a59f;
        stroke-miterlimit: 10;
      }
    </style>
  </defs>
  <g id="Layer_4" data-name="Layer 4">
    <path class="cls-1" d="M83.95,34.24l-1.59-.97-.9-1.33-.41-.6-.9-1.79-3.38-2.55h-2.81l-.44-.62.21-3.66c.97-.97-1.31-1.93-3.11-.83-.52.32-1.05.45-1.54.48-1.21.07-2.19-.48-2.19-.48v-2.76h-2.49v-.41c-.48-2-7.39-8.08-7.39-8.08,3.04-3.66-1.1-2.14-1.1-2.14l-2.35-1.31c-2.97-4-3.59-3.87-8.15-1.38s-6.83-.9-6.83-.9c0,0-.97-.83-2.42-.55-1.45.28-3.73-.83-3.73-.83l-5.49-.31h-.52l-1.97-.83-2.59-1.14h-2.38l-.88-.72-3.11.41-1.09,1.97c.26,5.07-1.76,4.5-.57,6.52,1.19,2.02.1,2.07.1,2.07l-2.64,1.97-1.35.36-.36.67s-1.04-.52-3.73,1.97,3.16,4.35,3.16,4.35l2.9.21c2.54,1.04,2.28,4.5,1.86,5.13s-1.14,1.35-.36,2.28.21,2.33.21,2.33c-1.97-.31-2.17,2.38-2.17,2.38-1.5.41-2.33,1.5-2.33,1.5l-3,.16-.05,1.66-.62.21-.41,2.69-.72.41c-2.64,3.21.52,5.7-1.76,4.76s-2.07.52-2.07.52l1.55,3,2.12.31c1.61-3,4.3-1.09,3.11,0-1.19,1.09,0,4.71,0,4.71l1.97,3,1.86.88.05,1.4.21,1.97.21,1.92,1.29,1.81c1.55.47.52,1.39.52,1.39v1.72l-.83,1.66.16,2.38-2.23,1.4v.78l.78.36,1.5,1.24,4.4.31v-.36l2.74-.26.26,1.61,1.14.21.57,1.55c1.09,1.71,2.28,1.35,2.28,1.35l.78,1.04,1.26,1.55c-.91,1.04.09,2.28.09,2.28,0,0-.67,2.43,1.76,1.19,2.43-1.24,4.25.62,4.25.62l6.89.05.36-1.29.41-.78,1.55-.41.89.64,2.06-2.97,3.31-3.11.72-3.73,4.35-3.62,1.24-3,1.85-.83.43-1.56,1.76-1.33s1.14-2.8,2.07-.52c.93,2.28.83,5.28,3.21,4.35,0,0,.93-2.21,2.86-1.17,1.93,1.04,2-.78,1.59-1.32-.41-.54,0-2.26.83-2.75.64-.37-.19-1.16.39-2.16.18-.3.48-.62.99-.95,2.21-1.45,2.9-2.21,2.28-4.49l-.62-1.31s.9-.48,2.55-.48v-1.31l2.49-1.86.41-1.93.2-1.09.15-.84h.9l1.24-.55s1.04,1.52,2.14,0l.76-.55v-1.31h1.93s2.43-2.23,3.91-1.53l-4.46-8.07Z"/>
  </g>
</svg>