<?xml version="1.0" encoding="UTF-8"?>
<svg id="_레이어_2" data-name="레이어 2" xmlns="http://www.w3.org/2000/svg" viewBox="0 0 29 29">
  <defs>
    <style>
      .cls-1 {
        fill: #f4e227;
      }

      .cls-2 {
        fill: #118c87;
      }
    </style>
  </defs>
  <g id="_레이어_1-2" data-name="레이어 1">
    <g>
      <circle class="cls-2" cx="14.5" cy="14.5" r="14.5"/>
      <path class="cls-1" d="M14.5,3c-6.35,0-11.5,5.15-11.5,11.5s5.15,11.5,11.5,11.5,11.5-5.15,11.5-11.5S20.85,3,14.5,3ZM19.8,12.38l-5.66,5.66c-.39.39-1.02.39-1.41,0l-3.54-3.54c-.39-.39-.39-1.02,0-1.41.39-.39,1.02-.39,1.41,0l2.83,2.83,4.95-4.95c.39-.39,1.02-.39,1.41,0,.39.39.39,1.02,0,1.41Z"/>
    </g>
  </g>
</svg>