<?xml version="1.0" encoding="UTF-8"?>
<svg id="_레이어_2" data-name="레이어 2" xmlns="http://www.w3.org/2000/svg" viewBox="0 0 524.43 490.27">
  <defs>
    <style>
      .cls-1, .cls-2 {
        fill: none;
        stroke: #8ed2d1;
        stroke-linecap: round;
        stroke-linejoin: round;
        stroke-width: 2px;
      }

      .cls-2 {
        opacity: .5;
      }
    </style>
  </defs>
  <g id="Layer_7" data-name="Layer 7">
    <g>
      <g>
        <path class="cls-1" d="M394.08,229.29s-.02-.02-.07-.06c.02.02.04.04.07.06Z"/>
        <path class="cls-1" d="M251.72,197.98l-.64-4.17h-1.37s-3.26-1.03-4.64,2.23c-.84,1.99-2.37.79-3.45-.45l-4.11,6.26s-.56,2.48-4.08,2.79c-.28.02-.58.04-.9.03l-3.67.35,3.67,2.36v1.16c3.48-2.83,7.09.39,7.09.39,0,0,2.02,2.46,8.23-.44.45-.21.93-.45,1.43-.72,7.34-3.99,2.45-9.79,2.45-9.79Z"/>
        <path class="cls-1" d="M232.52,197.86l-1.4-2.25.76-1.78-.76-4.27-3.88.32-4.59-.87h0c-.2,1.07-.93,3.21-3.53,4.82-3.61,2.23,6.18,8.93,6.18,8.93l3.55,2.28,3.67-.35c.32,0,.62,0,.9-.03v-3.45l-.9-3.35Z"/>
        <path class="cls-1" d="M247.84,208.5h0c-6.22,2.9-8.23.44-8.23.44,0,0-3.61-3.22-7.09-.39v7.77l2.06.97c1.42.35,3.86.59,5.67-1.14,2.71-2.58.9.52,6.57-4.25,0,0,2.81-1.13,1.02-3.4Z"/>
        <path class="cls-1" d="M240.43,193.99l-2.92-2.75.6-4.35c-2.92-1.04-5.58,2.54-5.58,2.54l-1.4.12.76,4.27-.76,1.78,1.4,2.25.9,3.35v3.45c3.52-.3,4.08-2.79,4.08-2.79l4.11-6.26c-.69-.8-1.19-1.61-1.19-1.61Z"/>
        <path class="cls-1" d="M288.52,149.33c-3.78,0-4.5-2.54-4.5-2.54l-1.34.48c-7.39-3.26-9.62,3.78-9.62,3.78,0,0,1.55,3.26-1.89,3.44-3.44.17-6.36,4.12-6.36,4.12l-1.89,3.44-2.61.86-2.89,2.58h-2.4l-1.89,1.89h-4.64l-3.95,4.64.69,1.37-1.37,1.2-1.55,3.95-2.75.86-.17,5.5-1.2,1.37-.09.63-.6,4.35,2.92,2.75s.5.81,1.19,1.61c1.07,1.24,2.61,2.44,3.45.45,1.37-3.26,4.64-2.23,4.64-2.23h3.44v-3.95l2.4-1.2v-1.37l4.62-4.47,1.22-2.06.83-3.14,4.32-4.59.96,1.03,5.06.34c0,2.75,3.95,2.58,3.95,2.58.29.14.57.25.86.34,4.35,1.38,8.59-2.4,8.59-2.4l.34-4.98s3.26.34,2.95-3.26c-.31-3.61,1.52-6.53,1.52-6.53,7.73-4.12,1.55-10.82-2.23-10.82Z"/>
        <path class="cls-1" d="M244.55,172l-4.47,1.89s.34,1.72-4.47,1.37c-4.81-.34-5.5,1.2-5.5,1.2l-4.12.84c-1.55.67-2.58,2.08-6.25.34l.58,1.05,1.2,6.7,1.2,2.92s0,.26-.08.68h0s4.59.87,4.59.87l3.88-.32,1.4-.12s2.66-3.58,5.58-2.54l.09-.63,1.2-1.37.17-5.5,2.75-.86,1.55-3.95,1.37-1.2-.69-1.37Z"/>
        <path class="cls-1" d="M282.51,199.14l-1.2-4.64-2.06-3.78v-3.61l-2.58-3.78.69-6.01c-.29-.09-.57-.2-.86-.34,0,0-3.95.17-3.95-2.58l-5.06-.34-.96-1.03-4.32,4.59-.83,3.14-1.22,2.06-4.62,4.47v1.37l-2.4,1.2v3.95h-2.06l.64,4.17s4.9,5.8-2.45,9.79c-.5.27-.98.51-1.43.72h0c1.79,2.27-1.02,3.4-1.02,3.4-5.67,4.77-3.86,1.67-6.57,4.25-1.81,1.73-4.25,1.49-5.67,1.14l.86.41v11.6c5.17,1.03,6.53-.77,6.53-.77l8.59-11.17,5.15,5.67c3.44,3.61,3.61-1.89,3.61-1.89h1l3.64-2.58h3.53c4.05-1.03,2.99-5.84,2.99-5.84l2.92-1.89h3.26s3.95-2.92,5.84-5.33c1.89-2.4,0-6.36,0-6.36Z"/>
        <path class="cls-1" d="M297.97,192.44v-7.73l-1.55-1.89v-2.06l-1.97-2.23c1.98-2.75-1.13-6.87-4.05-4.81-2.92,2.06-4.47,1.2-4.47,1.2,0,0-4.23,3.78-8.59,2.4l-.69,6.01,2.58,3.78v3.61l2.06,3.78,1.2,4.64s1.89,3.95,0,6.36c-1.89,2.4-5.84,5.33-5.84,5.33h-3.26l-2.92,1.89s1.05,4.81-2.99,5.84h-3.53l-3.64,2.58h-1s-.17,5.5-3.61,1.89l-5.15-5.67-8.59,11.17s-1.36,1.81-6.53.77v9.7l-1.89,3.44,3.26,3.61v6.18l-1.12.73,2.5,1.16h3.78v-3.78c3.09,1.2,9.62-3.78,9.62-3.78,9.62,1.37,10.62-10.26,10.62-10.26,0,0,6.73-4.34,13.08,0,6.36,4.34,8.42,0,8.42,0l.52-3.99c.26-.37.53-.67.81-.91,0,0-.98-2.18,2.11-4.41,3.09-2.23.34-8.42,7.39-12.54l.86-7.21s.86-4.29,3.09-4.29l-.52-3.26v-2.55c3.78-2.21,0-4.67,0-4.67Z"/>
        <path class="cls-1" d="M522.4,229.55l-4.25-6.31c-1.29-7.47-15.33-15.07-15.33-15.07v-1.8h-1.29v-3.35l-4.77-3.61v-4.77h-4.9v-.9l-.64-3.48c-2.83-.77-1.16-4.25-1.16-4.25,0,0,2.06-3.86-1.42-2.06s-3.99,0-3.99,0l-2.32-2.32-1.93-.77-2.32-1.42-2.19-2.32-.64-3.61-1.29-3.09c-2.83-2.19-9.15-.9-9.15-.9l-2.19.9-3.86-4.12,3.22-3.61-.13-5.28c-2.83-3.99-.52-5.15-.52-5.15l2.58-1.03-1.16-3.09,5.54-2.96,7.86-8.76.95-3.22v-4.38l-.95.77-1.67.64h-1.42v-3.74l-5.8-5.54-4.25-1.55-.13-4.38h.77v-3.35h-2.96v-1.93c-.39-4.38-5.67-4.77-5.67-4.77-2.96-.52-3.09-4.38-3.09-4.38v-6.44l-1.42-1.93h-5.28l-1.29-.39-4.9-3.48-2.58-3.22v-4.77c-3.09-4.12-4.51,2.83-4.51,2.83l-4.51.64v-1.03l-1.42-1.55-1.93-1.16-5.54-3.86-.64-2.06-3.48-3.99c-1.16-5.67-3.22-.9-3.22-.9l-2.71,3.74.26,8.89c1.42,4.51,0,5.54,0,5.54l-2.71,3.86v2.45l-4.64,4.77v2.32l-1.76.73c-11.17,8.07-13.05-4.29-16.66-6.18-3.61-1.89-5.67,0-5.67,0l-4.81,1.03c-4.62,6-8.95,1.25-9.81.2l-3.59,3.92c-1.03,5.33-4.81,7.04-4.81,7.04h-4.81l-1.2,1.2h-5.5l-4.98,7.04h-2.06l-2.4,2.4c3.61,4.12,0,4.98,0,4.98l-3.61,2.23s-.38,1.57-1.14,2.32c0,0,4.57,4.89,7.83,6.78,3.26,1.89,4.98,2.75,3.78,8.42-1.2,5.67,3.61,5.33,4.64,16.66,0,0,.52,4.64,3.61,6.87,3.09,2.23,2.23,8.42,11.08,7.9l5.93.03v2.89h5.33v3.44h6.53l2.58,4.12h4.47v7.39s5.33-.69,5.33,6.01c0,0,3.44,2.06,2.58,7.21-.86,5.15-3.44,8.42,1.37,9.96,4.79,1.54-5.15,9.51.36,13.77.04.03.07.06.07.06,3.61-.64,5.67,4.25,5.67,4.25,0,0,.52,6.31,6.31,1.65,5.8-4.67,7.34,1.7,7.34,1.7l2.32.59,1.03,3.02-.9,2.32c0,3.09,2.32.64,2.32.64l3.86.13v-.9c2.83-2.71,4.77.13,4.77.13l2.19,4.9,6.83.13s2.19,1.29,4.38,3.35c2.19,2.06,6.57.52,6.57.52l5.67-3.48c1.03-5.02,2.96-4.51,2.96-4.51,5.41,0,8.63-8.53,8.63-8.53l5.02-.74c1.8-1.42,6.44.74,6.44.74,1.8,2.68,1.93,1.7,2.96,0,1.03-1.7,4.12,0,4.12,0l1.42,1.45,3.74.85.64,2.11c-1.67,2.71,0,6.18,0,6.18l1.67,1.67,2.32.26s.39,2.45,3.09,6.18c2.71,3.74,4.77,1.42,4.77,1.42l7.34-5.02,2.96-.77,5.8-.64,1.55-1.55,4.51-2.58c2.32-6.31,0-15.2,0-15.2Z"/>
        <path class="cls-1" d="M357.49,283.27c-4.58-5.03.8-10.37,2.06-11.5h0c-9.02-4.67-7.82-7.35-7.82-7.35l-.86-3.26c-6.87-9.79-11.85.86-14.6-3.44-2.75-4.29-7.73,1.37-7.73,1.37-9.1.69-.69-8.93-.69-8.93v-7.39s1.55-5.5,0-8.76c-1.55-3.26-.86-6.01-.86-6.01l-3.95-3.44v-2.92l-3.61-2.4-1.37-2.09c-1.37-10.85-12.37-8.39-12.37-8.39,0,0-4.98-5.84-7.21-5.84s-3.09,4.29-3.09,4.29l-.86,7.21c-7.04,4.12-4.29,10.31-7.39,12.54-3.09,2.23-2.11,4.41-2.11,4.41,2.73-2.34,6.4.91,6.4.91l3.95,1.03c4.47,3.26,5.5,7.73,5.5,7.73l.69,5.15h2.23v4.47l2.06.86,4.64,3.78c-2.4,3.95-1.55,5.15-1.55,5.15,6.18,2.4.86,5.5.86,5.5,1.37,5.84-5.67,9.79-5.67,9.79v2.92s-1.89,9.62-7.9,5.5c-6.01-4.12-8.25,2.4-8.25,2.4,0,0,1.2,3.61.69,6.7-.52,3.09-5.67,2.58-5.67,2.58l-3.78.34c-5.33,3.26-4.81.34-4.81.34h-3.26l-.86-1.72s.17-1.72-3.09-5.5c-3.26-3.78-3.78,3.44-3.78,3.44h-2.4l-1.72,3.78h-13.74c-1.72-2.92-2.75,1.03-2.75,1.03l-.67,3.46c3.59,3.53,3.93,6.85,3.93,6.85-.34,5.84-2.92,4.98-2.92,4.98l.34,5.33-.69,1.37-.86,10.13,2.06.34,1.03,3.26,3.09,3.95s-1.89,5.67,3.61,3.61c5.5-2.06,5.84,1.2,5.84,1.2l6.01.86v-1.2l2.58-1.55,1.03-1.58,2.75-2.71c3.78-2.06,6.7-.17,6.7-.17v1.72l1.89,1.16c2.58-3.47,4.98,0,4.98,0,0,0,1.8-4.94,7.47-1.08,5.67,3.86,9.28-3.61,11.59-7.47,1.15-1.92,3.45-2.5,5.47-2.61.94-1.68,3.04-2.8,3.04-2.8,2.19-4.77,8.76-5.02,8.76-5.02l3.48-.9.13-5.67h3.61l1.8-1.6,2.32-.2c5.8,1.16,6.44-3.09,6.44-3.09,0,0,2.71-.26,3.22-1.42.52-1.16,3.74-3.22,5.02-1.8,1.29,1.42,3.35,0,3.35,0l8.63-5.54.9-4.9c4.12-3.61,3.86-5.54-1.29-11.21Z"/>
        <path class="cls-1" d="M393.65,215.46c-4.81-1.55-2.23-4.81-1.37-9.96.86-5.15-2.58-7.21-2.58-7.21,0-6.7-5.33-6.01-5.33-6.01v-7.39h-4.47l-2.58-4.12h-6.53v-3.44h-5.33v-2.89l-5.93-.03c-8.85.52-7.99-5.67-11.08-7.9-3.09-2.23-3.61-6.87-3.61-6.87-1.03-11.34-5.84-10.99-4.64-16.66,1.2-5.67-.52-6.53-3.78-8.42-3.26-1.89-7.83-6.78-7.83-6.78-.49.49-1.14.62-1.96-.26-2.06-2.23-5.33,0-5.33,0l-4.98,5.15-.86,2.06-2.58.69-3.44,3.66-5.84,1.15c-1.55-2.58-3.44,0-3.44,0h-3.61l-1.2,1.55h-6.01l-4.29,4.63-1.07.38s.72,2.54,4.5,2.54,9.96,6.7,2.23,10.82c0,0-1.83,2.92-1.52,6.53.31,3.61-2.95,3.26-2.95,3.26l-.34,4.98s1.55.86,4.47-1.2c2.92-2.06,6.03,2.06,4.05,4.81l1.97,2.23v2.06l1.55,1.89v7.73s3.78,2.46,0,4.67v2.55l.52,3.26c2.23,0,7.21,5.84,7.21,5.84,0,0,10.99-2.46,12.37,8.39l1.37,2.09,3.61,2.4v2.92l3.95,3.44s-.69,2.75.86,6.01c1.55,3.26,0,8.76,0,8.76v7.39s-8.42,9.62.69,8.93c0,0,4.98-5.67,7.73-1.37,2.75,4.29,7.73-6.36,14.6,3.44l.86,3.26s-1.2,2.68,7.82,7.35h0c.16-.14.26-.22.26-.22,2.19-7.21,7.47-5.93,7.47-5.93v-3.61l1.67-.9,5.67-6.06,2.58-3.61c-3.99-4.25.77-9.53.77-9.53l.64-1.8,2.32-2.63,3.74-.85c5.79-9.57,8.87-7.77,9.34-7.4-5.51-4.27,4.43-12.23-.36-13.77Z"/>
        <path class="cls-1" d="M318.58,379.64l-3.48-2.71-.64-3.74c-5.02-7.21,1.16-15.33,1.16-15.33l.39-11.59-3.48-4.51-.9-4.25-1.42-4.9c-2.91-1.9-2.94-3.75-2.14-5.18-2.02.1-4.31.69-5.47,2.61-2.32,3.86-5.93,11.34-11.59,7.47-5.67-3.86-7.47,1.08-7.47,1.08,0,0-2.4-3.47-4.98,0l-1.89-1.16v-1.72s-2.92-1.89-6.7.17l-2.75,2.71-1.03,1.58-2.58,1.55v1.2l-6.01-.86s-.34-3.26-5.84-1.2c-5.5,2.06-3.61-3.61-3.61-3.61l-3.09-3.95-1.03-3.26-2.06-.34.86-10.13.69-1.37-.34-5.33s2.58.86,2.92-4.98c0,0-.34-3.31-3.93-6.85l-.19,1.01h-5.15v1.55s-2.75,3.78-5.84,5.67c-2.49,1.52-6.49-.41-7.94-1.22-.06,1-.58,1.69-2.71-.84-3.61-4.29-3.44.69-10.65,2.92l-4.29,2.58h-3.26s-7.39-12.02-13.05-7.21l-3.26.52-2.92-2.23-.34,5.67.17,4.12h3.95s3.09,4.47,1.72,8.42l2.23,2.92-.34,4.81,1.03,2.4-.52,3.78s-2.92,2.58-1.2,4.47c1.72,1.89-3.09,7.04-9.28,8.59l-.17,2.4,3.26,7.21,1.37,3.44-.34,5.15h3.26s4.47-1.2,5.5,5.5l1.55,2.23,3.09,1.03,5.84,3.09.69,1.03,8.42,1.2,1.03,11.85,3.63,4.66c4.43.09,6.66,4.6,1.18,13.47-7.73,12.5-2.58,14.56-2.58,14.56,11.47,12.37,21.9-4.77,25.12,1.16,3.22,5.93,2.06,5.93-9.02,17.52-11.08,11.59,1.93,25.51,1.93,25.51v2.71l1.03.9v6.06l3.35,6.18c9.53,8.76,13.01.64,15.98-20.87,2.96-21.51,31.95-25.77,31.95-25.77l.26-5.15,2.32-2.71,1.16-3.22h1.8l.26-1.29,2.06-3.61.39-2.83.9-2.96c-1.8-3.74,2.45-6.44,2.45-6.44v-6.18h2.06l1.16-1.67.26-2.32,2.58-4.12.9-1.8,3.86-2.45c-1.67-4.51,6.57-6.83,6.57-6.83l3.09-3.74c4.12-.13.13-2.19.13-2.19Z"/>
        <path class="cls-1" d="M308.96,260.47s-.86-1.2,1.55-5.15l-4.64-3.78-2.06-.86v-4.47h-2.23l-.69-5.15s-1.03-4.47-5.5-7.73l-3.95-1.03s-3.67-3.25-6.4-.91c-.28.24-.55.54-.81.91l-.52,3.99s-2.06,4.34-8.42,0c-6.36-4.34-13.08,0-13.08,0,0,0-1,11.64-10.62,10.26,0,0-6.53,4.98-9.62,3.78v3.78h-3.78l-2.5-1.16-6.26,4.08s-.34,6.7-6.53,1.89l-4.98,1.74-1.89,1.35h-6.01l.34,3.95h-2.58l-.86,4.47-2.23,2.06-.17,2.58.17,7.56s-3.61,4.47.17,4.64c0,0,1.89,3.95,5.67,0,0,0,1.72-2.92,3.09.17,0,0,8.07-2.06,3.44,3.95-4.64,6.01,6.53,4.98,4.47,12.37l1.37,2.75s.17.84.13,1.53c1.46.81,5.45,2.74,7.94,1.22,3.09-1.89,5.84-5.67,5.84-5.67v-1.55h5.15l.19-1.01.67-3.46s1.03-3.95,2.75-1.03h13.74l1.72-3.78h2.4s.52-7.21,3.78-3.44c3.26,3.78,3.09,5.5,3.09,5.5l.86,1.72h3.26s-.52,2.92,4.81-.34l3.78-.34s5.15.52,5.67-2.58c.52-3.09-.69-6.7-.69-6.7,0,0,2.23-6.53,8.25-2.4,6.01,4.12,7.9-5.5,7.9-5.5v-2.92s7.04-3.95,5.67-9.79c0,0,5.33-3.09-.86-5.5Z"/>
      </g>
      <g>
        <path class="cls-1" d="M229.95,213.04l-1.09-2.17-4.19-.96h-2.01s-1.72-1.99-3.79,0h-3.22s-2.71,1.86-.64,3.66c2.06,1.8-.72-.4-.49,4.96h0c.86-.12,1.9-.13,3.2.07,2.76.42,4.08,1.23,4.6,2.14,7.57-.18,10.21-4.41,10.21-4.41v-3.28h-2.58Z"/>
        <path class="cls-1" d="M221.53,185.4l-1.2-6.7-.58-1.05c-3.67-1.74-9.72,3.8-9.72,3.8h-4.81v9.45h9.02l.77-1.03h2.58l1.42-.32h2.06l1.59-.55c.08-.42.08-.68.08-.68l-1.2-2.92Z"/>
        <path class="cls-1" d="M225.31,202.75s-4.37-2.99-6.19-5.64h0c-4.65,5.57-6.69-3.25-10.17,1.2-1.16,1.48-2.26,1.97-3.22,1.97,0,0-.9,2.71,1.8,6.33l.02.02c.28-.02.57-.02.88-.01,4.25.13,7.73,3.29,7.73,3.29h2.71c2.06-1.99,3.79,0,3.79,0h2.01l4.19.96,1.09,2.17h2.58v-5.65l-7.21-4.64Z"/>
        <path class="cls-1" d="M215,213.57c-2.06-1.8.64-3.66.64-3.66h.52s-3.48-3.17-7.73-3.29c-.31,0-.6,0-.88.01-3.53.19-4.53,2.17-4.53,2.17v.04c1.6-.29,2.32,1.07,2.32,1.07l1.29,5.34c4.15,8.08,3.12,3.95,7.88,3.28h0c-.23-5.35,2.55-3.15.49-4.96Z"/>
        <path class="cls-1" d="M222.31,220.74c-.53-.91-1.84-1.72-4.6-2.14-1.3-.2-2.34-.19-3.2-.07-4.76.66-3.73,4.8-7.88-3.28l-1.29-5.34s-.72-1.36-2.33-1.07c-.75.13-1.68.62-2.82,1.77v3.09l-3.99,5.41-.9,1.93v5.28s-6.93,3.07-5.07,9.46h0c.36-.57,1.08-.89,2.45-.6l1.37,1.1h2.23s3.61-3.76,6.01,1.19h7.56v2.76l5.8-6.7v-2.45l5.41-6.18s2.34-2.29,1.25-4.17Z"/>
        <path class="cls-1" d="M221.06,189.55h-2.06l-1.42.32h-2.58l-.77,1.03h-9.02l-1.55,5.68s-.46.92-1.21,1.73c0,0,1.35,1.98,3.28,1.97.96,0,2.06-.5,3.22-1.97,3.48-4.45,5.52,4.37,10.17-1.2h0c-.91-1.32-1.19-2.55,0-3.29,2.6-1.61,3.32-3.75,3.53-4.82l-1.59.55Z"/>
        <path class="cls-1" d="M233.55,242.43l1.89-3.44v-21.3l-2.92-1.37s-2.65,4.23-10.21,4.41c1.09,1.88-1.25,4.17-1.25,4.17l-5.41,6.18v2.45l-5.8,6.7v1.85l2.06,1.78s3.26.46,1.2,3.72c-2.06,3.26,1.37,4.98-1.72,9.62l-.34,4.81h4.98l1.89-1.35,4.98-1.74c6.18,4.81,6.53-1.89,6.53-1.89l7.39-4.81v-6.18l-3.26-3.61Z"/>
        <path class="cls-1" d="M222.9,306.5l-1.37-2.75c2.06-7.39-9.1-6.36-4.47-12.37,4.64-6.01-3.44-3.95-3.44-3.95-1.37-3.09-3.09-.17-3.09-.17-3.78,3.95-5.67,0-5.67,0-3.78-.17-.17-4.64-.17-4.64l-.17-7.56.17-2.58,2.23-2.06.86-4.47h2.58l-.34-3.95h1.03l.34-4.81c3.09-4.64-.34-6.36,1.72-9.62,2.06-3.26-1.2-3.72-1.2-3.72l-2.06-1.78v-4.6h-7.56c-2.4-4.95-6.01-1.19-6.01-1.19h-2.23l-1.37-1.1c-1.38-.3-2.1.03-2.45.6-.71,1.13.05,3.21.05,3.21-2.75.52-3.26,3.26-3.26,3.26,0,0-.86,3.61-5.84,0-4.98-3.61-2.23-4.81-3.09-9.91-.86-5.1-3.44-1.81-3.44-1.81l-1.03,3.62h-5.35c.06.42.18.77.37,1.03,1.03,1.35.86,5.87-3.95,3.29-4.81-2.58-7.13,2.92-7.13,2.92-5.93,2.32-5.67-5.15-7.99-10.82-2.32-5.67-5.15,1.29-5.15,1.29l-4.38,3.32-1.07,3.89-4.6,2.06-3.09,7.47-10.82,9.02-1.8,9.28-8.25,7.73-5.12,7.38.49.35,1.16,1.67c2.96,2.58-.13,4.9-.13,4.9l-2.71.26v2.45l2.45.9,3.22,4.9v5.93c5.02-.9,5.02,4.9,5.02,4.9v5.8l4.51.39c1.55,1.8,5.02,1.25,5.02,1.25l5.75-.17c3.78-4.21,5.24.34,5.24.34v2.49l2.23.34.52,3.95s.34,4.04.26,4.55c-.09.52,1.8,2.49,1.8,2.49.16.99.31,1.84.45,2.59,0,0,3.33-.53,6.42,1.19,3.09,1.72,6.53.17,7.21,0,.69-.17,1.72-2.35,4.81-.23,3.09,2.12,4.64-5.74,9.45-1.03,0,0,1.89,1,3.78-1.53,1.89-2.53,2.58-4.08,2.58-4.08l4.47-4.72,1.03-3.01v-3.61l2.37-2.58-.14-3.27.34-5.67,2.92,2.23,3.26-.52c5.67-4.81,13.05,7.21,13.05,7.21h3.26l4.29-2.58c7.21-2.23,7.04-7.21,10.65-2.92,3.61,4.29,2.58-.69,2.58-.69Z"/>
        <path class="cls-1" d="M203.32,186.09c-2.75,3.78-5.33,0-5.33,0l-3.09,1.37h-2.23l-.86,4.81-1.03,4.81s4.38-1.8,7.34,1.42c1.71,1.86,3.29.93,4.33-.19.75-.82,1.21-1.73,1.21-1.73l1.55-5.68v-6.18l-1.89,1.37Z"/>
        <path class="cls-1" d="M207.53,206.61c-2.71-3.61-1.8-6.33-1.8-6.33-1.93,0-3.28-1.97-3.28-1.97-1.03,1.12-2.61,2.05-4.33.19-2.96-3.22-7.34-1.42-7.34-1.42l-6.18,4.64v3.26c-4.12,0-6.36,1.2-6.36,1.2l1.55,3.26c1.55,5.67-.17,7.56-5.67,11.17-5.5,3.61-1.37,6.53-3.44,7.74-1.68.98-2.67,3.99-2.43,5.81h5.35l1.03-3.62s2.58-3.29,3.44,1.81c.86,5.1-1.89,6.3,3.09,9.91,4.98,3.61,5.84,0,5.84,0,0,0,.52-2.75,3.26-3.26,0,0-.76-2.08-.05-3.21h0c-1.85-6.39,5.07-9.46,5.07-9.46v-5.28l.9-1.93,3.99-5.41v-3.09c1.14-1.14,2.08-1.63,2.82-1.77v-.04s1.01-1.98,4.54-2.17l-.02-.02Z"/>
        <path class="cls-1" d="M213.8,393.08l-1.03-11.85-8.42-1.2-.69-1.03-5.84-3.09-3.09-1.03-1.55-2.23c-1.03-6.7-5.5-5.5-5.5-5.5h-3.26l.34-5.15-1.37-3.44-3.26-7.21.17-2.4c6.18-1.55,10.99-6.7,9.28-8.59-1.72-1.89,1.2-4.47,1.2-4.47l.52-3.78-1.03-2.4.34-4.81-2.23-2.92c1.37-3.95-1.72-8.42-1.72-8.42h-3.95l-.04-.86-2.37,2.58v3.61l-1.03,3.01-4.47,4.72s-.69,1.55-2.58,4.08c-1.89,2.53-3.78,1.53-3.78,1.53-4.81-4.7-6.36,3.16-9.45,1.03-3.09-2.12-4.12.06-4.81.23-.69.17-4.12,1.72-7.21,0-3.09-1.72-6.42-1.19-6.42-1.19,1.47,8.24.84,3.07-6.72,5.83-8.25,3.01,3.18,7.9,3.18,7.9l.17,5.67c4.29.86,4.29,3.95,4.12,8.93-.17,4.98-1.37,4.64,1.55,8.25,2.92,3.61-.86,5.84-.86,5.84l-2.75.34s-1.37,2.23-4.29,2.06c-2.92-.17-10.31-.34-2.13,7.04,8.17,7.39,2.18,20.1,2.18,20.1,0,0-4.9,17.52,0,21.77,4.9,4.25,16.49.77,16.49.77,15.33-4.25,18.55-1.67,18.55-1.67,18.81,21.39,29.24-.77,29.24-.77v-3.61l.9-.9v-6.31c1.16-5.67,3.61-8.63,11.08-13.66,2.17-1.46,4.35-2.16,6.17-2.13l-3.63-4.66Z"/>
      </g>
      <g>
        <path class="cls-1" d="M239.39,160.32c2.92-7.9-5.5-5.84-10.54-7.56-1.6-.54-3.16-.58-4.55-.39v3.48l1.51,4.98v3.02l.27,4.07c2.06.88,5.16,1.1,10.72,1.84l.69-1.84,5.42-.9v-3.44l-3.53-3.26Z"/>
        <path class="cls-1" d="M249.87,139.88l-1.55-4.29-3.78-3.61s-1.2-2.92-5.18-4.21c-3.98-1.29-1.86-6.1-1.86-6.1l1.86-3.26-1.26-.69h-4.04v-5.67l1.17-1.89.21-5.5c2.23-.69,1.37-2.58,1.37-2.58-3.44-1.89-1.37-3.78-1.37-3.78,3.09,0,5.5-5.84,2.66-7.9-2.84-2.06,4.55-10.48-2.87-6.36-7.42,4.12-4.77.34-9.93,0-5.15-.34-1.37-6.7-1.37-6.7h-7.9s1.2,8.42-8.59,11.34c-9.79,2.92-7.21,19.75-7.21,19.75,0,0,.52,4.81-10.65,4.64l-3.26,2.4h-1.55l-.86,5.5-2.14,4.89c1.78.53,2.69,1.77,1.45,3.01l-.52,9.1,1.09,1.55h6.99l7.9,5.96s2.56.74,3.77-2.53c1.21-3.26-2.85-5.84,3.13-6.53,5.98-.69,7.01-4.29,7.01-4.29,0,0,2.23-3.09,4.64,0l1.88,1.55,1.55.17v9.1l6.18.34,2,1.37h6.38s4.16,2.96,5.36.88c1.2-2.08,2.23-.54,5.33-2.77,0,0,4.66-.96,3.95-2.92Z"/>
        <path class="cls-1" d="M353.63,65.33c2.4-4.47-1.72-8.42-3.44-14.09-1.72-5.67-3.44-5.84-6.01-3.95s-5.15,0-5.15,0l-2.06-.86-3.26-3.44c0-5.15-.86-7.21-.86-7.21-3.26-1.72-1.55-5.33-1.55-5.33v-3.95l-4.98-2.06c-2.4-6.53-9.28-6.44-9.28-6.44l-3.35-5.41-2.32.26-1.29-1.8-1.8-2.83v-3.86l-2.06-3.35-2.58,2.06-6.18,1.29-7.73,3.35-6.7,1.29-5.93,1.8-5.67,2.83-5.41,1.29h-6.96l-7.73,3.09h-5.41s-6.01-.26-7.56,11.25l-12.71,15.29-3.09,8.42-1.72,5.84-3.95,4.64v3.95l-1.72,3.78.86,6.18h7.9s1.03-10.48,8.07-12.71h5.5s1.89-3.44,5.33-1.55c3.44,1.89,4.29-4.47,11.68.52,7.39,4.98,11.51-8.07,20.61.34l5.33,1.03,2.92,4.22,2.58.34s1.72,1.29,3.09,5.75c1.37,4.47,9.28-.52,11.17,4.98l3.09,3.44,1.89.86s1.37,4.12,6.36,1.72c4.98-2.4,6.87.69,11.85-6.87,0,0,1.89-3.44,7.21-2.75l4.29-1.89s7.04.42,9.1-.73c2.06-1.16,5.67-1.16,5.67-1.16l4.69-6.01-.73-1.55Z"/>
        <path class="cls-1" d="M243.86,1.9l-9.02.26-5.54,4.38s1.16,4.9-4.12,1.42c-5.28-3.48-7.09.64-7.09.64l-2.58,1.67s-4.51,2.58-7.09,4.64c-2.58,2.06-3.86-.13-3.86-.13h-5.54s-2.71-2.06-3.22.77-7.09,8.5-7.09,8.5l-3.61,4.12s.39,3.61.26,3.99-1.29,3.35-1.29,3.35c3.35,5.8,1.16,6.31,1.16,6.31-11.47.9-5.93-1.67-8.89-4.25-2.96-2.58-5.67.39-5.67.39,0,0-1.42.77-6.06,1.29-4.64.52-7.34-5.15-5.28-6.18,2.06-1.03,1.93-1.42.26-2.96-1.67-1.55-4.38.13-4.38.13l-2.83.39s-1.03,3.74-3.74,1.03c-2.71-2.71-4.64,1.29-4.64,1.29l-.13,4.12c-9.4,5.02-3.61,5.93-6.44,8.37-2.83,2.45-3.86.39-3.86.39l-3.48-1.55-2.06-1.93c-2.71-6.57-2.45-4.51-6.06-5.15-3.61-.64-1.29-5.93-3.35-8.37-2.06-2.45-4.12-.13-4.12-.13,0,0-1.93,2.06-3.35.26-1.42-1.8-3.61-.13-3.61-.13-5.02,2.83-6.44-3.09-6.44-3.09,0,0-5.28-.64-7.34.64-2.06,1.29-3.99,1.67-4.12.9s-1.67-2.58-2.58,1.42c-.9,3.99-5.93,6.57-5.93,6.57,0,0-3.99,2.58-5.8,1.29s-6.06,0-6.06,0l-3.86.26-1.67,1.8c-2.32,8.63,3.09,9.15,3.09,9.15l.9,5.93c6.96,3.48,5.28,5.67,1.93,11.08-3.35,5.41-10.05-.26-10.05-.26l.13-2.83c-1.16-1.8-6.18.13-6.18.13v2.71l-2.06.77-4.38,8.25-1.03.14,2.19,1.8h5.93l6.44,2.83,4.9,2.06h1.29l13.66.77s5.67,2.75,9.28,2.06c3.61-.69,6.01,1.37,6.01,1.37,0,0,5.67,8.42,17.01,2.23,11.34-6.18,12.88-6.53,20.27,3.44l5.84,3.26s10.31-3.78,2.75,5.33c0,0,17.18,15.12,18.38,20.1v1.03h6.18v6.87s4.81,2.75,9.28,0c2.16-1.33,4.61-1.45,6.28-.95l2.14-4.89.86-5.5h1.55l3.26-2.4c11.17.17,10.65-4.64,10.65-4.64,0,0-2.58-16.83,7.21-19.75,9.79-2.92,8.59-11.34,8.59-11.34l-.86-6.18,1.72-3.78v-3.95l3.95-4.64,1.72-5.84,3.09-8.42,12.71-15.29c1.55-11.51,7.56-11.25,7.56-11.25,6.83-7.6-2.06-16.1-2.06-16.1Z"/>
        <path class="cls-1" d="M273.06,151.05l-4.81-.87-4.29-3.39-4.56-2.78h-2.14c-2.23.17-3.94-4.13-3.94-4.13h-3.45c.71,1.96-3.95,2.92-3.95,2.92-3.09,2.23-4.12.69-5.33,2.77-1.2,2.08-5.36-.88-5.36-.88h-6.38l-2-1.37-6.18-.34v-9.1l-1.55-.17-1.88-1.55c-2.4-3.09-4.64,0-4.64,0,0,0-1.03,3.61-7.01,4.29-5.98.69-1.92,3.26-3.13,6.53-1.21,3.26-3.77,2.53-3.77,2.53l.52.39,2.23,4.47,3.26,4.81,3.95,2.4.66,1.2h2.6l1.89-3.61,5.32-.83s2.2-1.54,5.2-1.97c1.39-.2,2.95-.16,4.55.39,5.04,1.72,13.46-.34,10.54,7.56l3.53,3.26v3.44l1.63,4.98,3.95-4.64h4.64l1.89-1.89h2.4l2.89-2.58,2.61-.86,1.89-3.44s2.92-3.95,6.36-4.12c3.44-.17,1.89-3.44,1.89-3.44Z"/>
        <path class="cls-1" d="M363.24,88.69v-4.81l-3.26-2.06s-.52-2.92-.69-7.21c-.17-4.29-3.61-4.64-3.61-4.64v-1.37l-1.33-1.72-4.69,6.01s-3.61,0-5.67,1.16c-2.06,1.16-9.1.73-9.1.73l-4.29,1.89c-5.33-.69-7.21,2.75-7.21,2.75-4.98,7.56-6.87,4.47-11.85,6.87-4.98,2.4-6.36-1.72-6.36-1.72l-1.89-.86-3.09-3.44c-1.89-5.5-9.79-.52-11.17-4.98-1.37-4.47-3.09-5.75-3.09-5.75l-2.58-.34-2.92-4.22-5.33-1.03c-9.1-8.42-13.23,4.64-20.61-.34-7.39-4.98-8.25,1.37-11.68-.52-3.44-1.89-5.33,1.55-5.33,1.55h-5.5c-7.04,2.23-8.07,12.71-8.07,12.71,0,0-3.78,6.36,1.37,6.7,5.15.34,2.51,4.12,9.93,0,7.42-4.12.03,4.29,2.87,6.36,2.84,2.06.43,7.9-2.66,7.9,0,0-2.06,1.89,1.37,3.78,0,0,.86,1.89-1.37,2.58l-.21,5.5-1.17,1.89v5.67h4.04l1.26.69-1.86,3.26s-2.12,4.81,1.86,6.1c3.98,1.29,5.18,4.21,5.18,4.21l3.78,3.61,1.55,4.29h3.45s1.71,4.29,3.94,4.12h2.14s4.56,2.78,4.56,2.78l4.29,3.39,4.81.87s2.23-7.04,9.62-3.78l2.4-.86,4.29-4.63h6.01l1.2-1.55h3.61s1.89-2.58,3.44,0l5.84-1.15,3.44-3.66,2.58-.69.86-2.06,4.98-5.15s3.26-2.23,5.33,0c2.06,2.23,3.09-2.06,3.09-2.06l3.61-2.23s3.61-.86,0-4.98l2.4-2.4h2.06l4.98-7.04h5.5l1.2-1.2h4.81s3.78-1.72,4.81-7.04l3.59-3.92c-.1-.12-.15-.2-.15-.2v-6.18l.69-1.55Z"/>
        <path class="cls-1" d="M225.82,163.86v-3.02l-1.51-4.98v-3.48c-3,.43-5.2,1.97-5.2,1.97l-5.32.83-1.89,3.61h-2.6l3.79,6.86,6.01-1.19s2.15-1.91,4.26,1.19c.75,1.11,1.58,1.8,2.72,2.29l-.27-4.07Z"/>
        <path class="cls-1" d="M244.55,172l-1.63-4.98-5.42.9-.69,1.84c-5.56-.74-8.66-.96-10.72-1.84-1.14-.49-1.97-1.19-2.72-2.29-2.11-3.1-4.26-1.19-4.26-1.19l-6.01,1.19,6.64,12.02c3.67,1.74,4.7.33,6.25-.34l4.12-.84s.69-1.55,5.5-1.2c4.81.34,4.47-1.37,4.47-1.37l4.47-1.89Z"/>
      </g>
      <g>
        <path class="cls-1" d="M82.44,182.14c-8.03,1.03-.22-10.19-.22-10.19,0,0,1.55-13.86-3.61-13.86s-4.29,5.67-4.29,5.67h-7.39l-1.89-2.4-1.37,1.03-1.03-1.37c-1.2-6.18-5.15-7.73-5.15-7.73h-3.95l-.86-4.38c-3.95-3.69-5.5,1.76-5.5,1.76l-3.94.39c-2.05,3.44-3.79-.69-3.79-.69h-4.98l-.73-1.46c-4.9-.77-5.41,5.93-5.41,5.93-3.74,1.03-5.8,3.74-5.8,3.74l-7.47.39-.13,4.12-1.55.52-1.03,6.7-1.8,1.03c-6.57,7.99,1.29,14.17-4.38,11.85-5.67-2.32-5.15,1.29-5.15,1.29l3.86,7.47,5.28.77c3.99-7.47,10.69-2.71,7.73,0s0,11.72,0,11.72l4.9,7.47,4.64,2.19.13,3.48.52,4.9.52,4.77,3.22,4.51c3.86,1.16,1.29,3.45,1.29,3.45v4.28l-2.06,4.12.39,5.93-5.54,3.48v1.93l1.93.9,3.74,3.09,10.95.77v-.9l6.83-.64c8.16-.09,9.88-10.05,9.88-10.05,6.53.69,6.87-11.81,6.87-11.81h5.67s5.15-1.25,2.23-9.66c-2.92-8.42,1.89-12.02,3.26-12.85s5.33-5.36,3.26-11.2c-2.06-5.84,1.94-9.96,1.94-9.96,6.23-1.2,8.03-11.51,0-10.48Z"/>
        <path class="cls-1" d="M201.43,150.36l-2.23-4.47-8.42-6.36h-6.99l-1.09-1.55.52-9.1c2.4-2.4-3.26-4.81-7.73-2.06-1.29.79-2.61,1.13-3.83,1.2h0s-2.52,3.26-11.8,2.58c0,0-3.26,2.42-9.45.1-6.18-2.33-14.26,2.83-15.98,3.86-1.72,1.03-8.25,6.01-6.87,10.65,1.37,4.64,1.44,9.14,1.44,9.14h0c.99-2.01,1.37-3.85,4.4-4.16,0,0,2.4-.34,2.92,3.52l2.62.09v1.46s1.93,2.83.64,5.84l1.46,2.83,2.49,1.89,1.29,2.66s1.29,2.06,4.04.6l1.89.52,1.12,2.58,2.75-.09.6,2.06s1.04,1.61,1.37,2.79h0c2.74.24,5.2.12,6.97-.06,1.78-.18,2.87-.42,2.87-.42l5.23-5.75c3.42,1.85,4.18-1.08,4.18-1.08.64-3.22,3.22-2.19,3.22-2.19,0,0,3.48,3.48,3.09-.9-.39-4.38,1.8-1.29,2.96-4.12,1.16-2.83,5.67-1.67,5.67-1.67h7.86l1.59-1.98,2.22-6.91h0s-1.02-1.5-1.02-1.5Z"/>
        <polygon class="cls-2" points="202.45 151.86 202.45 151.86 202.45 151.86 202.45 151.86"/>
        <path class="cls-1" d="M166.22,126.83v-6.87h-6.18v-1.03c-1.2-4.98-18.38-20.1-18.38-20.1,7.56-9.1-2.75-5.33-2.75-5.33l-5.84-3.26c-7.39-9.96-8.93-9.62-20.27-3.44-11.34,6.18-17.01-2.23-17.01-2.23,0,0-2.4-2.06-6.01-1.37-3.61.69-9.28-2.06-9.28-2.06l-13.66-.77h-1.29l-4.9-2.06-6.44-2.83h-5.93l-2.19-1.8-7.73,1.02-2.71,4.9c.64,12.63-4.38,11.21-1.42,16.23s.26,5.15.26,5.15l-6.57,4.9-3.35.9-.9,1.67s-2.58-1.29-9.28,4.9c-6.7,6.18,7.86,10.82,7.86,10.82l7.21.52c6.31,2.58,5.67,11.21,4.64,12.75-1.03,1.55-2.83,3.35-.9,5.67,1.93,2.32.52,5.8.52,5.8l.73,1.46h4.98s1.75,4.12,3.79.69l3.94-.39s1.55-5.45,5.5-1.76l.86,4.38h3.95s3.95,1.55,5.15,7.73l1.03,1.37,1.37-1.03,1.89,2.4h7.39s-.86-5.67,4.29-5.67,3.61,13.86,3.61,13.86c0,0-7.81,11.22.22,10.19,8.03-1.03,6.23,9.28,0,10.48,0,0-4,4.12-1.94,9.96,2.06,5.84-1.89,10.37-3.26,11.2s-6.18,4.43-3.26,12.85c2.92,8.42-2.23,9.66-2.23,9.66h-5.67s-.34,12.5-6.87,11.81c0,0-1.72,9.96-9.88,10.05l.64,3.99,2.83.52,1.42,3.86c2.71,4.25,5.67,3.35,5.67,3.35l1.93,2.58,3.14,3.86c-2.27,2.58.21,5.67.21,5.67,0,0-1.67,6.06,4.38,2.96s10.56,1.55,10.56,1.55l17.13.13.9-3.22,1.03-1.93,3.86-1.03,2.22,1.59,5.12-7.38,8.25-7.73,1.8-9.28-1.98-2.49-2.4-1.03s-.09-3.61-2.23-1.2c-2.15,2.4-2.58-.26-2.58-.26h-2.83s-.09,2.75-4.04,1.2c-3.95-1.55.6-4.29-5.24-7.56-5.84-3.26-2.4-4.72-2.15-6.1.26-1.37,1.12-2.75,2.4-4.38,1.29-1.63-.17-5.15-.17-5.15,0,0-.69-4.9,3.26-4.55s2.92,5.75,6.96,2.15l-.86-2.16-.49-1.7s-1.92-3.86,1.09-5.75l.17-3.95s1.72-.26-.17-4.9l-1.55-.52-1.72-3.69-1.55-.6s-1.98-2.66.17-5.5c0,0,2.89-1.03,3.55,0,.66,1.03,5.3-1.8,5.21.86-.09,2.66.34,3.01,2.32,3.78,1.98.77,3.86,1.8,5.84.86s4.04-2.1,4.04-2.1l3.44-.39h1.72l3.26.39,1.2-.99.77-1.46,1.2-.94,1.85.17s2.88-3.01,0-4.9c-2.88-1.89-4.51,5.75-12.5,2.4h-4.21l-.94-1.12.6-.69v-3.35l.26-3.95-3.26-3.26s.52-2.92-3.01-3.69c-3.52-.77-.6,0-.6,0l-3.61-.34s-1.55-3.35-2.06-6.36c-.52-3.01-1.8-5.67-1.8-5.67l.26-8.93,2.4-2.4s2.83-1.29,5.67,0c2.83,1.29,8.16,2.12,11.08-.57.86-.79,1.37-1.65,1.78-2.49h0s-.07-4.5-1.44-9.14c-1.37-4.64,5.15-9.62,6.87-10.65,1.72-1.03,9.79-6.18,15.98-3.86,6.18,2.33,9.45-.1,9.45-.1,9.28.69,11.8-2.58,11.8-2.58h0c-3.01.18-5.44-1.2-5.44-1.2Z"/>
        <path class="cls-1" d="M203.02,177.33c-.99,0-.57-3.09-.57-3.09,0,0,.01-6.18-3.08-8.59-3.09-2.4,1.97-2.92,1.97-2.92l-1.11-3.95-1.59,1.98h-7.86s-4.51-1.16-5.67,1.67c-1.16,2.83-3.35-.26-2.96,4.12.39,4.38-3.09.9-3.09.9,0,0-2.58-1.03-3.22,2.19,0,0-.75,2.93-4.18,1.08l-5.23,5.75s-1.09.24-2.87.42l.03.19s-.77,2.1,2.96,2.48h2.83v2.19h3.48v2.19l4.25.77s2.45,3.98,6.96,1.99c0,0,3.99-.9,3.74,1.58,0,0-.41,1.02,2.08.87h0c-1.3-.81-1.01-2.45-1.01-2.45l1.01-5.94s4.66.17,11.53,0c6.87-.17,2.58-3.44,1.59-3.44Z"/>
        <path class="cls-1" d="M189.91,189.15h0c-2.5.16-2.08-.86-2.08-.86.26-2.48-3.74-1.58-3.74-1.58-4.51,1.99-6.96-1.99-6.96-1.99l-4.25-.77v-2.19h-3.48v-2.19h-2.83c-3.74-.39-2.96-2.48-2.96-2.48l-.03-.19c-1.77.18-4.23.3-6.97.06h0c.11.41.14.77,0,.99-.52.86-.34,3.69.86,4.9,1.2,1.2,1.03,3.01-.86,4.29-1.89,1.29,3.95,9.89,3.95,9.89l1.8,2.55s3.56-7.76,8.07-5.05c.86.52,1.76.67,2.73.59,4.08-.33,9.39-4.73,18.66-2.82l.49-2.72c-1.13.1-1.88-.08-2.39-.4Z"/>
        <path class="cls-1" d="M171.66,222.99s-2.01-.83-3.41.89c-1.4,1.72-3.75.64-3.75.64l-1.63-.56-2.92-.86c-3.01-4.47-2.83-10.13-2.83-10.13,0,0,2.15-6.01,5.5-6.36s2.49-2.06,2.49-2.06l-2.75-3.26v-1.73l-1.8-2.55s-5.84-8.6-3.95-9.89c1.89-1.29,2.06-3.09.86-4.29-1.2-1.2-1.37-4.04-.86-4.9.13-.22.1-.58,0-.99-.32-1.18-1.37-2.79-1.37-2.79l-.6-2.06-2.75.09-1.12-2.58-1.89-.52c-2.75,1.46-4.04-.6-4.04-.6l-1.29-2.66-2.49-1.89-1.46-2.83c1.29-3.01-.64-5.84-.64-5.84v-1.46l-2.62-.09c-.52-3.86-2.92-3.52-2.92-3.52-3.03.3-3.41,2.15-4.4,4.16-.41.83-.93,1.7-1.78,2.49-2.92,2.69-8.25,1.86-11.08.57-2.83-1.29-5.67,0-5.67,0l-2.4,2.4-.26,8.93s1.29,2.66,1.8,5.67c.52,3.01,2.06,6.36,2.06,6.36l3.61.34s-2.92-.77.6,0c3.52.77,3.01,3.69,3.01,3.69l3.26,3.26-.26,3.95v3.35l-.6.69.94,1.12h4.21c7.99,3.35,9.62-4.29,12.5-2.4,2.88,1.89,0,4.9,0,4.9l-1.85-.17-1.2.94-.77,1.46-1.2.99-3.26-.39h-1.72l-3.44.39s-2.06,1.16-4.04,2.1-3.86-.09-5.84-.86c-1.98-.77-2.4-1.12-2.32-3.78.09-2.66-4.55.17-5.21-.86-.66-1.03-3.55,0-3.55,0-2.15,2.83-.17,5.5-.17,5.5l1.55.6,1.72,3.69,1.55.52c1.89,4.64.17,4.9.17,4.9l-.17,3.95c-3.01,1.89-1.09,5.75-1.09,5.75l.49,1.7.86,2.16c-4.04,3.61-3.01-1.8-6.96-2.15s-3.26,4.55-3.26,4.55c0,0,1.46,3.52.17,5.15-1.29,1.63-2.15,3.01-2.4,4.38-.26,1.37-3.69,2.83,2.15,6.1,5.84,3.26,1.29,6.01,5.24,7.56,3.95,1.55,4.04-1.2,4.04-1.2h2.83s.43,2.66,2.58.26c2.15-2.4,2.23,1.2,2.23,1.2l2.4,1.03,1.98,2.49,10.82-9.02,3.09-7.47,4.6-2.06,1.07-3.89,4.38-3.32s2.83-6.96,5.15-1.29c2.32,5.67,2.06,13.14,7.99,10.82,0,0,2.32-5.5,7.13-2.92,4.81,2.58,4.98-1.95,3.95-3.29-1.03-1.35,0-5.62,2.06-6.83,1.59-.93-.48-2.88.98-5.37Z"/>
        <path class="cls-1" d="M173.15,195.1s-.15,3.24,2.81,5.19l1.12,3.62,1.16,2.28s2.23-1.2,6.36-1.2v-3.26l6.18-4.64,1.03-4.81c-9.27-1.91-14.58,2.49-18.66,2.82Z"/>
        <path class="cls-1" d="M179.79,209.45l-1.55-3.26-1.16-2.28-1.12-3.62c-2.96-1.95-2.81-5.19-2.81-5.19-.97.08-1.86-.07-2.73-.59-4.51-2.71-8.07,5.05-8.07,5.05v1.73l2.75,3.26s.86,1.71-2.49,2.06-5.5,6.36-5.5,6.36c0,0-.17,5.67,2.83,10.13l2.92.86,1.63.56s2.35,1.08,3.75-.64c1.4-1.72,3.41-.89,3.41-.89.44-.75,1.19-1.54,2.46-2.37,5.5-3.61,7.21-5.5,5.67-11.17Z"/>
        <path class="cls-1" d="M208.65,157.57l-3.95-2.4-2.24-3.31h0l-2.22,6.91,1.11,3.95s-5.06.52-1.97,2.92c3.09,2.4,3.08,8.59,3.08,8.59,0,0-.42,3.09.57,3.09.99,0,5.28,3.27-1.59,3.44-6.87.17-11.53,0-11.53,0l-1.01,5.94s-.29,1.65,1.01,2.45c.51.32,1.27.5,2.39.4l.37-2.09h2.23l3.09-1.37s2.58,3.78,5.33,0l1.89-1.37v-3.26h4.81s6.05-5.54,9.72-3.8l-11.1-20.08Z"/>
      </g>
    </g>
  </g>
</svg>