<?xml version="1.0" encoding="UTF-8"?>
<svg id="_레이어_2" data-name="레이어 2" xmlns="http://www.w3.org/2000/svg" viewBox="0 0 523.93 490.13">
  <defs>
    <style>
      .cls-1 {
        fill: none;
        stroke: #176b5b;
        stroke-miterlimit: 10;
        stroke-width: 1.5px;
      }

      .cls-2 {
        fill: #1c685b;
      }

      .cls-3 {
        opacity: .08;
      }
    </style>
  </defs>
  <g id="Layer_1" data-name="Layer 1">
    <g class="cls-3">
      <path class="cls-1" d="M522.15,229.66l-4.25-6.31c-1.29-7.47-15.33-15.07-15.33-15.07v-1.8h-1.29v-3.35l-4.77-3.61v-4.77h-4.9v-.9l-.64-3.48c-2.83-.77-1.16-4.25-1.16-4.25,0,0,2.06-3.86-1.42-2.06-3.48,1.8-3.99,0-3.99,0l-2.32-2.32-1.93-.77-2.32-1.42-2.19-2.32-.64-3.61-1.29-3.09c-2.83-2.19-9.15-.9-9.15-.9l-2.19.9-3.87-4.12,3.22-3.61-.13-5.28c-2.83-3.99-.52-5.15-.52-5.15l2.58-1.03-1.16-3.09,5.54-2.96,7.86-8.76.95-3.22v-4.38l-.95.77-1.67.64h-1.42v-3.74l-5.8-5.54-4.25-1.55-.13-4.38h.77v-3.35h-2.96v-1.93c-.39-4.38-5.67-4.77-5.67-4.77-2.96-.52-3.09-4.38-3.09-4.38v-6.44l-1.42-1.93h-5.28l-1.29-.39-4.9-3.48-2.58-3.22v-4.77c-3.09-4.12-4.51,2.83-4.51,2.83l-4.51.64v-1.03l-1.42-1.55-1.93-1.16-5.54-3.87-.64-2.06-3.48-3.99c-1.16-5.67-3.22-.9-3.22-.9l-2.71,3.74.26,8.89c1.42,4.51,0,5.54,0,5.54l-2.71,3.86v2.45l-4.64,4.77v2.32l-1.76.73c-11.17,8.07-13.05-4.29-16.66-6.18-3.61-1.89-5.67,0-5.67,0l-4.81,1.03c-4.62,6-8.95,1.25-9.81.2l-3.59,3.92c-1.03,5.33-4.81,7.04-4.81,7.04h-4.81l-1.2,1.2h-5.5l-4.98,7.04h-2.06l-2.4,2.4c3.61,4.12,0,4.98,0,4.98l-3.61,2.23s-.38,1.57-1.14,2.32c-.49.49-1.14.62-1.96-.26-2.06-2.23-5.33,0-5.33,0l-4.98,5.15-.86,2.06-2.58.69-3.44,3.66-5.84,1.15c-1.55-2.58-3.44,0-3.44,0h-3.61l-1.2,1.55h-6.01l-4.29,4.63-1.07.38-1.34.48c-7.39-3.26-9.62,3.78-9.62,3.78,0,0,1.55,3.26-1.89,3.44-3.44.17-6.36,4.12-6.36,4.12l-1.89,3.44-2.61.86-2.89,2.58h-2.4l-1.89,1.89h-4.64l-3.95,4.64-4.47,1.89s.34,1.72-4.47,1.37-5.5,1.2-5.5,1.2l-4.12.84c-1.55.67-2.58,2.08-6.25.34l.58,1.05,1.2,6.7,1.2,2.92s0,.26-.08.68c-.2,1.07-.93,3.21-3.53,4.82-3.61,2.23,6.18,8.93,6.18,8.93l3.55,2.28,3.67,2.36v8.93l2.06.97.86.41v21.3l-1.89,3.44,3.26,3.61v6.18l-1.12.73-6.26,4.08s-.34,6.7-6.53,1.89l-4.98,1.74-1.89,1.35h-6.01l.34,3.95h-2.58l-.86,4.47-2.23,2.06-.17,2.58.17,7.56s-3.61,4.47.17,4.64c0,0,1.89,3.95,5.67,0,0,0,1.72-2.92,3.09.17,0,0,8.07-2.06,3.44,3.95-4.64,6.01,6.53,4.98,4.47,12.37l1.37,2.75s.17.84.13,1.53c-.06,1-.58,1.69-2.71-.84-3.61-4.29-3.44.69-10.65,2.92l-4.29,2.58h-3.26s-7.39-12.02-13.05-7.21l-3.26.52-2.92-2.23-.34,5.67.17,4.12h3.95s3.09,4.47,1.72,8.42l2.23,2.92-.34,4.81,1.03,2.4-.52,3.78s-2.92,2.58-1.2,4.47c1.72,1.89-3.09,7.04-9.28,8.59l-.17,2.4,3.26,7.21,1.37,3.44-.34,5.15h3.26s4.47-1.2,5.5,5.5l1.55,2.23,3.09,1.03,5.84,3.09.69,1.03,8.42,1.2,1.03,11.85,3.63,4.66c4.43.09,6.66,4.6,1.18,13.47-7.73,12.5-2.58,14.56-2.58,14.56,11.47,12.37,21.9-4.77,25.12,1.16,3.22,5.93,2.06,5.93-9.02,17.52-11.08,11.59,1.93,25.51,1.93,25.51v2.71l1.03.9v6.06l3.35,6.18c9.53,8.76,13.01.64,15.98-20.87,2.96-21.51,31.95-25.77,31.95-25.77l.26-5.15,2.32-2.71,1.16-3.22h1.8l.26-1.29,2.06-3.61.39-2.83.9-2.96c-1.8-3.74,2.45-6.44,2.45-6.44v-6.18h2.06l1.16-1.67.26-2.32,2.58-4.12.9-1.8,3.87-2.45c-1.67-4.51,6.57-6.83,6.57-6.83l3.09-3.74c4.12-.13.13-2.19.13-2.19l-3.48-2.71-.64-3.74c-5.02-7.21,1.16-15.33,1.16-15.33l.39-11.59-3.48-4.51-.9-4.25-1.42-4.9c-2.91-1.9-2.94-3.75-2.14-5.18.94-1.68,3.04-2.8,3.04-2.8,2.19-4.77,8.76-5.02,8.76-5.02l3.48-.9.13-5.67h3.61l1.8-1.6,2.32-.2c5.8,1.16,6.44-3.09,6.44-3.09,0,0,2.71-.26,3.22-1.42s3.74-3.22,5.02-1.8,3.35,0,3.35,0l8.63-5.54.9-4.9c4.12-3.61,3.86-5.54-1.29-11.21-4.58-5.03.8-10.37,2.06-11.5.16-.14.26-.22.26-.22,2.19-7.21,7.47-5.93,7.47-5.93v-3.61l1.67-.9,5.67-6.06,2.58-3.61c-3.99-4.25.77-9.53.77-9.53l.64-1.8,2.32-2.63,3.74-.85c5.79-9.57,8.87-7.77,9.34-7.4.04.03.07.06.07.06,3.61-.64,5.67,4.25,5.67,4.25,0,0,.52,6.31,6.31,1.65,5.8-4.67,7.34,1.7,7.34,1.7l2.32.59,1.03,3.02-.9,2.32c0,3.09,2.32.64,2.32.64l3.86.13v-.9c2.83-2.71,4.77.13,4.77.13l2.19,4.9,6.83.13s2.19,1.29,4.38,3.35c2.19,2.06,6.57.52,6.57.52l5.67-3.48c1.03-5.02,2.96-4.51,2.96-4.51,5.41,0,8.63-8.53,8.63-8.53l5.02-.74c1.8-1.42,6.44.74,6.44.74,1.8,2.68,1.93,1.7,2.96,0,1.03-1.7,4.12,0,4.12,0l1.42,1.45,3.74.85.64,2.11c-1.67,2.71,0,6.18,0,6.18l1.67,1.67,2.32.26s.39,2.45,3.09,6.18c2.71,3.74,4.77,1.42,4.77,1.42l7.34-5.02,2.96-.77,5.8-.64,1.55-1.55,4.51-2.58c2.32-6.31,0-15.2,0-15.2Z"/>
      <path class="cls-1" d="M233.3,242.55l1.89-3.44v-21.3l-2.92-1.37v-8.93l-7.21-4.64s-4.37-2.99-6.19-5.64c-.91-1.32-1.19-2.55,0-3.29,2.6-1.61,3.32-3.75,3.53-4.82.08-.42.08-.68.08-.68l-1.2-2.92-1.2-6.7-.58-1.05c-3.67-1.74-9.72,3.8-9.72,3.8h-4.81v3.26l-1.89,1.37c-2.75,3.78-5.33,0-5.33,0l-3.09,1.37h-2.23l-.86,4.81-1.03,4.81-6.18,4.64v3.26c-4.12,0-6.36,1.2-6.36,1.2l1.55,3.26c1.55,5.67-.17,7.56-5.67,11.17-5.5,3.61-1.37,6.53-3.44,7.74-1.68.98-2.67,3.99-2.43,5.81.06.42.18.77.37,1.03,1.03,1.35.86,5.87-3.95,3.29-4.81-2.58-7.13,2.92-7.13,2.92-5.93,2.32-5.67-5.15-7.99-10.82-2.32-5.67-5.15,1.29-5.15,1.29l-4.38,3.32-1.07,3.89-4.59,2.06-3.09,7.47-10.82,9.02-1.8,9.28-8.25,7.73-5.12,7.38.49.35,1.16,1.67c2.96,2.58-.13,4.9-.13,4.9l-2.71.26v2.45l2.45.9,3.22,4.9v5.93c5.02-.9,5.02,4.9,5.02,4.9v5.8l4.51.39c1.55,1.8,5.02,1.25,5.02,1.25l5.75-.17c3.78-4.21,5.24.34,5.24.34v2.49l2.23.34.52,3.95s.34,4.04.26,4.55,1.8,2.49,1.8,2.49c.16.99.31,1.84.45,2.59,1.47,8.24.84,3.07-6.72,5.83-8.25,3.01,3.18,7.9,3.18,7.9l.17,5.67c4.29.86,4.29,3.95,4.12,8.93-.17,4.98-1.37,4.64,1.55,8.25,2.92,3.61-.86,5.84-.86,5.84l-2.75.34s-1.37,2.23-4.29,2.06c-2.92-.17-10.31-.34-2.13,7.04s2.18,20.1,2.18,20.1c0,0-4.9,17.52,0,21.77,4.9,4.25,16.49.77,16.49.77,15.33-4.25,18.55-1.67,18.55-1.67,18.81,21.39,29.24-.77,29.24-.77v-3.61l.9-.9v-6.31c1.16-5.67,3.61-8.63,11.08-13.66,2.17-1.46,4.35-2.16,6.17-2.13l-3.63-4.66-1.03-11.85-8.42-1.2-.69-1.03-5.84-3.09-3.09-1.03-1.55-2.23c-1.03-6.7-5.5-5.5-5.5-5.5h-3.26l.34-5.15-1.37-3.44-3.26-7.21.17-2.4c6.18-1.55,10.99-6.7,9.28-8.59-1.72-1.89,1.2-4.47,1.2-4.47l.52-3.78-1.03-2.4.34-4.81-2.23-2.92c1.37-3.95-1.72-8.42-1.72-8.42h-3.95l-.04-.86-.14-3.27.34-5.67,2.92,2.23,3.26-.52c5.67-4.81,13.05,7.21,13.05,7.21h3.26l4.29-2.58c7.21-2.23,7.04-7.21,10.65-2.92,3.61,4.29,2.58-.69,2.58-.69l-1.37-2.75c2.06-7.39-9.1-6.36-4.47-12.37,4.64-6.01-3.44-3.95-3.44-3.95-1.37-3.09-3.09-.17-3.09-.17-3.78,3.95-5.67,0-5.67,0-3.78-.17-.17-4.64-.17-4.64l-.17-7.56.17-2.58,2.23-2.06.86-4.47h2.58l-.34-3.95h6.01l1.89-1.35,4.98-1.74c6.18,4.81,6.53-1.89,6.53-1.89l7.39-4.81v-6.18l-3.26-3.61Z"/>
      <path class="cls-1" d="M362.99,88.81v-4.81l-3.26-2.06s-.52-2.92-.69-7.21c-.17-4.29-3.61-4.64-3.61-4.64v-1.37l-1.33-1.72-.73-1.55c2.4-4.47-1.72-8.42-3.44-14.09s-3.44-5.84-6.01-3.95c-2.58,1.89-5.15,0-5.15,0l-2.06-.86-3.26-3.44c0-5.15-.86-7.21-.86-7.21-3.26-1.72-1.55-5.33-1.55-5.33v-3.95l-4.98-2.06c-2.4-6.53-9.28-6.44-9.28-6.44l-3.35-5.41-2.32.26-1.29-1.8-1.8-2.83v-3.86l-2.06-3.35-2.58,2.06-6.18,1.29-7.73,3.35-6.7,1.29-5.93,1.8-5.67,2.83-5.41,1.29h-6.96l-7.73,3.09h-5.41c6.83-7.6-2.06-16.1-2.06-16.1l-9.02.26-5.54,4.38s1.16,4.9-4.12,1.42c-5.28-3.48-7.09.64-7.09.64l-2.58,1.67s-4.51,2.58-7.09,4.64-3.86-.13-3.86-.13h-5.54s-2.71-2.06-3.22.77c-.52,2.83-7.09,8.5-7.09,8.5l-3.61,4.12s.39,3.61.26,3.99-1.29,3.35-1.29,3.35c3.35,5.8,1.16,6.31,1.16,6.31-11.47.9-5.93-1.67-8.89-4.25-2.96-2.58-5.67.39-5.67.39,0,0-1.42.77-6.06,1.29s-7.34-5.15-5.28-6.18c2.06-1.03,1.93-1.42.26-2.96-1.67-1.55-4.38.13-4.38.13l-2.83.39s-1.03,3.74-3.74,1.03-4.64,1.29-4.64,1.29l-.13,4.12c-9.4,5.02-3.61,5.93-6.44,8.37-2.83,2.45-3.86.39-3.86.39l-3.48-1.55-2.06-1.93c-2.71-6.57-2.45-4.51-6.06-5.15-3.61-.64-1.29-5.93-3.35-8.37-2.06-2.45-4.12-.13-4.12-.13,0,0-1.93,2.06-3.35.26-1.42-1.8-3.61-.13-3.61-.13-5.02,2.83-6.44-3.09-6.44-3.09,0,0-5.28-.64-7.34.64-2.06,1.29-3.99,1.67-4.12.9s-1.67-2.58-2.58,1.42c-.9,3.99-5.93,6.57-5.93,6.57,0,0-3.99,2.58-5.8,1.29-1.8-1.29-6.06,0-6.06,0l-3.87.26-1.67,1.8c-2.32,8.63,3.09,9.15,3.09,9.15l.9,5.93c6.96,3.48,5.28,5.67,1.93,11.08-3.35,5.41-10.05-.26-10.05-.26l.13-2.83c-1.16-1.8-6.18.13-6.18.13v2.71l-2.06.77-4.38,8.25-1.03.14,2.19,1.8h5.93l6.44,2.83,4.9,2.06h1.29l13.66.77s5.67,2.75,9.28,2.06c3.61-.69,6.01,1.37,6.01,1.37,0,0,5.67,8.42,17.01,2.23,11.34-6.18,12.88-6.53,20.27,3.44l5.84,3.26s10.31-3.78,2.75,5.33c0,0,17.18,15.12,18.38,20.1v1.03h6.18v6.87s4.81,2.75,9.28,0c2.16-1.33,4.61-1.45,6.28-.95,1.78.53,2.69,1.77,1.45,3.01l-.52,9.1,1.09,1.55h6.99l7.9,5.96.52.39,2.23,4.47,3.26,4.81,3.95,2.4.66,1.2,3.79,6.86,6.64,12.02c3.67,1.74,4.7.33,6.25-.34l4.12-.84s.69-1.55,5.5-1.2,4.47-1.37,4.47-1.37l4.47-1.89,3.95-4.64h4.64l1.89-1.89h2.4l2.89-2.58,2.61-.86,1.89-3.44s2.92-3.95,6.36-4.12c3.44-.17,1.89-3.44,1.89-3.44,0,0,2.23-7.04,9.62-3.78l2.4-.86,4.29-4.63h6.01l1.2-1.55h3.61s1.89-2.58,3.44,0l5.84-1.15,3.44-3.66,2.58-.69.86-2.06,4.98-5.15s3.26-2.23,5.33,0c2.06,2.23,3.09-2.06,3.09-2.06l3.61-2.23s3.61-.86,0-4.98l2.4-2.4h2.06l4.98-7.04h5.5l1.2-1.2h4.81s3.78-1.72,4.81-7.04l3.59-3.92c-.1-.12-.15-.2-.15-.2v-6.18l.69-1.55Z"/>
      <path class="cls-1" d="M208.4,157.69l-3.95-2.4-2.24-3.31-1.02-1.5-2.23-4.47-8.42-6.36h-6.99l-1.09-1.55.52-9.1c2.4-2.4-3.26-4.81-7.73-2.06-1.29.79-2.61,1.13-3.83,1.2-3.01.19-5.44-1.2-5.44-1.2v-6.87h-6.18v-1.03c-1.2-4.98-18.38-20.1-18.38-20.1,7.56-9.1-2.75-5.33-2.75-5.33l-5.84-3.26c-7.39-9.96-8.93-9.62-20.27-3.44-11.34,6.18-17.01-2.23-17.01-2.23,0,0-2.4-2.06-6.01-1.37-3.61.69-9.28-2.06-9.28-2.06l-13.66-.77h-1.29l-4.9-2.06-6.44-2.83h-5.93l-2.19-1.8-7.73,1.02-2.71,4.9c.64,12.63-4.38,11.21-1.42,16.23,2.96,5.02.26,5.15.26,5.15l-6.57,4.9-3.35.9-.9,1.67s-2.58-1.29-9.28,4.9,7.86,10.82,7.86,10.82l7.21.52c6.31,2.58,5.67,11.21,4.64,12.75s-2.83,3.35-.9,5.67.52,5.8.52,5.8c-4.9-.77-5.41,5.93-5.41,5.93-3.74,1.03-5.8,3.74-5.8,3.74l-7.47.39-.13,4.12-1.55.52-1.03,6.7-1.8,1.03c-6.57,7.99,1.29,14.17-4.38,11.85s-5.15,1.29-5.15,1.29l3.87,7.47,5.28.77c3.99-7.47,10.69-2.71,7.73,0-2.96,2.71,0,11.72,0,11.72l4.9,7.47,4.64,2.19.13,3.48.52,4.9.52,4.77,3.22,4.51c3.87,1.16,1.29,3.45,1.29,3.45v4.28l-2.06,4.12.39,5.93-5.54,3.48v1.93l1.93.9,3.74,3.09,10.95.77v-.9l6.83-.64.64,3.99,2.83.52,1.42,3.86c2.71,4.25,5.67,3.35,5.67,3.35l1.93,2.58,3.14,3.87c-2.27,2.58.21,5.67.21,5.67,0,0-1.67,6.06,4.38,2.96,6.06-3.09,10.56,1.55,10.56,1.55l17.13.13.9-3.22,1.03-1.93,3.86-1.03,2.22,1.59,5.12-7.38,8.25-7.73,1.8-9.28,10.82-9.02,3.09-7.47,4.59-2.06,1.07-3.89,4.38-3.32s2.83-6.96,5.15-1.29c2.32,5.67,2.06,13.14,7.99,10.82,0,0,2.32-5.5,7.13-2.92,4.81,2.58,4.98-1.95,3.95-3.29-1.03-1.35,0-5.62,2.06-6.83,1.59-.93-.48-2.88.98-5.37.44-.75,1.19-1.54,2.46-2.37,5.5-3.61,7.21-5.5,5.67-11.17l-1.55-3.26s2.23-1.2,6.36-1.2v-3.26l6.18-4.64,1.03-4.81.49-2.72.37-2.09h2.23l3.09-1.37s2.58,3.78,5.33,0l1.89-1.37v-3.26h4.81s6.05-5.54,9.72-3.8l-11.1-20.08Z"/>
      <g>
        <path class="cls-2" d="M299.9,224.25l-1.18,1.13c-1.53-1.44-3.03-2.88-4.27-4.34-.11-.11-.26-.22-.28-.35-.04.13-.15.22-.28.35-1.35,1.5-2.77,3.01-4.29,4.47l-1.2-1.02c1.57-1.48,3.1-3.05,4.47-4.71.22-.22.39-.39.39-.7v-3.53h1.81v3.53c0,.31.15.48.37.7,1.31,1.53,2.86,3.01,4.47,4.47ZM300.31,226.69c2.51,0,4.4,1.33,4.4,3.68s-1.88,3.69-4.4,3.69h-6.08c-2.53,0-4.36-1.31-4.36-3.69s1.85-3.68,4.36-3.68h6.08ZM294.23,228.24c-1.44,0-2.59.79-2.59,2.14s1.16,2.16,2.59,2.16h6.08c1.46,0,2.64-.81,2.64-2.16s-1.18-2.14-2.64-2.14h-6.08ZM304.04,226.13h-1.81v-10.81h1.81v4.49h3.14v1.55h-3.14v4.77Z"/>
        <path class="cls-2" d="M309.08,216.32c0-.46.24-.7.74-.7h8.88v1.55h-7.83v4.3c0,.46.11.72.37.96l.61.54c.26.24.54.33,1.02.33h6.43v1.59h-6.76c-.76,0-1.24-.2-1.79-.68l-.89-.76c-.48-.44-.79-1.02-.79-1.7v-5.43ZM320.24,226.69c2.51,0,4.38,1.33,4.38,3.68s-1.85,3.69-4.38,3.69h-6.08c-2.53,0-4.38-1.31-4.38-3.69s1.88-3.68,4.38-3.68h6.08ZM314.16,228.24c-1.44,0-2.62.79-2.62,2.14s1.18,2.16,2.62,2.16h6.08c1.46,0,2.62-.81,2.62-2.16s-1.16-2.14-2.62-2.14h-6.08ZM323.88,226.13h-1.81v-10.81h1.81v4.49h3.14v1.55h-3.14v4.77Z"/>
        <path class="cls-2" d="M336.36,234.33v-7.68h-7.54v-1.57h12.93c.72-1.31.83-1.81.83-2.7v-4.93h-12.54v-1.55h13.71c.39,0,.61.22.61.63v5.58c0,1.2-.04,1.68-.81,2.97h2.14v1.57h-7.57v7.68h-1.77Z"/>
      </g>
      <g>
        <path class="cls-2" d="M215.59,82.21h4.3v-2.35h1.9v2.35h4.27v1.55h-4.23v1.53c0,.39.11.63.44.92,1.31,1.11,2.7,2.27,4.16,3.25l-1.02,1.37c-1.48-1.02-2.88-2.2-4.21-3.38-.11-.09-.24-.22-.31-.39-.07.17-.2.31-.28.39-1.4,1.29-2.79,2.44-4.38,3.49l-1.02-1.4c1.55-1.07,2.92-2.16,4.21-3.31.28-.26.44-.54.44-.92v-1.55h-4.25v-1.55ZM227.78,92.38c2.46,0,4.3,1,4.3,3.25s-1.81,3.29-4.3,3.29h-6.17c-2.53,0-4.32-1-4.32-3.29s1.81-3.25,4.32-3.25h6.17ZM221.61,93.92c-1.44,0-2.55.48-2.55,1.7s1.11,1.74,2.55,1.74h6.17c1.42,0,2.51-.48,2.51-1.74s-1.09-1.7-2.51-1.7h-6.17ZM229.85,80.21h1.77v11.4h-1.77v-5.02h-4.1v-1.5h4.1v-4.88Z"/>
        <path class="cls-2" d="M240.58,94.47v-3.95h-5.45v-1.57h12.71v1.57h-5.45v3.95h-1.81ZM246.21,83.72v.2c0,1.98-1.7,3.58-4.8,3.58s-4.86-1.59-4.86-3.58v-.2c0-1.96,1.72-3.58,4.86-3.58s4.8,1.61,4.8,3.58ZM239.62,99.03c-.68,0-1.09-.11-1.48-.5l-.7-.68c-.41-.41-.61-.81-.61-1.46v-3.45h1.79v3.1c0,.39.07.55.28.74l.52.5c.13.15.26.2.57.2h11.84v1.55h-12.21ZM244.46,83.78c0-1.26-1.2-2.09-3.05-2.09s-3.12.83-3.12,2.09v.09c0,1.26,1.22,2.09,3.12,2.09s3.05-.83,3.05-2.09v-.09ZM251.46,80.21v14.91h-1.77v-1.72h-4.8v-1.57h4.8v-11.62h1.77Z"/>
        <path class="cls-2" d="M262.87,99.22v-7.68h-7.54v-1.57h12.93c.72-1.31.83-1.81.83-2.7v-4.93h-12.54v-1.55h13.72c.39,0,.61.22.61.63v5.58c0,1.2-.04,1.68-.81,2.97h2.14v1.57h-7.57v7.68h-1.77Z"/>
      </g>
      <g>
        <path class="cls-2" d="M74.59,166.48v-1.48h16.88v1.48h-16.88ZM75.12,157.19v-1.55h6.98v-1.68h1.77v1.68h6.87v1.55h-15.61ZM86.39,167.92c2.42,0,3.75,1.02,3.75,2.99s-1.33,2.94-3.75,2.94h-6.76c-2.35,0-3.77-1.02-3.77-2.94s1.42-2.99,3.77-2.99h6.76ZM85.45,158.41c2.07,0,3.25,1.16,3.25,2.64s-1.18,2.64-3.25,2.64h-4.86c-2.2,0-3.29-1.2-3.29-2.64s1.11-2.64,3.29-2.64h4.86ZM86.39,172.32c1.24,0,2.01-.5,2.01-1.42s-.76-1.44-2.01-1.44h-6.76c-1.24,0-2.05.46-2.05,1.44,0,.92.81,1.42,2.05,1.42h6.76ZM85.43,162.12c.85,0,1.55-.35,1.55-1.07s-.7-1.09-1.55-1.09h-4.82c-.94,0-1.57.35-1.57,1.09s.63,1.07,1.57,1.07h4.82Z"/>
        <path class="cls-2" d="M94.74,156.38c0-.46.24-.68.74-.68h8.7v1.55h-7.65v4.32c0,.46.11.72.37.96l.59.55c.31.24.59.31,1.02.31h6.26v1.59h-6.52c-.81,0-1.29-.15-1.83-.65l-.89-.76c-.48-.41-.79-1.02-.79-1.7v-5.47ZM109.79,167.35c.41,0,.63.2.63.61v6.26h-1.74v-5.34h-12.39v-1.53h13.5ZM108.65,155.18h1.77v10.9h-1.77v-5.12h-6.21v-1.5h6.21v-4.27Z"/>
        <path class="cls-2" d="M121.82,174.2v-7.68h-7.54v-1.57h12.93c.72-1.31.83-1.81.83-2.7v-4.93h-12.54v-1.55h13.72c.39,0,.61.22.61.63v5.58c0,1.2-.04,1.68-.81,2.97h2.14v1.57h-7.57v7.68h-1.77Z"/>
      </g>
      <g>
        <path class="cls-2" d="M145.36,282.14l-1.29,1c-1.64-1.94-3.12-3.88-4.54-5.89-.04-.07-.11-.13-.13-.26-.02.13-.11.2-.17.26-1.37,2.12-2.88,4.12-4.49,6.04l-1.37-1c1.74-2.01,3.29-4.08,4.71-6.28.33-.46.41-.74.41-1.35v-7.7h1.79v7.7c0,.61.11.92.41,1.35,1.5,2.12,2.99,4.17,4.67,6.13ZM149.96,266.53v18.69h-1.77v-10.34h-4.62v-1.5h4.62v-6.85h1.77Z"/>
        <path class="cls-2" d="M158.93,280.79v-3.95h-5.45v-1.57h12.71v1.57h-5.45v3.95h-1.81ZM164.55,270.04v.2c0,1.98-1.7,3.58-4.8,3.58s-4.86-1.59-4.86-3.58v-.2c0-1.96,1.72-3.58,4.86-3.58s4.8,1.61,4.8,3.58ZM157.97,285.35c-.68,0-1.09-.11-1.48-.5l-.7-.68c-.41-.41-.61-.81-.61-1.46v-3.45h1.79v3.1c0,.39.07.55.28.74l.52.5c.13.15.26.2.57.2h11.84v1.55h-12.21ZM162.81,270.11c0-1.26-1.2-2.09-3.05-2.09s-3.12.83-3.12,2.09v.09c0,1.26,1.22,2.09,3.12,2.09s3.05-.83,3.05-2.09v-.09ZM169.81,266.53v14.91h-1.77v-1.72h-4.8v-1.57h4.8v-11.62h1.77Z"/>
        <path class="cls-2" d="M181.21,285.55v-7.68h-7.54v-1.57h12.93c.72-1.31.83-1.81.83-2.7v-4.93h-12.54v-1.55h13.72c.39,0,.61.22.61.63v5.58c0,1.2-.04,1.68-.81,2.97h2.14v1.57h-7.57v7.68h-1.77Z"/>
      </g>
    </g>
  </g>
</svg>