<?xml version="1.0" encoding="UTF-8"?>
<svg id="_레이어_2" data-name="레이어 2" xmlns="http://www.w3.org/2000/svg" viewBox="0 0 120.7 141.07">
  <defs>
    <style>
      .cls-1 {
        fill: #fff;
        stroke: #07a59f;
        stroke-miterlimit: 10;
      }
    </style>
  </defs>
  <g id="Layer_5" data-name="Layer 5">
    <path class="cls-1" d="M116.06,80.85c-4.58-5.03.8-10.37,2.06-11.5h0c-9.02-4.67-7.82-7.35-7.82-7.35l-.86-3.26c-6.87-9.79-11.85.86-14.6-3.44-2.75-4.29-7.73,1.37-7.73,1.37-9.1.69-.69-8.93-.69-8.93v-7.39s1.55-5.5,0-8.76c-1.55-3.26-.86-6.01-.86-6.01l-3.95-3.44v-2.92l-3.61-2.4-1.37-2.09c-1.37-10.85-12.37-8.39-12.37-8.39,0,0-4.98-5.84-7.21-5.84s-3.09,4.29-3.09,4.29l-.86,7.21c-7.04,4.12-4.29,10.31-7.39,12.54-3.09,2.23-2.11,4.41-2.11,4.41,2.73-2.34,6.4.91,6.4.91l3.95,1.03c4.47,3.26,5.5,7.73,5.5,7.73l.69,5.15h2.23v4.47l2.06.86,4.64,3.78c-2.4,3.95-1.55,5.15-1.55,5.15,6.18,2.4.86,5.5.86,5.5,1.37,5.84-5.67,9.79-5.67,9.79v2.92s-1.89,9.62-7.9,5.5c-6.01-4.12-8.25,2.4-8.25,2.4,0,0,1.2,3.61.69,6.7-.52,3.09-5.67,2.58-5.67,2.58l-3.78.34c-5.33,3.26-4.81.34-4.81.34h-3.26l-.86-1.72s.17-1.72-3.09-5.5c-3.26-3.78-3.78,3.44-3.78,3.44h-2.4l-1.72,3.78H4.14c-1.72-2.92-2.75,1.03-2.75,1.03l-.67,3.46c3.59,3.53,3.93,6.85,3.93,6.85-.34,5.84-2.92,4.98-2.92,4.98l.34,5.33-.69,1.37-.86,10.13,2.06.34,1.03,3.26,3.09,3.95s-1.89,5.67,3.61,3.61c5.5-2.06,5.84,1.2,5.84,1.2l6.01.86v-1.2l2.58-1.55,1.03-1.58,2.75-2.71c3.78-2.06,6.7-.17,6.7-.17v1.72l1.89,1.16c2.58-3.47,4.98,0,4.98,0,0,0,1.8-4.94,7.47-1.08,5.67,3.86,9.28-3.61,11.59-7.47,1.15-1.92,3.45-2.5,5.47-2.61.94-1.68,3.04-2.8,3.04-2.8,2.19-4.77,8.76-5.02,8.76-5.02l3.48-.9.13-5.67h3.61l1.8-1.6,2.32-.2c5.8,1.16,6.44-3.09,6.44-3.09,0,0,2.71-.26,3.22-1.42.52-1.16,3.74-3.22,5.02-1.8,1.29,1.42,3.35,0,3.35,0l8.63-5.54.9-4.9c4.12-3.61,3.86-5.54-1.29-11.21Z"/>
  </g>
</svg>