<?xml version="1.0" encoding="UTF-8"?>
<svg id="_레이어_2" data-name="레이어 2" xmlns="http://www.w3.org/2000/svg" viewBox="0 0 141.2 189.75">
  <defs>
    <style>
      .cls-1 {
        fill: #fff;
        stroke: #07a59f;
        stroke-miterlimit: 10;
      }
    </style>
  </defs>
  <g id="Layer_5" data-name="Layer 5">
    <path class="cls-1" d="M138.96,79.62l-3.48-2.71-.64-3.74c-5.02-7.21,1.16-15.33,1.16-15.33l.39-11.59-3.48-4.51-.9-4.25-1.42-4.9c-2.91-1.9-2.94-3.75-2.14-5.18-2.02.1-4.31.69-5.47,2.61-2.32,3.86-5.93,11.34-11.59,7.47-5.67-3.86-7.47,1.08-7.47,1.08,0,0-2.4-3.47-4.98,0l-1.89-1.16v-1.72s-2.92-1.89-6.7.17l-2.75,2.71-1.03,1.58-2.58,1.55v1.2l-6.01-.86s-.34-3.26-5.84-1.2c-5.5,2.06-3.61-3.61-3.61-3.61l-3.09-3.95-1.03-3.26-2.06-.34.86-10.13.69-1.37-.34-5.33s2.58.86,2.92-4.98c0,0-.34-3.31-3.93-6.85l-.19,1.01h-5.15v1.55s-2.75,3.78-5.84,5.67c-2.49,1.52-6.49-.41-7.94-1.22-.06,1-.58,1.69-2.71-.84-3.61-4.29-3.44.69-10.65,2.92l-4.29,2.58h-3.26S15.11.64,9.44,5.45l-3.26.52-2.92-2.23-.34,5.67.17,4.12h3.95s3.09,4.47,1.72,8.42l2.23,2.92-.34,4.81,1.03,2.4-.52,3.78s-2.92,2.58-1.2,4.47c1.72,1.89-3.09,7.04-9.28,8.59l-.17,2.4,3.26,7.21,1.37,3.44-.34,5.15h3.26s4.47-1.2,5.5,5.5l1.55,2.23,3.09,1.03,5.84,3.09.69,1.03,8.42,1.2,1.03,11.85,3.63,4.66c4.43.09,6.66,4.6,1.18,13.47-7.73,12.5-2.58,14.56-2.58,14.56,11.47,12.37,21.9-4.77,25.12,1.16,3.22,5.93,2.06,5.93-9.02,17.52-11.08,11.59,1.93,25.51,1.93,25.51v2.71l1.03.9v6.06l3.35,6.18c9.53,8.76,13.01.64,15.98-20.87,2.96-21.51,31.95-25.77,31.95-25.77l.26-5.15,2.32-2.71,1.16-3.22h1.8l.26-1.29,2.06-3.61.39-2.83.9-2.96c-1.8-3.74,2.45-6.44,2.45-6.44v-6.18h2.06l1.16-1.67.26-2.32,2.58-4.12.9-1.8,3.86-2.45c-1.67-4.51,6.57-6.83,6.57-6.83l3.09-3.74c4.12-.13.13-2.19.13-2.19Z"/>
  </g>
</svg>