<?xml version="1.0" encoding="UTF-8"?>
<svg id="_레이어_2" data-name="레이어 2" xmlns="http://www.w3.org/2000/svg" viewBox="0 0 196.01 189.62">
  <defs>
    <style>
      .cls-1 {
        fill: #fff;
        stroke: #07a59f;
        stroke-miterlimit: 10;
      }
    </style>
  </defs>
  <g id="Layer_5" data-name="Layer 5">
    <path class="cls-1" d="M194.48,162.64l-4.25-6.31c-1.29-7.47-15.33-15.07-15.33-15.07v-1.8h-1.29v-3.35l-4.77-3.61v-4.77h-4.9v-.9l-.64-3.48c-2.83-.77-1.16-4.25-1.16-4.25,0,0,2.06-3.86-1.42-2.06-3.48,1.8-3.99,0-3.99,0l-2.32-2.32-1.93-.77-2.32-1.42-2.19-2.32-.64-3.61-1.29-3.09c-2.83-2.19-9.15-.9-9.15-.9l-2.19.9-3.86-4.12,3.22-3.61-.13-5.28c-2.83-3.99-.52-5.15-.52-5.15l2.58-1.03-1.16-3.09,5.54-2.96,7.86-8.76.95-3.22v-4.38l-.95.77-1.67.64h-1.42v-3.74l-5.8-5.54-4.25-1.55-.13-4.38h.77v-3.35h-2.96v-1.93c-.39-4.38-5.67-4.77-5.67-4.77-2.96-.52-3.09-4.38-3.09-4.38v-6.44l-1.42-1.93h-5.28l-1.29-.39-4.9-3.48-2.58-3.22v-4.77c-3.09-4.12-4.51,2.83-4.51,2.83l-4.51.64v-1.03l-1.42-1.55-1.93-1.16-5.54-3.86-.64-2.06-3.48-3.99c-1.16-5.67-3.22-.9-3.22-.9l-2.71,3.74.26,8.89c1.42,4.51,0,5.54,0,5.54l-2.71,3.86v2.45l-4.64,4.77v2.32l-1.76.73c-11.17,8.07-13.05-4.29-16.66-6.18-3.61-1.89-5.67,0-5.67,0l-4.81,1.03c-4.62,6-8.95,1.25-9.81.2l-3.59,3.92c-1.03,5.33-4.81,7.04-4.81,7.04h-4.81l-1.2,1.2h-5.5l-4.98,7.04h-2.06l-2.4,2.4c3.61,4.12,0,4.98,0,4.98l-3.61,2.23s-.38,1.57-1.14,2.32c0,0,4.57,4.89,7.83,6.78,3.26,1.89,4.98,2.75,3.78,8.42s3.61,5.33,4.64,16.66c0,0,.52,4.64,3.61,6.87,3.09,2.23,2.23,8.42,11.08,7.9l5.93.03v2.89h5.33v3.44h6.53l2.58,4.12h4.47v7.39s5.33-.69,5.33,6.01c0,0,3.44,2.06,2.58,7.21-.86,5.15-3.44,8.42,1.37,9.96,4.79,1.54-5.15,9.51.36,13.77.04.03.07.06.07.06,3.61-.64,5.67,4.25,5.67,4.25,0,0,.52,6.31,6.31,1.65,5.8-4.67,7.34,1.7,7.34,1.7l2.32.59,1.03,3.02-.9,2.32c0,3.09,2.32.64,2.32.64l3.86.13v-.9c2.83-2.71,4.77.13,4.77.13l2.19,4.9,6.83.13s2.19,1.29,4.38,3.35,6.57.52,6.57.52l5.67-3.48c1.03-5.02,2.96-4.51,2.96-4.51,5.41,0,8.63-8.53,8.63-8.53l5.02-.74c1.8-1.42,6.44.74,6.44.74,1.8,2.68,1.93,1.7,2.96,0s4.12,0,4.12,0l1.42,1.45,3.74.85.64,2.11c-1.67,2.71,0,6.18,0,6.18l1.67,1.67,2.32.26s.39,2.45,3.09,6.18c2.71,3.74,4.77,1.42,4.77,1.42l7.34-5.02,2.96-.77,5.8-.64,1.55-1.55,4.51-2.58c2.32-6.31,0-15.2,0-15.2Z"/>
  </g>
</svg>