<?xml version="1.0" encoding="UTF-8"?>
<svg id="_레이어_2" data-name="레이어 2" xmlns="http://www.w3.org/2000/svg" viewBox="0 0 109.81 80.28">
  <defs>
    <style>
      .cls-1 {
        fill: #fff;
        stroke: #07a59f;
        stroke-miterlimit: 10;
      }
    </style>
  </defs>
  <g id="Layer_5" data-name="Layer 5">
    <path class="cls-1" d="M106.32,30.43s-.86-1.2,1.55-5.15l-4.64-3.78-2.06-.86v-4.47h-2.23l-.69-5.15s-1.03-4.47-5.5-7.73l-3.95-1.03s-3.67-3.25-6.4-.91c-.28.24-.55.54-.81.91l-.52,3.99s-2.06,4.34-8.42,0c-6.36-4.34-13.08,0-13.08,0,0,0-1,11.64-10.62,10.26,0,0-6.53,4.98-9.62,3.78v3.78h-3.78l-2.5-1.16-6.26,4.08s-.34,6.7-6.53,1.89l-4.98,1.74-1.89,1.35h-6.01l.34,3.95h-2.58l-.86,4.47-2.23,2.06-.17,2.58.17,7.56s-3.61,4.47.17,4.64c0,0,1.89,3.95,5.67,0,0,0,1.72-2.92,3.09.17,0,0,8.07-2.06,3.44,3.95-4.64,6.01,6.53,4.98,4.47,12.37l1.37,2.75s.17.84.13,1.53c1.46.81,5.45,2.74,7.94,1.22,3.09-1.89,5.84-5.67,5.84-5.67v-1.55h5.15l.19-1.01.67-3.46s1.03-3.95,2.75-1.03h13.74l1.72-3.78h2.4s.52-7.21,3.78-3.44c3.26,3.78,3.09,5.5,3.09,5.5l.86,1.72h3.26s-.52,2.92,4.81-.34l3.78-.34s5.15.52,5.67-2.58c.52-3.09-.69-6.7-.69-6.7,0,0,2.23-6.53,8.25-2.4,6.01,4.12,7.9-5.5,7.9-5.5v-2.92s7.04-3.95,5.67-9.79c0,0,5.33-3.09-.86-5.5Z"/>
  </g>
</svg>