<?xml version="1.0" encoding="UTF-8"?>
<svg id="_레이어_2" data-name="레이어 2" xmlns="http://www.w3.org/2000/svg" viewBox="0 0 112.09 146.35">
  <defs>
    <style>
      .cls-1 {
        fill: #fff;
        stroke: #07a59f;
        stroke-miterlimit: 10;
      }
    </style>
  </defs>
  <g id="Layer_5" data-name="Layer 5">
    <path class="cls-1" d="M110.24,89.44c-4.81-1.55-2.23-4.81-1.37-9.96.86-5.15-2.58-7.21-2.58-7.21,0-6.7-5.33-6.01-5.33-6.01v-7.39h-4.47l-2.58-4.12h-6.53v-3.44h-5.33v-2.89l-5.93-.03c-8.85.52-7.99-5.67-11.08-7.9-3.09-2.23-3.61-6.87-3.61-6.87-1.03-11.34-5.84-10.99-4.64-16.66s-.52-6.53-3.78-8.42c-3.26-1.89-7.83-6.78-7.83-6.78-.49.49-1.14.62-1.96-.26-2.06-2.23-5.33,0-5.33,0l-4.98,5.15-.86,2.06-2.58.69-3.44,3.66-5.84,1.15c-1.55-2.58-3.44,0-3.44,0h-3.61l-1.2,1.55h-6.01l-4.29,4.63-1.07.38s.72,2.54,4.5,2.54,9.96,6.7,2.23,10.82c0,0-1.83,2.92-1.52,6.53.31,3.61-2.95,3.26-2.95,3.26l-.34,4.98s1.55.86,4.47-1.2c2.92-2.06,6.03,2.06,4.05,4.81l1.97,2.23v2.06l1.55,1.89v7.73s3.78,2.46,0,4.67v2.55l.52,3.26c2.23,0,7.21,5.84,7.21,5.84,0,0,10.99-2.46,12.37,8.39l1.37,2.09,3.61,2.4v2.92l3.95,3.44s-.69,2.75.86,6.01c1.55,3.26,0,8.76,0,8.76v7.39s-8.42,9.62.69,8.93c0,0,4.98-5.67,7.73-1.37,2.75,4.29,7.73-6.36,14.6,3.44l.86,3.26s-1.2,2.68,7.82,7.35h0c.16-.14.26-.22.26-.22,2.19-7.21,7.47-5.93,7.47-5.93v-3.61l1.67-.9,5.67-6.06,2.58-3.61c-3.99-4.25.77-9.53.77-9.53l.64-1.8,2.32-2.63,3.74-.85c5.79-9.57,8.87-7.77,9.34-7.4-5.51-4.27,4.43-12.23-.36-13.77Z"/>
  </g>
</svg>