<?xml version="1.0" encoding="UTF-8"?>
<svg id="_레이어_2" data-name="레이어 2" xmlns="http://www.w3.org/2000/svg" viewBox="0 0 53.98 57.81">
  <defs>
    <style>
      .cls-1 {
        fill: #fff;
        stroke: #07a59f;
        stroke-miterlimit: 10;
      }
    </style>
  </defs>
  <g id="Layer_5" data-name="Layer 5">
    <path class="cls-1" d="M52.64,26.84l-1.2-4.64-2.06-3.78v-3.61l-2.58-3.78.69-6.01c-.29-.09-.57-.2-.86-.34,0,0-3.95.17-3.95-2.58l-5.06-.34-.96-1.03-4.32,4.59-.83,3.14-1.22,2.06-4.62,4.47v1.37l-2.4,1.2v3.95h-2.06l.64,4.17s4.9,5.8-2.45,9.79c-.5.27-.98.51-1.43.72h0c1.79,2.27-1.02,3.4-1.02,3.4-5.67,4.77-3.86,1.67-6.57,4.25-1.81,1.73-4.25,1.49-5.67,1.14l.86.41v11.6c5.17,1.03,6.53-.77,6.53-.77l8.59-11.17,5.15,5.67c3.44,3.61,3.61-1.89,3.61-1.89h1l3.64-2.58h3.53c4.05-1.03,2.99-5.84,2.99-5.84l2.92-1.89h3.26s3.95-2.92,5.84-5.33c1.89-2.4,0-6.36,0-6.36Z"/>
  </g>
</svg>