<?xml version="1.0" encoding="UTF-8"?>
<svg id="_레이어_2" data-name="레이어 2" xmlns="http://www.w3.org/2000/svg" viewBox="0 0 57.98 51.71">
  <defs>
    <style>
      .cls-1 {
        fill: #fff;
        stroke: #07a59f;
        stroke-miterlimit: 10;
      }
    </style>
  </defs>
  <g id="Layer_5" data-name="Layer 5">
    <path class="cls-1" d="M51.55,3.42c-3.78,0-4.5-2.54-4.5-2.54l-1.34.48c-7.39-3.26-9.62,3.78-9.62,3.78,0,0,1.55,3.26-1.89,3.44-3.44.17-6.36,4.12-6.36,4.12l-1.89,3.44-2.61.86-2.89,2.58h-2.4l-1.89,1.89h-4.64l-3.95,4.64.69,1.37-1.37,1.2-1.55,3.95-2.75.86-.17,5.5-1.2,1.37-.09.63-.6,4.35,2.92,2.75s.5.81,1.19,1.61c1.07,1.24,2.61,2.44,3.45.45,1.37-3.26,4.64-2.23,4.64-2.23h3.44v-3.95l2.4-1.2v-1.37l4.62-4.47,1.22-2.06.83-3.14,4.32-4.59.96,1.03,5.06.34c0,2.75,3.95,2.58,3.95,2.58.29.14.57.25.86.34,4.35,1.38,8.59-2.4,8.59-2.4l.34-4.98s3.26.34,2.95-3.26c-.31-3.61,1.52-6.53,1.52-6.53,7.73-4.12,1.55-10.82-2.23-10.82Z"/>
  </g>
</svg>