<?xml version="1.0" encoding="UTF-8"?>
<svg id="_레이어_2" data-name="레이어 2" xmlns="http://www.w3.org/2000/svg" viewBox="0 0 67.21 81.95">
  <defs>
    <style>
      .cls-1 {
        fill: #fff;
        stroke: #07a59f;
        stroke-miterlimit: 10;
      }
    </style>
  </defs>
  <g id="Layer_5" data-name="Layer 5">
    <path class="cls-1" d="M65.03,19.78v-7.73l-1.55-1.89v-2.06l-1.97-2.23c1.98-2.75-1.13-6.87-4.05-4.81-2.92,2.06-4.47,1.2-4.47,1.2,0,0-4.23,3.78-8.59,2.4l-.69,6.01,2.58,3.78v3.61l2.06,3.78,1.2,4.64s1.89,3.95,0,6.36c-1.89,2.4-5.84,5.33-5.84,5.33h-3.26l-2.92,1.89s1.05,4.81-2.99,5.84h-3.53l-3.64,2.58h-1s-.17,5.5-3.61,1.89l-5.15-5.67-8.59,11.17s-1.36,1.81-6.53.77v9.7l-1.89,3.44,3.26,3.61v6.18l-1.12.73,2.5,1.16h3.78v-3.78c3.09,1.2,9.62-3.78,9.62-3.78,9.62,1.37,10.62-10.26,10.62-10.26,0,0,6.73-4.34,13.08,0,6.36,4.34,8.42,0,8.42,0l.52-3.99c.26-.37.53-.67.81-.91,0,0-.98-2.18,2.11-4.41,3.09-2.23.34-8.42,7.39-12.54l.86-7.21s.86-4.29,3.09-4.29l-.52-3.26v-2.55c3.78-2.21,0-4.67,0-4.67Z"/>
  </g>
</svg>