<?xml version="1.0" encoding="UTF-8"?>
<svg id="_레이어_2" data-name="레이어 2" xmlns="http://www.w3.org/2000/svg" viewBox="0 0 79.95 72.66">
  <defs>
    <style>
      .cls-1, .cls-2, .cls-3, .cls-4, .cls-5, .cls-6 {
        fill: none;
        stroke: #07a59f;
        stroke-linecap: round;
        stroke-linejoin: round;
      }

      .cls-2 {
        stroke-dasharray: .5 1.99;
      }

      .cls-3 {
        stroke-dasharray: .49 1.97;
      }

      .cls-4 {
        stroke-dasharray: .49 1.95;
      }

      .cls-5 {
        stroke-dasharray: .51 2.05;
      }

      .cls-6 {
        stroke-dasharray: .52 2.08;
      }
    </style>
  </defs>
  <g id="Layer_6" data-name="Layer 6">
    <g>
      <g>
        <line class="cls-1" x1="56.13" y1=".52" x2="56.38" y2=".52"/>
        <line class="cls-3" x1="58.34" y1=".52" x2="67.19" y2=".5"/>
        <polyline class="cls-1" points="68.18 .5 68.43 .5 68.58 .7"/>
        <line class="cls-6" x1="69.84" y1="2.36" x2="78.67" y2="13.96"/>
        <line class="cls-1" x1="79.3" y1="14.79" x2="79.45" y2="14.99"/>
      </g>
      <g>
        <line class="cls-1" x1="12.28" y1="20.63" x2="12.53" y2="20.63"/>
        <line class="cls-3" x1="14.49" y1="20.62" x2="23.34" y2="20.61"/>
        <polyline class="cls-1" points="24.32 20.61 24.57 20.61 24.73 20.81"/>
        <line class="cls-6" x1="25.99" y1="22.46" x2="34.81" y2="34.07"/>
        <line class="cls-1" x1="35.44" y1="34.9" x2="35.6" y2="35.1"/>
      </g>
      <g>
        <line class="cls-1" x1="12.28" y1="37.86" x2="12.53" y2="37.86"/>
        <line class="cls-3" x1="14.49" y1="37.86" x2="23.34" y2="37.84"/>
        <polyline class="cls-1" points="24.32 37.84 24.57 37.84 24.73 38.04"/>
        <line class="cls-6" x1="25.99" y1="39.7" x2="34.81" y2="51.3"/>
        <line class="cls-1" x1="35.44" y1="52.13" x2="35.6" y2="52.33"/>
      </g>
      <g>
        <line class="cls-1" x1="9.21" y1="62.37" x2="9.46" y2="62.37"/>
        <polyline class="cls-5" points="11.51 62.37 21.51 62.35 43.71 61.39"/>
        <line class="cls-1" x1="44.73" y1="61.34" x2="44.98" y2="61.33"/>
      </g>
      <g>
        <line class="cls-1" x1="4.79" y1="72.16" x2="5.04" y2="72.16"/>
        <polyline class="cls-4" points="6.99 72.16 17.09 72.14 37.27 68.08"/>
        <line class="cls-1" x1="38.22" y1="67.89" x2="38.47" y2="67.84"/>
      </g>
      <g>
        <line class="cls-1" x1=".5" y1="49.64" x2=".75" y2="49.64"/>
        <polyline class="cls-2" points="2.74 49.63 12.8 49.62 26.16 52.96"/>
        <line class="cls-1" x1="27.12" y1="53.21" x2="27.36" y2="53.27"/>
      </g>
    </g>
  </g>
</svg>