<?xml version="1.0" encoding="UTF-8"?>
<svg id="_레이어_2" data-name="레이어 2" xmlns="http://www.w3.org/2000/svg" viewBox="0 0 344.3 422.86">
  <defs>
    <style>
      .cls-1, .cls-2, .cls-3, .cls-4, .cls-5, .cls-6, .cls-7 {
        stroke: #07a59f;
      }

      .cls-1, .cls-2, .cls-3, .cls-4, .cls-6, .cls-7 {
        fill: none;
        stroke-linecap: round;
        stroke-linejoin: round;
      }

      .cls-2 {
        stroke-dasharray: .5 1.99;
      }

      .cls-3 {
        stroke-dasharray: .49 1.97;
      }

      .cls-4 {
        stroke-dasharray: .49 1.95;
      }

      .cls-5 {
        fill: #fff;
        stroke-miterlimit: 10;
      }

      .cls-6 {
        stroke-dasharray: .51 2.05;
      }

      .cls-7 {
        stroke-dasharray: .52 2.08;
      }
    </style>
  </defs>
  <g id="Layer_6" data-name="Layer 6">
    <g>
      <g>
        <path class="cls-5" d="M214.45,162.38s-.02-.02-.07-.06c.02.02.04.04.07.06Z"/>
        <path class="cls-5" d="M72.1,131.08l-.64-4.17h-1.37s-3.26-1.03-4.64,2.23c-.84,1.99-2.37.79-3.45-.45l-4.11,6.26s-.56,2.48-4.08,2.79c-.28.02-.58.04-.9.03l-3.67.35,3.67,2.36v1.16c3.48-2.83,7.09.39,7.09.39,0,0,2.02,2.46,8.23-.44.45-.21.93-.45,1.43-.72,7.34-3.99,2.45-9.79,2.45-9.79Z"/>
        <path class="cls-5" d="M52.9,130.95l-1.4-2.25.76-1.78-.76-4.27-3.88.32-4.59-.87h0c-.2,1.07-.93,3.21-3.53,4.82-3.61,2.23,6.18,8.93,6.18,8.93l3.55,2.28,3.67-.35c.32,0,.62,0,.9-.03v-3.45l-.9-3.35Z"/>
        <path class="cls-5" d="M68.22,141.59h0c-6.22,2.9-8.23.44-8.23.44,0,0-3.61-3.22-7.09-.39v7.77l2.06.97c1.42.35,3.86.59,5.67-1.14,2.71-2.58.9.52,6.57-4.25,0,0,2.81-1.13,1.02-3.4Z"/>
        <path class="cls-5" d="M60.8,127.08l-2.92-2.75.6-4.35c-2.92-1.04-5.58,2.54-5.58,2.54l-1.4.12.76,4.27-.76,1.78,1.4,2.25.9,3.35v3.45c3.52-.3,4.08-2.79,4.08-2.79l4.11-6.26c-.69-.8-1.19-1.61-1.19-1.61Z"/>
        <path class="cls-5" d="M108.9,82.42c-3.78,0-4.5-2.54-4.5-2.54l-1.34.48c-7.39-3.26-9.62,3.78-9.62,3.78,0,0,1.55,3.26-1.89,3.44-3.44.17-6.36,4.12-6.36,4.12l-1.89,3.44-2.61.86-2.89,2.58h-2.4l-1.89,1.89h-4.64l-3.95,4.64.69,1.37-1.37,1.2-1.55,3.95-2.75.86-.17,5.5-1.2,1.37-.09.63-.6,4.35,2.92,2.75s.5.81,1.19,1.61c1.07,1.24,2.61,2.44,3.45.45,1.37-3.26,4.64-2.23,4.64-2.23h3.44v-3.95l2.4-1.2v-1.37l4.62-4.47,1.22-2.06.83-3.14,4.32-4.59.96,1.03,5.06.34c0,2.75,3.95,2.58,3.95,2.58.29.14.57.25.86.34,4.35,1.38,8.59-2.4,8.59-2.4l.34-4.98s3.26.34,2.95-3.26c-.31-3.61,1.52-6.53,1.52-6.53,7.73-4.12,1.55-10.82-2.23-10.82Z"/>
        <path class="cls-5" d="M64.92,105.1l-4.47,1.89s.34,1.72-4.47,1.37c-4.81-.34-5.5,1.2-5.5,1.2l-4.12.84c-1.55.67-2.58,2.08-6.25.34l.58,1.05,1.2,6.7,1.2,2.92s0,.26-.08.68h0s4.59.87,4.59.87l3.88-.32,1.4-.12s2.66-3.58,5.58-2.54l.09-.63,1.2-1.37.17-5.5,2.75-.86,1.55-3.95,1.37-1.2-.69-1.37Z"/>
        <path class="cls-5" d="M102.89,132.24l-1.2-4.64-2.06-3.78v-3.61l-2.58-3.78.69-6.01c-.29-.09-.57-.2-.86-.34,0,0-3.95.17-3.95-2.58l-5.06-.34-.96-1.03-4.32,4.59-.83,3.14-1.22,2.06-4.62,4.47v1.37l-2.4,1.2v3.95h-2.06l.64,4.17s4.9,5.8-2.45,9.79c-.5.27-.98.51-1.43.72h0c1.79,2.27-1.02,3.4-1.02,3.4-5.67,4.77-3.86,1.67-6.57,4.25-1.81,1.73-4.25,1.49-5.67,1.14l.86.41v11.6c5.17,1.03,6.53-.77,6.53-.77l8.59-11.17,5.15,5.67c3.44,3.61,3.61-1.89,3.61-1.89h1l3.64-2.58h3.53c4.05-1.03,2.99-5.84,2.99-5.84l2.92-1.89h3.26s3.95-2.92,5.84-5.33c1.89-2.4,0-6.36,0-6.36Z"/>
        <path class="cls-5" d="M118.35,125.54v-7.73l-1.55-1.89v-2.06l-1.97-2.23c1.98-2.75-1.13-6.87-4.05-4.81-2.92,2.06-4.47,1.2-4.47,1.2,0,0-4.23,3.78-8.59,2.4l-.69,6.01,2.58,3.78v3.61l2.06,3.78,1.2,4.64s1.89,3.95,0,6.36c-1.89,2.4-5.84,5.33-5.84,5.33h-3.26l-2.92,1.89s1.05,4.81-2.99,5.84h-3.53l-3.64,2.58h-1s-.17,5.5-3.61,1.89l-5.15-5.67-8.59,11.17s-1.36,1.81-6.53.77v9.7l-1.89,3.44,3.26,3.61v6.18l-1.12.73,2.5,1.16h3.78v-3.78c3.09,1.2,9.62-3.78,9.62-3.78,9.62,1.37,10.62-10.26,10.62-10.26,0,0,6.73-4.34,13.08,0,6.36,4.34,8.42,0,8.42,0l.52-3.99c.26-.37.53-.67.81-.91,0,0-.98-2.18,2.11-4.41,3.09-2.23.34-8.42,7.39-12.54l.86-7.21s.86-4.29,3.09-4.29l-.52-3.26v-2.55c3.78-2.21,0-4.67,0-4.67Z"/>
        <path class="cls-5" d="M342.77,162.64l-4.25-6.31c-1.29-7.47-15.33-15.07-15.33-15.07v-1.8h-1.29v-3.35l-4.77-3.61v-4.77h-4.9v-.9l-.64-3.48c-2.83-.77-1.16-4.25-1.16-4.25,0,0,2.06-3.86-1.42-2.06-3.48,1.8-3.99,0-3.99,0l-2.32-2.32-1.93-.77-2.32-1.42-2.19-2.32-.64-3.61-1.29-3.09c-2.83-2.19-9.15-.9-9.15-.9l-2.19.9-3.86-4.12,3.22-3.61-.13-5.28c-2.83-3.99-.52-5.15-.52-5.15l2.58-1.03-1.16-3.09,5.54-2.96,7.86-8.76.95-3.22v-4.38l-.95.77-1.67.64h-1.42v-3.74l-5.8-5.54-4.25-1.55-.13-4.38h.77v-3.35h-2.96v-1.93c-.39-4.38-5.67-4.77-5.67-4.77-2.96-.52-3.09-4.38-3.09-4.38v-6.44l-1.42-1.93h-5.28l-1.29-.39-4.9-3.48-2.58-3.22v-4.77c-3.09-4.12-4.51,2.83-4.51,2.83l-4.51.64v-1.03l-1.42-1.55-1.93-1.16-5.54-3.86-.64-2.06-3.48-3.99c-1.16-5.67-3.22-.9-3.22-.9l-2.71,3.74.26,8.89c1.42,4.51,0,5.54,0,5.54l-2.71,3.86v2.45l-4.64,4.77v2.32l-1.76.73c-11.17,8.07-13.05-4.29-16.66-6.18-3.61-1.89-5.67,0-5.67,0l-4.81,1.03c-4.62,6-8.95,1.25-9.81.2l-3.59,3.92c-1.03,5.33-4.81,7.04-4.81,7.04h-4.81l-1.2,1.2h-5.5l-4.98,7.04h-2.06l-2.4,2.4c3.61,4.12,0,4.98,0,4.98l-3.61,2.23s-.38,1.57-1.14,2.32c0,0,4.57,4.89,7.83,6.78,3.26,1.89,4.98,2.75,3.78,8.42s3.61,5.33,4.64,16.66c0,0,.52,4.64,3.61,6.87,3.09,2.23,2.23,8.42,11.08,7.9l5.93.03v2.89h5.33v3.44h6.53l2.58,4.12h4.47v7.39s5.33-.69,5.33,6.01c0,0,3.44,2.06,2.58,7.21-.86,5.15-3.44,8.42,1.37,9.96,4.79,1.54-5.15,9.51.36,13.77.04.03.07.06.07.06,3.61-.64,5.67,4.25,5.67,4.25,0,0,.52,6.31,6.31,1.65,5.8-4.67,7.34,1.7,7.34,1.7l2.32.59,1.03,3.02-.9,2.32c0,3.09,2.32.64,2.32.64l3.86.13v-.9c2.83-2.71,4.77.13,4.77.13l2.19,4.9,6.83.13s2.19,1.29,4.38,3.35,6.57.52,6.57.52l5.67-3.48c1.03-5.02,2.96-4.51,2.96-4.51,5.41,0,8.63-8.53,8.63-8.53l5.02-.74c1.8-1.42,6.44.74,6.44.74,1.8,2.68,1.93,1.7,2.96,0s4.12,0,4.12,0l1.42,1.45,3.74.85.64,2.11c-1.67,2.71,0,6.18,0,6.18l1.67,1.67,2.32.26s.39,2.45,3.09,6.18c2.71,3.74,4.77,1.42,4.77,1.42l7.34-5.02,2.96-.77,5.8-.64,1.55-1.55,4.51-2.58c2.32-6.31,0-15.2,0-15.2Z"/>
        <path class="cls-5" d="M177.87,216.36c-4.58-5.03.8-10.37,2.06-11.5h0c-9.02-4.67-7.82-7.35-7.82-7.35l-.86-3.26c-6.87-9.79-11.85.86-14.6-3.44-2.75-4.29-7.73,1.37-7.73,1.37-9.1.69-.69-8.93-.69-8.93v-7.39s1.55-5.5,0-8.76c-1.55-3.26-.86-6.01-.86-6.01l-3.95-3.44v-2.92l-3.61-2.4-1.37-2.09c-1.37-10.85-12.37-8.39-12.37-8.39,0,0-4.98-5.84-7.21-5.84s-3.09,4.29-3.09,4.29l-.86,7.21c-7.04,4.12-4.29,10.31-7.39,12.54-3.09,2.23-2.11,4.41-2.11,4.41,2.73-2.34,6.4.91,6.4.91l3.95,1.03c4.47,3.26,5.5,7.73,5.5,7.73l.69,5.15h2.23v4.47l2.06.86,4.64,3.78c-2.4,3.95-1.55,5.15-1.55,5.15,6.18,2.4.86,5.5.86,5.5,1.37,5.84-5.67,9.79-5.67,9.79v2.92s-1.89,9.62-7.9,5.5c-6.01-4.12-8.25,2.4-8.25,2.4,0,0,1.2,3.61.69,6.7-.52,3.09-5.67,2.58-5.67,2.58l-3.78.34c-5.33,3.26-4.81.34-4.81.34h-3.26l-.86-1.72s.17-1.72-3.09-5.5c-3.26-3.78-3.78,3.44-3.78,3.44h-2.4l-1.72,3.78h-13.74c-1.72-2.92-2.75,1.03-2.75,1.03l-.67,3.46c3.59,3.53,3.93,6.85,3.93,6.85-.34,5.84-2.92,4.98-2.92,4.98l.34,5.33-.69,1.37-.86,10.13,2.06.34,1.03,3.26,3.09,3.95s-1.89,5.67,3.61,3.61c5.5-2.06,5.84,1.2,5.84,1.2l6.01.86v-1.2l2.58-1.55,1.03-1.58,2.75-2.71c3.78-2.06,6.7-.17,6.7-.17v1.72l1.89,1.16c2.58-3.47,4.98,0,4.98,0,0,0,1.8-4.94,7.47-1.08,5.67,3.86,9.28-3.61,11.59-7.47,1.15-1.92,3.45-2.5,5.47-2.61.94-1.68,3.04-2.8,3.04-2.8,2.19-4.77,8.76-5.02,8.76-5.02l3.48-.9.13-5.67h3.61l1.8-1.6,2.32-.2c5.8,1.16,6.44-3.09,6.44-3.09,0,0,2.71-.26,3.22-1.42.52-1.16,3.74-3.22,5.02-1.8,1.29,1.42,3.35,0,3.35,0l8.63-5.54.9-4.9c4.12-3.61,3.86-5.54-1.29-11.21Z"/>
        <path class="cls-5" d="M214.03,148.56c-4.81-1.55-2.23-4.81-1.37-9.96.86-5.15-2.58-7.21-2.58-7.21,0-6.7-5.33-6.01-5.33-6.01v-7.39h-4.47l-2.58-4.12h-6.53v-3.44h-5.33v-2.89l-5.93-.03c-8.85.52-7.99-5.67-11.08-7.9-3.09-2.23-3.61-6.87-3.61-6.87-1.03-11.34-5.84-10.99-4.64-16.66s-.52-6.53-3.78-8.42c-3.26-1.89-7.83-6.78-7.83-6.78-.49.49-1.14.62-1.96-.26-2.06-2.23-5.33,0-5.33,0l-4.98,5.15-.86,2.06-2.58.69-3.44,3.66-5.84,1.15c-1.55-2.58-3.44,0-3.44,0h-3.61l-1.2,1.55h-6.01l-4.29,4.63-1.07.38s.72,2.54,4.5,2.54,9.96,6.7,2.23,10.82c0,0-1.83,2.92-1.52,6.53.31,3.61-2.95,3.26-2.95,3.26l-.34,4.98s1.55.86,4.47-1.2c2.92-2.06,6.03,2.06,4.05,4.81l1.97,2.23v2.06l1.55,1.89v7.73s3.78,2.46,0,4.67v2.55l.52,3.26c2.23,0,7.21,5.84,7.21,5.84,0,0,10.99-2.46,12.37,8.39l1.37,2.09,3.61,2.4v2.92l3.95,3.44s-.69,2.75.86,6.01c1.55,3.26,0,8.76,0,8.76v7.39s-8.42,9.62.69,8.93c0,0,4.98-5.67,7.73-1.37,2.75,4.29,7.73-6.36,14.6,3.44l.86,3.26s-1.2,2.68,7.82,7.35h0c.16-.14.26-.22.26-.22,2.19-7.21,7.47-5.93,7.47-5.93v-3.61l1.67-.9,5.67-6.06,2.58-3.61c-3.99-4.25.77-9.53.77-9.53l.64-1.8,2.32-2.63,3.74-.85c5.79-9.57,8.87-7.77,9.34-7.4-5.51-4.27,4.43-12.23-.36-13.77Z"/>
        <path class="cls-5" d="M138.96,312.73l-3.48-2.71-.64-3.74c-5.02-7.21,1.16-15.33,1.16-15.33l.39-11.59-3.48-4.51-.9-4.25-1.42-4.9c-2.91-1.9-2.94-3.75-2.14-5.18-2.02.1-4.31.69-5.47,2.61-2.32,3.86-5.93,11.34-11.59,7.47-5.67-3.86-7.47,1.08-7.47,1.08,0,0-2.4-3.47-4.98,0l-1.89-1.16v-1.72s-2.92-1.89-6.7.17l-2.75,2.71-1.03,1.58-2.58,1.55v1.2l-6.01-.86s-.34-3.26-5.84-1.2c-5.5,2.06-3.61-3.61-3.61-3.61l-3.09-3.95-1.03-3.26-2.06-.34.86-10.13.69-1.37-.34-5.33s2.58.86,2.92-4.98c0,0-.34-3.31-3.93-6.85l-.19,1.01h-5.15v1.55s-2.75,3.78-5.84,5.67c-2.49,1.52-6.49-.41-7.94-1.22-.06,1-.58,1.69-2.71-.84-3.61-4.29-3.44.69-10.65,2.92l-4.29,2.58h-3.26s-7.39-12.02-13.05-7.21l-3.26.52-2.92-2.23-.34,5.67.17,4.12h3.95s3.09,4.47,1.72,8.42l2.23,2.92-.34,4.81,1.03,2.4-.52,3.78s-2.92,2.58-1.2,4.47c1.72,1.89-3.09,7.04-9.28,8.59l-.17,2.4,3.26,7.21,1.37,3.44-.34,5.15h3.26s4.47-1.2,5.5,5.5l1.55,2.23,3.09,1.03,5.84,3.09.69,1.03,8.42,1.2,1.03,11.85,3.63,4.66c4.43.09,6.66,4.6,1.18,13.47-7.73,12.5-2.58,14.56-2.58,14.56,11.47,12.37,21.9-4.77,25.12,1.16,3.22,5.93,2.06,5.93-9.02,17.52-11.08,11.59,1.93,25.51,1.93,25.51v2.71l1.03.9v6.06l3.35,6.18c9.53,8.76,13.01.64,15.98-20.87,2.96-21.51,31.95-25.77,31.95-25.77l.26-5.15,2.32-2.71,1.16-3.22h1.8l.26-1.29,2.06-3.61.39-2.83.9-2.96c-1.8-3.74,2.45-6.44,2.45-6.44v-6.18h2.06l1.16-1.67.26-2.32,2.58-4.12.9-1.8,3.86-2.45c-1.67-4.51,6.57-6.83,6.57-6.83l3.09-3.74c4.12-.13.13-2.19.13-2.19Z"/>
        <path class="cls-5" d="M129.34,193.56s-.86-1.2,1.55-5.15l-4.64-3.78-2.06-.86v-4.47h-2.23l-.69-5.15s-1.03-4.47-5.5-7.73l-3.95-1.03s-3.67-3.25-6.4-.91c-.28.24-.55.54-.81.91l-.52,3.99s-2.06,4.34-8.42,0c-6.36-4.34-13.08,0-13.08,0,0,0-1,11.64-10.62,10.26,0,0-6.53,4.98-9.62,3.78v3.78h-3.78l-2.5-1.16-6.26,4.08s-.34,6.7-6.53,1.89l-4.98,1.74-1.89,1.35h-6.01l.34,3.95h-2.58l-.86,4.47-2.23,2.06-.17,2.58.17,7.56s-3.61,4.47.17,4.64c0,0,1.89,3.95,5.67,0,0,0,1.72-2.92,3.09.17,0,0,8.07-2.06,3.44,3.95-4.64,6.01,6.53,4.98,4.47,12.37l1.37,2.75s.17.84.13,1.53c1.46.81,5.45,2.74,7.94,1.22,3.09-1.89,5.84-5.67,5.84-5.67v-1.55h5.15l.19-1.01.67-3.46s1.03-3.95,2.75-1.03h13.74l1.72-3.78h2.4s.52-7.21,3.78-3.44c3.26,3.78,3.09,5.5,3.09,5.5l.86,1.72h3.26s-.52,2.92,4.81-.34l3.78-.34s5.15.52,5.67-2.58c.52-3.09-.69-6.7-.69-6.7,0,0,2.23-6.53,8.25-2.4,6.01,4.12,7.9-5.5,7.9-5.5v-2.92s7.04-3.95,5.67-9.79c0,0,5.33-3.09-.86-5.5Z"/>
      </g>
      <g>
        <line class="cls-1" x1="74.8" y1="78.01" x2="75.05" y2="78.01"/>
        <line class="cls-3" x1="77.02" y1="78.01" x2="85.87" y2="78"/>
        <polyline class="cls-1" points="86.85 77.99 87.1 77.99 87.25 78.19"/>
        <line class="cls-7" x1="88.51" y1="79.85" x2="97.34" y2="91.45"/>
        <line class="cls-1" x1="97.97" y1="92.28" x2="98.12" y2="92.48"/>
      </g>
      <g>
        <line class="cls-1" x1="30.95" y1="98.12" x2="31.2" y2="98.12"/>
        <line class="cls-3" x1="33.17" y1="98.12" x2="42.02" y2="98.1"/>
        <polyline class="cls-1" points="43 98.1 43.25 98.1 43.4 98.3"/>
        <line class="cls-7" x1="44.66" y1="99.96" x2="53.49" y2="111.56"/>
        <line class="cls-1" x1="54.12" y1="112.39" x2="54.27" y2="112.59"/>
      </g>
      <g>
        <line class="cls-1" x1="30.95" y1="115.35" x2="31.2" y2="115.35"/>
        <line class="cls-3" x1="33.17" y1="115.35" x2="42.02" y2="115.34"/>
        <polyline class="cls-1" points="43 115.33 43.25 115.33 43.4 115.53"/>
        <line class="cls-7" x1="44.66" y1="117.19" x2="53.49" y2="128.8"/>
        <line class="cls-1" x1="54.12" y1="129.62" x2="54.27" y2="129.82"/>
      </g>
      <g>
        <line class="cls-1" x1="27.89" y1="139.87" x2="28.14" y2="139.87"/>
        <polyline class="cls-6" points="30.18 139.86 40.18 139.84 62.38 138.88"/>
        <line class="cls-1" x1="63.4" y1="138.83" x2="63.65" y2="138.82"/>
      </g>
      <g>
        <line class="cls-1" x1="23.46" y1="149.65" x2="23.71" y2="149.65"/>
        <polyline class="cls-4" points="25.66 149.65 35.76 149.63 55.94 145.57"/>
        <line class="cls-1" x1="56.9" y1="145.38" x2="57.14" y2="145.33"/>
      </g>
      <g>
        <line class="cls-1" x1="19.17" y1="127.13" x2="19.42" y2="127.13"/>
        <polyline class="cls-2" points="21.41 127.13 31.47 127.11 44.83 130.46"/>
        <line class="cls-1" x1="45.79" y1="130.7" x2="46.04" y2="130.76"/>
      </g>
    </g>
  </g>
</svg>