<?xml version="1.0" encoding="UTF-8"?>
<svg id="_레이어_2" data-name="레이어 2" xmlns="http://www.w3.org/2000/svg" viewBox="0 0 138.97 170.54">
  <defs>
    <style>
      .cls-1 {
        fill: #fff;
        stroke: #07a59f;
        stroke-miterlimit: 10;
      }
    </style>
  </defs>
  <g id="Layer_4" data-name="Layer 4">
    <path class="cls-1" d="M138.06,65.66l-1.71-2.54c-.52-3-6.16-6.06-6.16-6.06v-.72h-.52v-1.35l-1.92-1.45v-1.92h-1.97v-.36l-.26-1.4c-1.14-.31-.47-1.71-.47-1.71,0,0,.83-1.55-.57-.83-1.4.72-1.61,0-1.61,0l-.93-.93-.78-.31-.93-.57-.88-.93-.26-1.45-.52-1.24c-1.14-.88-3.68-.36-3.68-.36l-.88.36-1.55-1.66,1.29-1.45-.05-2.12c-1.14-1.61-.21-2.07-.21-2.07l1.04-.41-.47-1.24,2.23-1.19,3.16-3.52.38-1.29v-1.76l-.38.31-.67.26h-.57v-1.5l-2.33-2.23-1.71-.62-.05-1.76h.31v-1.35h-1.19v-.78c-.16-1.76-2.28-1.92-2.28-1.92-1.19-.21-1.24-1.76-1.24-1.76v-2.59l-.57-.78h-2.12l-.52-.16-1.97-1.4-1.04-1.29v-1.92c-1.24-1.66-1.81,1.14-1.81,1.14l-1.81.26v-.41l-.57-.62-.78-.47-2.23-1.55-.26-.83-1.4-1.61c-.47-2.28-1.29-.36-1.29-.36l-1.09,1.5.1,3.57c.57,1.81,0,2.23,0,2.23l-1.09,1.55v.98l-1.86,1.92v.93l-.71.29c-4.49,3.24-5.25-1.73-6.7-2.49-1.45-.76-2.28,0-2.28,0l-1.93.41c-1.86,2.41-3.6.5-3.94.08l-1.44,1.58c-.41,2.14-1.93,2.83-1.93,2.83h-1.93l-.48.48h-2.21l-2,2.83h-.83l-.97.97c1.45,1.66,0,2,0,2l-1.45.9s-.15.63-.46.93c-.2.2-.46.25-.79-.1-.83-.9-2.14,0-2.14,0l-2,2.07-.35.83-1.04.28-1.38,1.47-2.35.46c-.62-1.04-1.38,0-1.38,0h-1.45l-.48.62h-2.42l-1.73,1.86-.43.15-.54.19c-2.97-1.31-3.87,1.52-3.87,1.52,0,0,.62,1.31-.76,1.38-1.38.07-2.55,1.66-2.55,1.66l-.76,1.38-1.05.35-1.16,1.04h-.97l-.76.76h-1.86l-1.59,1.86-1.79.76s.14.69-1.79.55-2.21.48-2.21.48l-1.66.34c-.62.27-1.04.83-2.51.14l.23.42.48,2.69.48,1.17s0,.1-.03.27c-.08.43-.37,1.29-1.42,1.94-1.45.9,2.49,3.59,2.49,3.59l1.43.92,1.47.95v3.59l.83.39.35.16v8.56l-.76,1.38,1.31,1.45v2.49l-.45.29-2.52,1.64s-.14,2.69-2.62.76l-2,.7-.76.54h-2.42l.14,1.59h-1.04l-.35,1.79-.9.83-.07,1.04.07,3.04s-1.45,1.79.07,1.86c0,0,.76,1.59,2.28,0,0,0,.69-1.17,1.24.07,0,0,3.24-.83,1.38,1.59-1.86,2.42,2.62,2,1.79,4.97l.55,1.1s.07.34.05.61c-.03.4-.23.68-1.09-.34-1.45-1.73-1.38.28-4.28,1.17l-1.73,1.04h-1.31s-2.97-4.83-5.25-2.9l-1.31.21-1.17-.9-.14,2.28.07,1.66h1.59s1.24,1.79.69,3.38l.9,1.17-.14,1.93.41.97-.21,1.52s-1.17,1.04-.48,1.79c.69.76-1.24,2.83-3.73,3.45l-.07.97,1.31,2.9.55,1.38-.14,2.07h1.31s1.79-.48,2.21,2.21l.62.9,1.24.41,2.35,1.24.28.41,3.38.48.41,4.76,1.46,1.87c1.78.03,2.68,1.85.47,5.41-3.11,5.02-1.04,5.85-1.04,5.85,4.61,4.97,8.8-1.92,10.1.47,1.29,2.38.83,2.38-3.62,7.04-4.45,4.66.78,10.25.78,10.25v1.09l.41.36v2.43l1.35,2.49c3.83,3.52,5.23.26,6.42-8.39,1.19-8.65,12.84-10.36,12.84-10.36l.1-2.07.93-1.09.47-1.29h.72l.1-.52.83-1.45.16-1.14.36-1.19c-.72-1.5.98-2.59.98-2.59v-2.49h.83l.47-.67.1-.93,1.04-1.66.36-.72,1.55-.98c-.67-1.81,2.64-2.74,2.64-2.74l1.24-1.5c1.66-.05.05-.88.05-.88l-1.4-1.09-.26-1.5c-2.02-2.9.47-6.16.47-6.16l.16-4.66-1.4-1.81-.36-1.71-.57-1.97c-1.17-.76-1.18-1.51-.86-2.08.38-.68,1.22-1.13,1.22-1.13.88-1.92,3.52-2.02,3.52-2.02l1.4-.36.05-2.28h1.45l.72-.64.93-.08c2.33.47,2.59-1.24,2.59-1.24,0,0,1.09-.1,1.29-.57s1.5-1.29,2.02-.72,1.35,0,1.35,0l3.47-2.23.36-1.97c1.66-1.45,1.55-2.23-.52-4.5-1.84-2.02.32-4.17.83-4.62.06-.06.1-.09.1-.09.88-2.9,3-2.38,3-2.38v-1.45l.67-.36,2.28-2.43,1.04-1.45c-1.61-1.71.31-3.83.31-3.83l.26-.72.93-1.06,1.5-.34c2.33-3.85,3.56-3.12,3.75-2.97.02.01.03.02.03.02,1.45-.26,2.28,1.71,2.28,1.71,0,0,.21,2.54,2.54.66,2.33-1.88,2.95.68,2.95.68l.93.24.41,1.21-.36.93c0,1.24.93.26.93.26l1.55.05v-.36c1.14-1.09,1.92.05,1.92.05l.88,1.97,2.74.05s.88.52,1.76,1.35c.88.83,2.64.21,2.64.21l2.28-1.4c.41-2.02,1.19-1.81,1.19-1.81,2.17,0,3.47-3.43,3.47-3.43l2.02-.3c.72-.57,2.59.3,2.59.3.72,1.08.78.68,1.19,0,.41-.68,1.66,0,1.66,0l.57.58,1.5.34.26.85c-.67,1.09,0,2.49,0,2.49l.67.67.93.1s.16.98,1.24,2.49c1.09,1.5,1.92.57,1.92.57l2.95-2.02,1.19-.31,2.33-.26.62-.62,1.81-1.04c.93-2.54,0-6.11,0-6.11Z"/>
  </g>
</svg>