<?xml version="1.0" encoding="UTF-8"?>
<svg id="_레이어_2" data-name="레이어 2" xmlns="http://www.w3.org/2000/svg" viewBox="0 0 89.88 123.46">
  <defs>
    <style>
      .cls-1 {
        fill: #fff;
        stroke: #07a59f;
        stroke-miterlimit: 10;
      }
    </style>
  </defs>
  <g id="Layer_5" data-name="Layer 5">
    <path class="cls-1" d="M85.21,81.62l-1.03-11.85-8.42-1.2-.69-1.03-5.84-3.09-3.09-1.03-1.55-2.23c-1.03-6.7-5.5-5.5-5.5-5.5h-3.26l.34-5.15-1.37-3.44-3.26-7.21.17-2.4c6.18-1.55,10.99-6.7,9.28-8.59-1.72-1.89,1.2-4.47,1.2-4.47l.52-3.78-1.03-2.4.34-4.81-2.23-2.92c1.37-3.95-1.72-8.42-1.72-8.42h-3.95l-.04-.86-2.37,2.58v3.61l-1.03,3.01-4.47,4.72s-.69,1.55-2.58,4.08-3.78,1.53-3.78,1.53c-4.81-4.7-6.36,3.16-9.45,1.03-3.09-2.12-4.12.06-4.81.23-.69.17-4.12,1.72-7.21,0-3.09-1.72-6.42-1.19-6.42-1.19,1.47,8.24.84,3.07-6.72,5.83-8.25,3.01,3.18,7.9,3.18,7.9l.17,5.67c4.29.86,4.29,3.95,4.12,8.93-.17,4.98-1.37,4.64,1.55,8.25,2.92,3.61-.86,5.84-.86,5.84l-2.75.34s-1.37,2.23-4.29,2.06c-2.92-.17-10.31-.34-2.13,7.04,8.17,7.39,2.18,20.1,2.18,20.1,0,0-4.9,17.52,0,21.77,4.9,4.25,16.49.77,16.49.77,15.33-4.25,18.55-1.67,18.55-1.67,18.81,21.39,29.24-.77,29.24-.77v-3.61l.9-.9v-6.31c1.16-5.67,3.61-8.63,11.08-13.66,2.17-1.46,4.35-2.16,6.17-2.13l-3.63-4.66Z"/>
  </g>
</svg>