<?xml version="1.0" encoding="UTF-8"?>
<svg id="_레이어_2" data-name="레이어 2" xmlns="http://www.w3.org/2000/svg" viewBox="0 0 119.96 106.92">
  <defs>
    <style>
      .cls-1 {
        fill: #fff;
        stroke: #07a59f;
        stroke-miterlimit: 10;
      }
    </style>
  </defs>
  <g id="Layer_5" data-name="Layer 5">
    <path class="cls-1" d="M119.33,78.65l-1.37-2.75c2.06-7.39-9.1-6.36-4.47-12.37,4.64-6.01-3.44-3.95-3.44-3.95-1.37-3.09-3.09-.17-3.09-.17-3.78,3.95-5.67,0-5.67,0-3.78-.17-.17-4.64-.17-4.64l-.17-7.56.17-2.58,2.23-2.06.86-4.47h2.58l-.34-3.95h1.03l.34-4.81c3.09-4.64-.34-6.36,1.72-9.62,2.06-3.26-1.2-3.72-1.2-3.72l-2.06-1.78v-4.6h-7.56c-2.4-4.95-6.01-1.19-6.01-1.19h-2.23l-1.37-1.1c-1.38-.3-2.1.03-2.45.6-.71,1.13.05,3.21.05,3.21-2.75.52-3.26,3.26-3.26,3.26,0,0-.86,3.61-5.84,0-4.98-3.61-2.23-4.81-3.09-9.91-.86-5.1-3.44-1.81-3.44-1.81l-1.03,3.62h-5.35c.06.42.18.77.37,1.03,1.03,1.35.86,5.87-3.95,3.29-4.81-2.58-7.13,2.92-7.13,2.92-5.93,2.32-5.67-5.15-7.99-10.82-2.32-5.67-5.15,1.29-5.15,1.29l-4.38,3.32-1.07,3.89-4.6,2.06-3.09,7.47-10.82,9.02-1.8,9.28-8.25,7.73-5.12,7.38.49.35,1.16,1.67c2.96,2.58-.13,4.9-.13,4.9l-2.71.26v2.45l2.45.9,3.22,4.9v5.93c5.02-.9,5.02,4.9,5.02,4.9v5.8l4.51.39c1.55,1.8,5.02,1.25,5.02,1.25l5.75-.17c3.78-4.21,5.24.34,5.24.34v2.49l2.23.34.52,3.95s.34,4.04.26,4.55c-.09.52,1.8,2.49,1.8,2.49.16.99.31,1.84.45,2.59,0,0,3.33-.53,6.42,1.19,3.09,1.72,6.53.17,7.21,0,.69-.17,1.72-2.35,4.81-.23,3.09,2.12,4.64-5.74,9.45-1.03,0,0,1.89,1,3.78-1.53s2.58-4.08,2.58-4.08l4.47-4.72,1.03-3.01v-3.61l2.37-2.58-.14-3.27.34-5.67,2.92,2.23,3.26-.52c5.67-4.81,13.05,7.21,13.05,7.21h3.26l4.29-2.58c7.21-2.23,7.04-7.21,10.65-2.92,3.61,4.29,2.58-.69,2.58-.69Z"/>
  </g>
</svg>