<?xml version="1.0" encoding="UTF-8"?>
<svg id="_레이어_2" data-name="레이어 2" xmlns="http://www.w3.org/2000/svg" viewBox="0 0 40.93 48.28">
  <defs>
    <style>
      .cls-1 {
        fill: #fff;
        stroke: #07a59f;
        stroke-miterlimit: 10;
      }
    </style>
  </defs>
  <g id="Layer_5" data-name="Layer 5">
    <path class="cls-1" d="M39.81,10.53c-2.71-3.61-1.8-6.33-1.8-6.33-1.93,0-3.28-1.97-3.28-1.97-1.03,1.12-2.61,2.05-4.33.19-2.96-3.22-7.34-1.42-7.34-1.42l-6.18,4.64v3.26c-4.12,0-6.36,1.2-6.36,1.2l1.55,3.26c1.55,5.67-.17,7.56-5.67,11.17-5.5,3.61-1.37,6.53-3.44,7.74-1.68.98-2.67,3.99-2.43,5.81h5.35l1.03-3.62s2.58-3.29,3.44,1.81c.86,5.1-1.89,6.3,3.09,9.91,4.98,3.61,5.84,0,5.84,0,0,0,.52-2.75,3.26-3.26,0,0-.76-2.08-.05-3.21h0c-1.85-6.39,5.07-9.46,5.07-9.46v-5.28l.9-1.93,3.99-5.41v-3.09c1.14-1.14,2.08-1.63,2.82-1.77v-.04s1.01-1.98,4.54-2.17l-.02-.02Z"/>
  </g>
</svg>