<?xml version="1.0" encoding="UTF-8"?>
<svg id="_레이어_2" data-name="레이어 2" xmlns="http://www.w3.org/2000/svg" viewBox="0 0 33.7 33.28">
  <defs>
    <style>
      .cls-1 {
        fill: #fff;
        stroke: #07a59f;
        stroke-miterlimit: 10;
      }
    </style>
  </defs>
  <g id="Layer_5" data-name="Layer 5">
    <path class="cls-1" d="M32.91,12.43c-.53-.91-1.84-1.72-4.6-2.14-1.3-.2-2.34-.19-3.2-.07-4.76.66-3.73,4.8-7.88-3.28l-1.29-5.34s-.72-1.36-2.33-1.07c-.75.13-1.68.62-2.82,1.77v3.09l-3.99,5.41-.9,1.93v5.28S-1.04,21.09.82,27.48h0c.36-.57,1.08-.89,2.45-.6l1.37,1.1h2.23s3.61-3.76,6.01,1.19h7.56v2.76l5.8-6.7v-2.45l5.41-6.18s2.34-2.29,1.25-4.17Z"/>
  </g>
</svg>