<?xml version="1.0" encoding="UTF-8"?>
<svg id="_레이어_2" data-name="레이어 2" xmlns="http://www.w3.org/2000/svg" viewBox="0 0 147.65 258.11">
  <defs>
    <style>
      .cls-1, .cls-2, .cls-3, .cls-4, .cls-5, .cls-6, .cls-7, .cls-8, .cls-9 {
        stroke: #07a59f;
      }

      .cls-1, .cls-2, .cls-3, .cls-4, .cls-5, .cls-6, .cls-8, .cls-9 {
        fill: none;
        stroke-linecap: round;
        stroke-linejoin: round;
      }

      .cls-2 {
        stroke-dasharray: .52 2.06;
      }

      .cls-3 {
        stroke-dasharray: .43 1.72;
      }

      .cls-4 {
        stroke-dasharray: .49 1.97;
      }

      .cls-5 {
        stroke-dasharray: .5 2.01;
      }

      .cls-6 {
        stroke-dasharray: .52 2.08;
      }

      .cls-7 {
        fill: #fff;
        stroke-miterlimit: 10;
      }

      .cls-8 {
        stroke-dasharray: .51 2.04;
      }

      .cls-9 {
        stroke-dasharray: .48 1.93;
      }
    </style>
  </defs>
  <g id="Layer_6" data-name="Layer 6">
    <g>
      <g>
        <path class="cls-7" d="M126.37,36.23l-1.09-2.17-4.19-.96h-2.01s-1.72-1.99-3.79,0h-3.22s-2.71,1.86-.64,3.66c2.06,1.8-.72-.4-.49,4.96h0c.86-.12,1.9-.13,3.2.07,2.76.42,4.08,1.23,4.6,2.14,7.57-.18,10.21-4.41,10.21-4.41v-3.28h-2.58Z"/>
        <path class="cls-7" d="M117.95,8.59l-1.2-6.7-.58-1.05c-3.67-1.74-9.72,3.8-9.72,3.8h-4.81v9.45h9.02l.77-1.03h2.58l1.42-.32h2.06l1.59-.55c.08-.42.08-.68.08-.68l-1.2-2.92Z"/>
        <path class="cls-7" d="M121.73,25.94s-4.37-2.99-6.19-5.64h0c-4.65,5.57-6.69-3.25-10.17,1.2-1.16,1.48-2.26,1.97-3.22,1.97,0,0-.9,2.71,1.8,6.33l.02.02c.28-.02.57-.02.88-.01,4.25.13,7.73,3.29,7.73,3.29h2.71c2.06-1.99,3.79,0,3.79,0h2.01l4.19.96,1.09,2.17h2.58v-5.65l-7.21-4.64Z"/>
        <path class="cls-7" d="M111.42,36.76c-2.06-1.8.64-3.66.64-3.66h.52s-3.48-3.17-7.73-3.29c-.31,0-.6,0-.88.01-3.53.19-4.53,2.17-4.53,2.17v.04c1.6-.29,2.32,1.07,2.32,1.07l1.29,5.34c4.15,8.08,3.12,3.95,7.88,3.28h0c-.23-5.35,2.55-3.15.49-4.96Z"/>
        <path class="cls-7" d="M118.73,43.92c-.53-.91-1.84-1.72-4.6-2.14-1.3-.2-2.34-.19-3.2-.07-4.76.66-3.73,4.8-7.88-3.28l-1.29-5.34s-.72-1.36-2.33-1.07c-.75.13-1.68.62-2.82,1.77v3.09l-3.99,5.41-.9,1.93v5.28s-6.93,3.07-5.07,9.46h0c.36-.57,1.08-.89,2.45-.6l1.37,1.1h2.23s3.61-3.76,6.01,1.19h7.56v2.76l5.8-6.7v-2.45l5.41-6.18s2.34-2.29,1.25-4.17Z"/>
        <path class="cls-7" d="M117.48,12.74h-2.06l-1.42.32h-2.58l-.77,1.03h-9.02l-1.55,5.68s-.46.92-1.21,1.73c0,0,1.35,1.98,3.28,1.97.96,0,2.06-.5,3.22-1.97,3.48-4.45,5.52,4.37,10.17-1.2h0c-.91-1.32-1.19-2.55,0-3.29,2.6-1.61,3.32-3.75,3.53-4.82l-1.59.55Z"/>
        <path class="cls-7" d="M129.98,65.62l1.89-3.44v-21.3l-2.92-1.37s-2.65,4.23-10.21,4.41c1.09,1.88-1.25,4.17-1.25,4.17l-5.41,6.18v2.45l-5.8,6.7v1.85l2.06,1.78s3.26.46,1.2,3.72c-2.06,3.26,1.37,4.98-1.72,9.62l-.34,4.81h4.98l1.89-1.35,4.98-1.74c6.18,4.81,6.53-1.89,6.53-1.89l7.39-4.81v-6.18l-3.26-3.61Z"/>
        <path class="cls-7" d="M119.33,129.69l-1.37-2.75c2.06-7.39-9.1-6.36-4.47-12.37,4.64-6.01-3.44-3.95-3.44-3.95-1.37-3.09-3.09-.17-3.09-.17-3.78,3.95-5.67,0-5.67,0-3.78-.17-.17-4.64-.17-4.64l-.17-7.56.17-2.58,2.23-2.06.86-4.47h2.58l-.34-3.95h1.03l.34-4.81c3.09-4.64-.34-6.36,1.72-9.62,2.06-3.26-1.2-3.72-1.2-3.72l-2.06-1.78v-4.6h-7.56c-2.4-4.95-6.01-1.19-6.01-1.19h-2.23l-1.37-1.1c-1.38-.3-2.1.03-2.45.6-.71,1.13.05,3.21.05,3.21-2.75.52-3.26,3.26-3.26,3.26,0,0-.86,3.61-5.84,0-4.98-3.61-2.23-4.81-3.09-9.91-.86-5.1-3.44-1.81-3.44-1.81l-1.03,3.62h-5.35c.06.42.18.77.37,1.03,1.03,1.35.86,5.87-3.95,3.29-4.81-2.58-7.13,2.92-7.13,2.92-5.93,2.32-5.67-5.15-7.99-10.82-2.32-5.67-5.15,1.29-5.15,1.29l-4.38,3.32-1.07,3.89-4.6,2.06-3.09,7.47-10.82,9.02-1.8,9.28-8.25,7.73-5.12,7.38.49.35,1.16,1.67c2.96,2.58-.13,4.9-.13,4.9l-2.71.26v2.45l2.45.9,3.22,4.9v5.93c5.02-.9,5.02,4.9,5.02,4.9v5.8l4.51.39c1.55,1.8,5.02,1.25,5.02,1.25l5.75-.17c3.78-4.21,5.24.34,5.24.34v2.49l2.23.34.52,3.95s.34,4.04.26,4.55c-.09.52,1.8,2.49,1.8,2.49.16.99.31,1.84.45,2.59,0,0,3.33-.53,6.42,1.19,3.09,1.72,6.53.17,7.21,0,.69-.17,1.72-2.35,4.81-.23,3.09,2.12,4.64-5.74,9.45-1.03,0,0,1.89,1,3.78-1.53s2.58-4.08,2.58-4.08l4.47-4.72,1.03-3.01v-3.61l2.37-2.58-.14-3.27.34-5.67,2.92,2.23,3.26-.52c5.67-4.81,13.05,7.21,13.05,7.21h3.26l4.29-2.58c7.21-2.23,7.04-7.21,10.65-2.92,3.61,4.29,2.58-.69,2.58-.69Z"/>
        <path class="cls-7" d="M99.74,9.28c-2.75,3.78-5.33,0-5.33,0l-3.09,1.37h-2.23l-.86,4.81-1.03,4.81s4.38-1.8,7.34,1.42c1.71,1.86,3.29.93,4.33-.19.75-.82,1.21-1.73,1.21-1.73l1.55-5.68v-6.18l-1.89,1.37Z"/>
        <path class="cls-7" d="M103.95,29.8c-2.71-3.61-1.8-6.33-1.8-6.33-1.93,0-3.28-1.97-3.28-1.97-1.03,1.12-2.61,2.05-4.33.19-2.96-3.22-7.34-1.42-7.34-1.42l-6.18,4.64v3.26c-4.12,0-6.36,1.2-6.36,1.2l1.55,3.26c1.55,5.67-.17,7.56-5.67,11.17-5.5,3.61-1.37,6.53-3.44,7.74-1.68.98-2.67,3.99-2.43,5.81h5.35l1.03-3.62s2.58-3.29,3.44,1.81c.86,5.1-1.89,6.3,3.09,9.91,4.98,3.61,5.84,0,5.84,0,0,0,.52-2.75,3.26-3.26,0,0-.76-2.08-.05-3.21h0c-1.85-6.39,5.07-9.46,5.07-9.46v-5.28l.9-1.93,3.99-5.41v-3.09c1.14-1.14,2.08-1.63,2.82-1.77v-.04s1.01-1.98,4.54-2.17l-.02-.02Z"/>
        <path class="cls-7" d="M110.22,216.27l-1.03-11.85-8.42-1.2-.69-1.03-5.84-3.09-3.09-1.03-1.55-2.23c-1.03-6.7-5.5-5.5-5.5-5.5h-3.26l.34-5.15-1.37-3.44-3.26-7.21.17-2.4c6.18-1.55,10.99-6.7,9.28-8.59-1.72-1.89,1.2-4.47,1.2-4.47l.52-3.78-1.03-2.4.34-4.81-2.23-2.92c1.37-3.95-1.72-8.42-1.72-8.42h-3.95l-.04-.86-2.37,2.58v3.61l-1.03,3.01-4.47,4.72s-.69,1.55-2.58,4.08-3.78,1.53-3.78,1.53c-4.81-4.7-6.36,3.16-9.45,1.03-3.09-2.12-4.12.06-4.81.23-.69.17-4.12,1.72-7.21,0-3.09-1.72-6.42-1.19-6.42-1.19,1.47,8.24.84,3.07-6.72,5.83-8.25,3.01,3.18,7.9,3.18,7.9l.17,5.67c4.29.86,4.29,3.95,4.12,8.93-.17,4.98-1.37,4.64,1.55,8.25,2.92,3.61-.86,5.84-.86,5.84l-2.75.34s-1.37,2.23-4.29,2.06c-2.92-.17-10.31-.34-2.13,7.04,8.17,7.39,2.18,20.1,2.18,20.1,0,0-4.9,17.52,0,21.77,4.9,4.25,16.49.77,16.49.77,15.33-4.25,18.55-1.67,18.55-1.67,18.81,21.39,29.24-.77,29.24-.77v-3.61l.9-.9v-6.31c1.16-5.67,3.61-8.63,11.08-13.66,2.17-1.46,4.35-2.16,6.17-2.13l-3.63-4.66Z"/>
      </g>
      <g>
        <line class="cls-1" x1="126.23" y1="73.92" x2="126.41" y2="74.09"/>
        <line class="cls-3" x1="127.66" y1="75.28" x2="131.72" y2="79.13"/>
        <polyline class="cls-1" points="132.35 79.72 132.53 79.9 132.78 79.88"/>
        <line class="cls-5" x1="134.78" y1="79.78" x2="141.3" y2="79.45"/>
        <line class="cls-1" x1="142.3" y1="79.4" x2="142.55" y2="79.39"/>
      </g>
      <g>
        <line class="cls-1" x1="122.91" y1="38.68" x2="123.09" y2="38.86"/>
        <line class="cls-3" x1="124.34" y1="40.04" x2="128.4" y2="43.9"/>
        <polyline class="cls-1" points="129.03 44.49 129.21 44.66 129.46 44.65"/>
        <line class="cls-5" x1="131.46" y1="44.55" x2="137.98" y2="44.22"/>
        <line class="cls-1" x1="138.98" y1="44.16" x2="139.23" y2="44.15"/>
      </g>
      <g>
        <line class="cls-1" x1="114.57" y1="28.07" x2="114.82" y2="28.07"/>
        <polyline class="cls-6" points="116.9 28.08 127.89 28.15 136.62 27.71"/>
        <line class="cls-1" x1="137.66" y1="27.65" x2="137.91" y2="27.64"/>
      </g>
      <g>
        <line class="cls-1" x1="106.06" y1="34.09" x2="105.85" y2="33.96"/>
        <polyline class="cls-8" points="104.11 32.9 76.78 16.32 66.48 15.87"/>
        <line class="cls-1" x1="65.46" y1="15.82" x2="65.21" y2="15.81"/>
      </g>
      <g>
        <line class="cls-1" x1="112.95" y1="47.36" x2="113.19" y2="47.46"/>
        <polyline class="cls-2" points="115.1 48.23 137.12 57.17 145.87 56.73"/>
        <line class="cls-1" x1="146.9" y1="56.68" x2="147.15" y2="56.66"/>
      </g>
      <g>
        <line class="cls-1" x1="109.19" y1="17.73" x2="109.44" y2="17.73"/>
        <line class="cls-9" x1="111.37" y1="17.76" x2="132.14" y2="18.07"/>
        <line class="cls-1" x1="133.11" y1="18.08" x2="133.36" y2="18.09"/>
      </g>
      <g>
        <line class="cls-1" x1="113.02" y1="7.51" x2="113.27" y2="7.52"/>
        <line class="cls-9" x1="115.2" y1="7.55" x2="135.97" y2="7.86"/>
        <line class="cls-1" x1="136.94" y1="7.87" x2="137.19" y2="7.88"/>
      </g>
      <g>
        <line class="cls-1" x1="55.51" y1="29.49" x2="55.76" y2="29.5"/>
        <polyline class="cls-4" points="57.73 29.59 68.87 30.11 80.09 39.99"/>
        <line class="cls-1" x1="80.83" y1="40.65" x2="81.02" y2="40.81"/>
      </g>
      <g>
        <line class="cls-1" x1="69.04" y1="3.7" x2="69.29" y2="3.72"/>
        <polyline class="cls-4" points="71.26 3.81 82.4 4.32 93.62 14.21"/>
        <line class="cls-1" x1="94.36" y1="14.86" x2="94.55" y2="15.02"/>
      </g>
    </g>
  </g>
</svg>