<?xml version="1.0" encoding="UTF-8"?>
<svg id="_레이어_2" data-name="레이어 2" xmlns="http://www.w3.org/2000/svg" viewBox="0 0 92.64 77.19">
  <defs>
    <style>
      .cls-1, .cls-2, .cls-3, .cls-4, .cls-5, .cls-6, .cls-7, .cls-8 {
        fill: none;
        stroke: #07a59f;
        stroke-linecap: round;
        stroke-linejoin: round;
      }

      .cls-2 {
        stroke-dasharray: .52 2.06;
      }

      .cls-3 {
        stroke-dasharray: .43 1.72;
      }

      .cls-4 {
        stroke-dasharray: .49 1.97;
      }

      .cls-5 {
        stroke-dasharray: .5 2.01;
      }

      .cls-6 {
        stroke-dasharray: .52 2.08;
      }

      .cls-7 {
        stroke-dasharray: .51 2.04;
      }

      .cls-8 {
        stroke-dasharray: .48 1.93;
      }
    </style>
  </defs>
  <g id="Layer_6" data-name="Layer 6">
    <g>
      <g>
        <line class="cls-1" x1="71.22" y1="70.71" x2="71.4" y2="70.88"/>
        <line class="cls-3" x1="72.65" y1="72.07" x2="76.72" y2="75.93"/>
        <polyline class="cls-1" points="77.34 76.52 77.52 76.69 77.77 76.68"/>
        <line class="cls-5" x1="79.78" y1="76.58" x2="86.29" y2="76.24"/>
        <line class="cls-1" x1="87.29" y1="76.19" x2="87.54" y2="76.18"/>
      </g>
      <g>
        <line class="cls-1" x1="67.9" y1="35.48" x2="68.09" y2="35.65"/>
        <line class="cls-3" x1="69.34" y1="36.84" x2="73.4" y2="40.69"/>
        <polyline class="cls-1" points="74.02 41.29 74.2 41.46 74.45 41.44"/>
        <line class="cls-5" x1="76.46" y1="41.34" x2="82.97" y2="41.01"/>
        <line class="cls-1" x1="83.97" y1="40.96" x2="84.22" y2="40.95"/>
      </g>
      <g>
        <line class="cls-1" x1="59.56" y1="24.86" x2="59.81" y2="24.86"/>
        <polyline class="cls-6" points="61.89 24.88 72.88 24.95 81.62 24.5"/>
        <line class="cls-1" x1="82.65" y1="24.45" x2="82.9" y2="24.44"/>
      </g>
      <g>
        <line class="cls-1" x1="51.05" y1="30.88" x2="50.84" y2="30.75"/>
        <polyline class="cls-7" points="49.1 29.7 21.78 13.12 11.47 12.66"/>
        <line class="cls-1" x1="10.45" y1="12.62" x2="10.2" y2="12.61"/>
      </g>
      <g>
        <line class="cls-1" x1="57.95" y1="44.16" x2="58.18" y2="44.25"/>
        <polyline class="cls-2" points="60.09 45.03 82.12 53.97 90.86 53.52"/>
        <line class="cls-1" x1="91.89" y1="53.47" x2="92.14" y2="53.46"/>
      </g>
      <g>
        <line class="cls-1" x1="54.18" y1="14.52" x2="54.43" y2="14.53"/>
        <line class="cls-8" x1="56.36" y1="14.55" x2="77.13" y2="14.86"/>
        <line class="cls-1" x1="78.1" y1="14.88" x2="78.35" y2="14.88"/>
      </g>
      <g>
        <line class="cls-1" x1="58.01" y1="4.31" x2="58.26" y2="4.31"/>
        <line class="cls-8" x1="60.19" y1="4.34" x2="80.96" y2="4.65"/>
        <line class="cls-1" x1="81.93" y1="4.67" x2="82.18" y2="4.67"/>
      </g>
      <g>
        <line class="cls-1" x1=".5" y1="26.29" x2=".75" y2="26.3"/>
        <polyline class="cls-4" points="2.72 26.39 13.86 26.9 25.08 36.79"/>
        <line class="cls-1" x1="25.82" y1="37.44" x2="26.01" y2="37.61"/>
      </g>
      <g>
        <line class="cls-1" x1="14.03" y1=".5" x2="14.28" y2=".51"/>
        <polyline class="cls-4" points="16.25 .6 27.39 1.12 38.62 11"/>
        <line class="cls-1" x1="39.35" y1="11.65" x2="39.54" y2="11.82"/>
      </g>
    </g>
  </g>
</svg>