<?xml version="1.0" encoding="UTF-8"?>
<svg id="_레이어_2" data-name="레이어 2" xmlns="http://www.w3.org/2000/svg" viewBox="0 0 54.35 104.33">
  <defs>
    <style>
      .cls-1 {
        fill: #fff;
        stroke: #07a59f;
        stroke-miterlimit: 10;
      }
    </style>
  </defs>
  <g id="Layer_4" data-name="Layer 4">
    <path class="cls-1" d="M52.53,26.67l.76-1.38v-8.56l-1.17-.55v-3.59l-2.9-1.86s-1.75-1.2-2.49-2.27c-.36-.53-.48-1.02,0-1.32,1.04-.65,1.34-1.51,1.42-1.94.03-.17.03-.27.03-.27l-.48-1.17-.48-2.69-.23-.42c-1.48-.7-3.91,1.53-3.91,1.53h-1.93v1.31l-.76.55c-1.1,1.52-2.14,0-2.14,0l-1.24.55h-.9l-.35,1.93-.41,1.93-2.49,1.86v1.31c-1.66,0-2.55.48-2.55.48l.62,1.31c.62,2.28-.07,3.04-2.28,4.49-2.21,1.45-.55,2.62-1.38,3.11-.67.4-1.07,1.6-.98,2.33.02.17.07.31.15.41.41.54.35,2.36-1.59,1.32-1.93-1.04-2.86,1.17-2.86,1.17-2.38.93-2.28-2.07-3.21-4.35-.93-2.28-2.07.52-2.07.52l-1.76,1.33-.43,1.56-1.85.83-1.24,3-4.35,3.62-.72,3.73-3.31,3.11-2.06,2.97.19.14.47.67c1.19,1.04-.05,1.97-.05,1.97l-1.09.1v.98l.98.36,1.29,1.97v2.38c2.02-.36,2.02,1.97,2.02,1.97v2.33l1.81.16c.62.72,2.02.5,2.02.5l2.31-.07c1.52-1.69,2.11.14,2.11.14v1l.9.14.21,1.59s.14,1.62.1,1.83.72,1,.72,1c.07.4.13.74.18,1.04.59,3.31.34,1.23-2.7,2.34-3.31,1.21,1.28,3.18,1.28,3.18l.07,2.28c1.73.35,1.73,1.59,1.66,3.59-.07,2-.55,1.86.62,3.31,1.17,1.45-.35,2.35-.35,2.35l-1.1.14s-.55.9-1.73.83c-1.17-.07-4.14-.14-.86,2.83s.87,8.08.87,8.08c0,0-1.97,7.04,0,8.75,1.97,1.71,6.63.31,6.63.31,6.16-1.71,7.46-.67,7.46-.67,7.56,8.59,11.75-.31,11.75-.31v-1.45l.36-.36v-2.54c.47-2.28,1.45-3.47,4.45-5.49.87-.59,1.75-.87,2.48-.86l-1.46-1.87-.41-4.76-3.38-.48-.28-.41-2.35-1.24-1.24-.41-.62-.9c-.41-2.69-2.21-2.21-2.21-2.21h-1.31l.14-2.07-.55-1.38-1.31-2.9.07-.97c2.49-.62,4.42-2.69,3.73-3.45-.69-.76.48-1.79.48-1.79l.21-1.52-.41-.97.14-1.93-.9-1.17c.55-1.59-.69-3.38-.69-3.38h-1.59v-.34s-.07-1.31-.07-1.31l.14-2.28,1.17.9,1.31-.21c2.28-1.93,5.25,2.9,5.25,2.9h1.31l1.73-1.04c2.9-.9,2.83-2.9,4.28-1.17,1.45,1.73,1.04-.28,1.04-.28l-.55-1.1c.83-2.97-3.66-2.55-1.79-4.97,1.86-2.42-1.38-1.59-1.38-1.59-.55-1.24-1.24-.07-1.24-.07-1.52,1.59-2.28,0-2.28,0-1.52-.07-.07-1.86-.07-1.86l-.07-3.04.07-1.04.9-.83.35-1.79h1.04l-.14-1.59h2.42l.76-.54,2-.7c2.49,1.93,2.62-.76,2.62-.76l2.97-1.93v-2.49l-1.31-1.45Z"/>
  </g>
</svg>