<?xml version="1.0" encoding="UTF-8"?>
<svg id="Layer_1" data-name="Layer 1" xmlns="http://www.w3.org/2000/svg" viewBox="0 0 42.7 35.9">
  <path d="M17.16,28.9c1.15-1.57,1.84-3.51,1.84-5.6,0-5.24-4.26-9.5-9.5-9.5S0,18.06,0,23.3s4.26,9.5,9.5,9.5c1.69,0,3.28-.45,4.66-1.23l3.84,3.76c.39.38.89.57,1.4.57s1.04-.2,1.43-.6c.77-.79.76-2.06-.03-2.83l-3.64-3.57ZM4,23.3c0-3.03,2.47-5.5,5.5-5.5s5.5,2.47,5.5,5.5-2.47,5.5-5.5,5.5-5.5-2.47-5.5-5.5Z"/>
  <path d="M32.4,0H13.3C7.62,0,3,4.62,3,10.3v.5c0,1.1.9,2,2,2s2-.9,2-2v-.5c0-3.47,2.83-6.3,6.3-6.3h19.1c3.47,0,6.3,2.83,6.3,6.3v10.5c0,3.47-2.83,6.3-6.3,6.3h-7.7c-1.1,0-2,.9-2,2s.9,2,2,2h7.7c5.68,0,10.3-4.62,10.3-10.3v-10.5c0-5.68-4.62-10.3-10.3-10.3Z"/>
</svg>