<?xml version="1.0" encoding="UTF-8"?>
<svg id="_레이어_1" data-name="레이어 1" xmlns="http://www.w3.org/2000/svg" viewBox="0 0 48 48">
  <defs>
    <style>
      .cls-1 {
        fill: none;
      }

      .cls-2 {
        fill: #212121;
      }
    </style>
  </defs>
  <g>
    <path class="cls-2" d="M36,32h-10c-.39,0-.78.12-1.11.34l-8.89,5.92v-4.26c0-1.1-.9-2-2-2h-2c-2.21,0-4-1.79-4-4V12c0-2.21,1.79-4,4-4h5.02c.51-1.42,1.19-2.77,2.01-4h-7.03c-4.42,0-8,3.58-8,8v16c0,4.42,3.58,8,8,8v6c0,.74.41,1.42,1.06,1.76.65.35,1.44.31,2.05-.1l11.5-7.66h9.39c4.08,0,7.44-3.05,7.94-6.99-1.87,1.24-3.97,2.13-6.23,2.61-.52.24-1.1.38-1.71.38Z"/>
    <path class="cls-2" d="M34,28c7.73,0,14-6.27,14-14S41.73,0,34,0s-14,6.27-14,14,6.27,14,14,14ZM26.59,12.59c.78-.79,2.04-.79,2.82,0l2.59,2.58,6.59-6.58c.78-.79,2.04-.79,2.82,0,.79.78.79,2.04,0,2.82l-8,8c-.78.79-2.04.79-2.82,0l-4-4c-.79-.78-.79-2.04,0-2.82Z"/>
  </g>
  <path class="cls-1" d="M0,0h48v48H0V0Z"/>
</svg>