<?xml version="1.0" encoding="UTF-8"?>
<svg id="_레이어_1" data-name="레이어 1" xmlns="http://www.w3.org/2000/svg" viewBox="0 0 48 48">
  <defs>
    <style>
      .cls-1 {
        fill: none;
      }

      .cls-2 {
        fill: #212121;
      }
    </style>
  </defs>
  <g>
    <path class="cls-2" d="M34.5,6h-9.08l2.58,2.58c.14.14.27.28.39.42h6.11c2.49,0,4.5,2.01,4.5,4.5v10.5h-7.5c-4.14,0-7.5,3.36-7.5,7.5v7.5h-10.5c-2.49,0-4.5-2.01-4.5-4.5v-7.44l-.14-.14-2.86,2.86v4.72c0,4.14,3.36,7.5,7.5,7.5h11.01c1.99,0,3.9-.79,5.31-2.2l9.98-9.98c1.41-1.41,2.2-3.32,2.2-5.31v-11.01c0-4.14-3.36-7.5-7.5-7.5ZM37.68,27.7l-9.98,9.98c-.22.22-.45.41-.7.57v-6.75c0-2.49,2.01-4.5,4.5-4.5h6.75c-.16.25-.35.48-.57.7Z"/>
    <path class="cls-2" d="M11.84,25.96c1.57,1.57,4.24.95,4.96-1.14l1.14-3.31c.26-.75.81-1.37,1.52-1.71l4.94-2.41c2.78-1.35,3.4-5.04,1.21-7.23l-5.78-5.78c-2.18-2.19-5.87-1.57-7.22,1.21l-2.41,4.94c-.35.72-.97,1.26-1.72,1.52l-3.3,1.15c-2.1.72-2.71,3.39-1.15,4.95l2.85,2.85-3.88,3.87v2.13h2.12l3.88-3.88,2.84,2.84Z"/>
  </g>
  <path class="cls-1" d="M0,0h48v48H0V0Z"/>
</svg>