<?xml version="1.0" encoding="UTF-8"?>
<svg id="Layer_1" data-name="Layer 1" xmlns="http://www.w3.org/2000/svg" viewBox="0 0 18.5 18.5">
  <path d="M18.13,16.37l-4-4s0,0,0,0c-.02-.02-.02-.04-.04-.06-.49-.49-1.28-.49-1.77,0-1.09,1.09-2.53,1.69-4.07,1.69-3.17,0-5.75-2.58-5.75-5.75s2.58-5.75,5.75-5.75,5.75,2.58,5.75,5.75c0,.69.56,1.25,1.25,1.25s1.25-.56,1.25-1.25C16.5,3.7,12.8,0,8.25,0S0,3.7,0,8.25s3.7,8.25,8.25,8.25c1.78,0,3.47-.57,4.88-1.61l3.24,3.24c.24.24.56.37.88.37s.64-.12.88-.37c.49-.49.49-1.28,0-1.77Z"/>
</svg>