<?xml version="1.0" encoding="UTF-8"?>
<svg id="_레이어_2" data-name="레이어 2" xmlns="http://www.w3.org/2000/svg" viewBox="0 0 28.5 27">
  <defs>
    <style>
      .cls-1 {
        fill: #212121;
      }
    </style>
  </defs>
  <g id="_레이어_1-2" data-name="레이어 1">
    <path class="cls-1" d="M25.62,9.26c-1.97-2.03-4.82-3.26-8.37-3.26H7.68l2.16-2.16c.88-.88.88-2.3,0-3.18-.88-.88-2.3-.88-3.18,0L.66,6.66c-.88.88-.88,2.3,0,3.18l6,6c.88.88,2.3.88,3.18,0,.88-.88.88-2.3,0-3.18l-2.16-2.16h9.57c2.45,0,4.1.83,5.13,1.89,1.06,1.1,1.62,2.58,1.62,4.11s-.56,3.01-1.62,4.11c-1.03,1.06-2.68,1.89-5.13,1.89h-9c-1.24,0-2.25,1.01-2.25,2.25s1.01,2.25,2.25,2.25h9c3.55,0,6.4-1.23,8.37-3.26,1.94-2,2.88-4.64,2.88-7.24s-.94-5.24-2.88-7.24Z"/>
  </g>
</svg>