<?xml version="1.0" encoding="UTF-8"?>
<svg id="_레이어_1" data-name="레이어 1" xmlns="http://www.w3.org/2000/svg" viewBox="0 0 48 48">
  <defs>
    <style>
      .cls-1 {
        fill: none;
      }

      .cls-2 {
        fill: #212121;
      }
    </style>
  </defs>
  <path class="cls-2" d="M43.12,38.88l-9.89-9.89c1.75-2.56,2.77-5.66,2.77-8.99,0-8.84-7.16-16-16-16S4,11.16,4,20s7.16,16,16,16c3.33,0,6.43-1.02,8.99-2.76l9.89,9.88c1.17,1.17,3.07,1.17,4.24,0s1.17-3.07,0-4.24ZM20,30c-5.52,0-10-4.48-10-10s4.48-10,10-10,10,4.48,10,10-4.48,10-10,10Z"/>
  <path class="cls-1" d="M0,0h48v48H0V0Z"/>
</svg>