<?xml version="1.0" encoding="UTF-8"?>
<svg id="_레이어_1" data-name="레이어 1" xmlns="http://www.w3.org/2000/svg" viewBox="0 0 48 48">
  <defs>
    <style>
      .cls-1 {
        fill: none;
      }

      .cls-2 {
        fill: #212121;
      }
    </style>
  </defs>
  <path class="cls-2" d="M12,22c0-1.1.9-2,2-2s2,.9,2,2-.9,2-2,2-2-.9-2-2ZM14,28c-1.1,0-2,.9-2,2s.9,2,2,2,2-.9,2-2-.9-2-2-2ZM20,22c0-1.1.9-2,2-2s2,.9,2,2-.9,2-2,2-2-.9-2-2ZM22,28c-1.1,0-2,.9-2,2s.9,2,2,2,2-.9,2-2-.9-2-2-2ZM28,22c0-1.1.9-2,2-2s2,.9,2,2-.9,2-2,2-2-.9-2-2ZM4,14c0-5.52,4.48-10,10-10h20c5.52,0,10,4.48,10,10v20c0,5.52-4.48,10-10,10H14c-5.52,0-10-4.48-10-10V14ZM14,8c-2.61,0-4.83,1.67-5.66,4h31.32c-.83-2.33-3.05-4-5.66-4H14ZM40,16H8v18c0,3.31,2.69,6,6,6h20c3.31,0,6-2.69,6-6v-18Z" shape-rendering="optimizeSpeed"/>
  <path class="cls-1" d="M0,0h48v48H0V0Z"/>
</svg>