<?xml version="1.0" encoding="UTF-8"?>
<svg id="_레이어_1" data-name="레이어 1" xmlns="http://www.w3.org/2000/svg" viewBox="0 0 48 48">
  <defs>
    <style>
      .cls-1 {
        fill: none;
      }

      .cls-2 {
        fill: #212121;
      }
    </style>
  </defs>
  <path class="cls-2" d="M22.5,16.5c0-.83.67-1.5,1.5-1.5h7.5c.83,0,1.5.67,1.5,1.5v7.5c0,.83-.67,1.5-1.5,1.5s-1.5-.67-1.5-1.5v-3.88l-7.94,7.94c-.59.59-1.53.59-2.12,0s-.59-1.53,0-2.12l7.94-7.94h-3.88c-.83,0-1.5-.67-1.5-1.5ZM12.4,11.08c1.01-2.96,3.81-5.08,7.1-5.08h15c4.14,0,7.5,3.36,7.5,7.5v15c0,3.29-2.12,6.09-5.08,7.1v1.09c0,1.01-.35,2.29-1.17,3.35-.87,1.12-2.25,1.96-4.13,1.96H14.31c-4.64,0-8.31-3.67-8.31-8.31v-17.31c0-1.64.59-3.01,1.64-3.96,1.02-.93,2.35-1.34,3.67-1.34h1.09ZM12,14.08h-.69c-.71,0-1.28.22-1.66.56-.35.32-.65.85-.65,1.74v17.31c0,2.98,2.33,5.31,5.31,5.31h17.31c.89,0,1.42-.36,1.76-.8.38-.49.54-1.12.54-1.51v-.69h-14.42c-4.14,0-7.5-3.36-7.5-7.5v-14.42ZM19.5,9c-2.49,0-4.5,2.01-4.5,4.5v15c0,2.49,2.01,4.5,4.5,4.5h15c2.49,0,4.5-2.01,4.5-4.5v-15c0-2.49-2.01-4.5-4.5-4.5h-15Z" shape-rendering="optimizeSpeed"/>
  <path class="cls-1" d="M0,0h48v48H0V0Z"/>
</svg>