<?xml version="1.0" encoding="UTF-8"?>
<svg id="_레이어_1" data-name="레이어 1" xmlns="http://www.w3.org/2000/svg" viewBox="0 0 48 48">
  <defs>
    <style>
      .cls-1 {
        fill: none;
      }

      .cls-2 {
        fill: #212121;
      }
    </style>
  </defs>
  <path class="cls-2" d="M16,24c4.42,0,8-3.58,8-8s-3.58-8-8-8-8,3.58-8,8,3.58,8,8,8ZM34,24c3.31,0,6-2.69,6-6s-2.69-6-6-6-6,2.69-6,6,2.69,6,6,6ZM9,28c-2.76,0-5,2.24-5,5,0,0,0,9,12,9,9.51,0,11.48-5.65,11.89-8,.11-.61.11-1,.11-1,0-2.76-2.24-5-5-5h-14ZM31.98,34.4c0,.16-.02.35-.05.57-.05.43-.14.96-.31,1.57-.25.9-.66,1.96-1.36,3.06,1.06.25,2.29.4,3.74.4,10,0,10-7,10-7,0-2.76-2.24-5-5-5h-8.52c.96,1.43,1.52,3.15,1.52,5v1l-.02.4Z" shape-rendering="optimizeSpeed"/>
  <path class="cls-1" d="M0,0h48v48H0V0Z"/>
</svg>