<?xml version="1.0" encoding="UTF-8"?>
<svg id="_레이어_2" data-name="레이어 2" xmlns="http://www.w3.org/2000/svg" viewBox="0 0 36 36">
  <defs>
    <style>
      .cls-1 {
        fill: #212121;
      }
    </style>
  </defs>
  <g id="_레이어_1-2" data-name="레이어 1">
    <path class="cls-1" d="M4.5,0C2.01,0,0,2.01,0,4.5v6c0,2.49,2.01,4.5,4.5,4.5h6c2.49,0,4.5-2.01,4.5-4.5v-6c0-2.49-2.01-4.5-4.5-4.5h-6ZM25.5,0c-2.49,0-4.5,2.01-4.5,4.5v6c0,2.49,2.01,4.5,4.5,4.5h6c2.49,0,4.5-2.01,4.5-4.5v-6c0-2.49-2.01-4.5-4.5-4.5h-6ZM4.5,21c-2.49,0-4.5,2.01-4.5,4.5v6c0,2.49,2.01,4.5,4.5,4.5h6c2.49,0,4.5-2.01,4.5-4.5v-6c0-2.49-2.01-4.5-4.5-4.5h-6ZM25.5,21c-2.49,0-4.5,2.01-4.5,4.5v6c0,2.49,2.01,4.5,4.5,4.5h6c2.49,0,4.5-2.01,4.5-4.5v-6c0-2.49-2.01-4.5-4.5-4.5h-6Z" shape-rendering="optimizeSpeed"/>
  </g>
</svg>