<svg xmlns="http://www.w3.org/2000/svg" style="display:none">
    <symbol id="icon-searchImg" viewBox="0 0 48 48">
        <path d="M17.16,28.9c1.15-1.57,1.84-3.51,1.84-5.6,0-5.24-4.26-9.5-9.5-9.5S0,18.06,0,23.3s4.26,9.5,9.5,9.5c1.69,0,3.28-.45,4.66-1.23l3.84,3.76c.39.38.89.57,1.4.57s1.04-.2,1.43-.6c.77-.79.76-2.06-.03-2.83l-3.64-3.57ZM4,23.3c0-3.03,2.47-5.5,5.5-5.5s5.5,2.47,5.5,5.5-2.47,5.5-5.5,5.5-5.5-2.47-5.5-5.5Z" fill="currentColor"/>
        <path d="M32.4,0H13.3C7.62,0,3,4.62,3,10.3v.5c0,1.1.9,2,2,2s2-.9,2-2v-.5c0-3.47,2.83-6.3,6.3-6.3h19.1c3.47,0,6.3,2.83,6.3,6.3v10.5c0,3.47-2.83,6.3-6.3,6.3h-7.7c-1.1,0-2,.9-2,2s.9,2,2,2h7.7c5.68,0,10.3-4.62,10.3-10.3v-10.5c0-5.68-4.62-10.3-10.3-10.3Z" fill="currentColor"/>
    </symbol>
    <symbol id="icon-arr-fill" viewBox="0 0 48 48">
        <path d="M48,48H0V0h48v48Z" fill="none"/>
        <path class="cls-1" d="M3.92,24c-.63,0-1.25-.14-1.82-.4-1.26-.56-2.08-1.8-2.1-3.18V3.58C.02,2.2.84.96,2.1.4,3.55-.29,5.27-.08,6.52.92l10.2,8.42c.81.65,1.28,1.62,1.28,2.66s-.47,2.01-1.28,2.66l-10.2,8.42c-.74.6-1.65.92-2.6.92Z" shape-rendering="optimizeSpeed" fill="currentColor"/>
    </symbol>
    <symbol id="icon-arr-simple" viewBox="0 0 48 48">
        <path d="M19.24,24l10.88-10.88c1.17-1.17,1.17-3.07,0-4.24s-3.07-1.17-4.24,0l-13,13c-1.17,1.17-1.17,3.07,0,4.24l13,13c1.17,1.17,3.07,1.17,4.24,0s1.17-3.07,0-4.24l-10.88-10.88Z" fill="currentColor"/>
        <path d="M0,0h48v48H0V0Z" fill="none"/>
    </symbol>
    <symbol id="icon-blank" viewBox="0 0 48 48">
        <path d="M22.5,16.5c0-.83.67-1.5,1.5-1.5h7.5c.83,0,1.5.67,1.5,1.5v7.5c0,.83-.67,1.5-1.5,1.5s-1.5-.67-1.5-1.5v-3.88l-7.94,7.94c-.59.59-1.53.59-2.12,0s-.59-1.53,0-2.12l7.94-7.94h-3.88c-.83,0-1.5-.67-1.5-1.5ZM12.4,11.08c1.01-2.96,3.81-5.08,7.1-5.08h15c4.14,0,7.5,3.36,7.5,7.5v15c0,3.29-2.12,6.09-5.08,7.1v1.09c0,1.01-.35,2.29-1.17,3.35-.87,1.12-2.25,1.96-4.13,1.96H14.31c-4.64,0-8.31-3.67-8.31-8.31v-17.31c0-1.64.59-3.01,1.64-3.96,1.02-.93,2.35-1.34,3.67-1.34h1.09ZM12,14.08h-.69c-.71,0-1.28.22-1.66.56-.35.32-.65.85-.65,1.74v17.31c0,2.98,2.33,5.31,5.31,5.31h17.31c.89,0,1.42-.36,1.76-.8.38-.49.54-1.12.54-1.51v-.69h-14.42c-4.14,0-7.5-3.36-7.5-7.5v-14.42ZM19.5,9c-2.49,0-4.5,2.01-4.5,4.5v15c0,2.49,2.01,4.5,4.5,4.5h15c2.49,0,4.5-2.01,4.5-4.5v-15c0-2.49-2.01-4.5-4.5-4.5h-15Z" fill="currentColor"/>
        <path d="M0,0h48v48H0V0Z" fill="none"/>
    </symbol>
    <symbol id="icon-calendar" viewBox="0 0 48 48">
        <path d="M12,22c0-1.1.9-2,2-2s2,.9,2,2-.9,2-2,2-2-.9-2-2ZM14,28c-1.1,0-2,.9-2,2s.9,2,2,2,2-.9,2-2-.9-2-2-2ZM20,22c0-1.1.9-2,2-2s2,.9,2,2-.9,2-2,2-2-.9-2-2ZM22,28c-1.1,0-2,.9-2,2s.9,2,2,2,2-.9,2-2-.9-2-2-2ZM28,22c0-1.1.9-2,2-2s2,.9,2,2-.9,2-2,2-2-.9-2-2ZM4,14c0-5.52,4.48-10,10-10h20c5.52,0,10,4.48,10,10v20c0,5.52-4.48,10-10,10H14c-5.52,0-10-4.48-10-10V14ZM14,8c-2.61,0-4.83,1.67-5.66,4h31.32c-.83-2.33-3.05-4-5.66-4H14ZM40,16H8v18c0,3.31,2.69,6,6,6h20c3.31,0,6-2.69,6-6v-18Z" fill="currentColor"/>
        <path d="M0,0h48v48H0V0Z" fill="none"/>
    </symbol>
    <symbol id="icon-comment" viewBox="0 0 48 48">
        <path d="M36,32h-10c-.39,0-.78.12-1.11.34l-8.89,5.92v-4.26c0-1.1-.9-2-2-2h-2c-2.21,0-4-1.79-4-4V12c0-2.21,1.79-4,4-4h5.02c.51-1.42,1.19-2.77,2.01-4h-7.03c-4.42,0-8,3.58-8,8v16c0,4.42,3.58,8,8,8v6c0,.74.41,1.42,1.06,1.76.65.35,1.44.31,2.05-.1l11.5-7.66h9.39c4.08,0,7.44-3.05,7.94-6.99-1.87,1.24-3.97,2.13-6.23,2.61-.52.24-1.1.38-1.71.38Z" fill="currentColor"/>
        <path d="M34,28c7.73,0,14-6.27,14-14S41.73,0,34,0s-14,6.27-14,14,6.27,14,14,14ZM26.59,12.59c.78-.79,2.04-.79,2.82,0l2.59,2.58,6.59-6.58c.78-.79,2.04-.79,2.82,0,.79.78.79,2.04,0,2.82l-8,8c-.78.79-2.04.79-2.82,0l-4-4c-.79-.78-.79-2.04,0-2.82Z" fill="currentColor"/>
        <path d="M0,0h48v48H0V0Z" fill="none"/>
    </symbol>
    <symbol id="icon-comment2" viewBox="0 0 52 22">
        <path d="M-0.000,0.000 L-0.000,12.000 L7.1000,12.000 C11.414,12.000 13.389,12.828 16.000,14.1000 L20.1000,20.000 C23.558,22.585 27.800,22.644 29.1000,20.000 L35.000,14.1000 C37.611,12.828 40.586,12.000 44.000,12.000 L52.000,12.000 L52.000,0.000 L-0.000,0.000 Z"/>
    </symbol>
    <symbol id="icon-comment-arr" viewBox="0 0 30 17.92">
        <path d="M0,0v10h4.54c1.14,0,2.23.5,2.98,1.36l4.51,5.2c1.57,1.81,4.38,1.81,5.95,0l4.51-5.2c.75-.86,1.83-1.36,2.98-1.36h4.54V0H0Z"/>
    </symbol>
    <symbol id="icon-folder" viewBox="0 0 48 48">
        <path d="M21.62,12h-.09l-3.34-2.67c-.27-.21-.6-.33-.94-.33h-5.25c-3.31,0-6,2.69-6,6v1.5h10.67l4.95-4.5Z" fill="currentColor"/>
        <path d="M36,12h-9.92l-7.82,7.11c-.28.25-.64.39-1.01.39H6v13.5c0,3.31,2.69,6,6,6h24c3.31,0,6-2.69,6-6v-15c0-3.31-2.69-6-6-6Z" fill="currentColor"/>
        <path d="M0,0h48v48H0V0Z" fill="none"/>
    </symbol>
    <symbol id="icon-grid" viewBox="0 0 36 36">
        <path d="M4.5,0C2.01,0,0,2.01,0,4.5v6c0,2.49,2.01,4.5,4.5,4.5h6c2.49,0,4.5-2.01,4.5-4.5v-6c0-2.49-2.01-4.5-4.5-4.5h-6ZM25.5,0c-2.49,0-4.5,2.01-4.5,4.5v6c0,2.49,2.01,4.5,4.5,4.5h6c2.49,0,4.5-2.01,4.5-4.5v-6c0-2.49-2.01-4.5-4.5-4.5h-6ZM4.5,21c-2.49,0-4.5,2.01-4.5,4.5v6c0,2.49,2.01,4.5,4.5,4.5h6c2.49,0,4.5-2.01,4.5-4.5v-6c0-2.49-2.01-4.5-4.5-4.5h-6ZM25.5,21c-2.49,0-4.5,2.01-4.5,4.5v6c0,2.49,2.01,4.5,4.5,4.5h6c2.49,0,4.5-2.01,4.5-4.5v-6c0-2.49-2.01-4.5-4.5-4.5h-6Z" fill="currentColor"/>
    </symbol>
    <symbol id="icon-location" viewBox="0 0 48 48">
        <path d="M24,2c9.94,0,18,8.06,18,18,0,7.45-5.68,15.26-16.8,23.6-.71.53-1.69.53-2.4,0C11.68,35.26,6,27.45,6,20,6,10.06,14.06,2,24,2ZM24,14c-3.31,0-6,2.69-6,6s2.69,6,6,6,6-2.69,6-6-2.69-6-6-6Z" fill="currentColor"/>
        <path d="M0,0h48v48H0V0Z" fill="none"/>
    </symbol>
    <symbol id="icon-notePin" viewBox="0 0 48 48">
        <path d="M34.5,6h-9.08l2.58,2.58c.14.14.27.28.39.42h6.11c2.49,0,4.5,2.01,4.5,4.5v10.5h-7.5c-4.14,0-7.5,3.36-7.5,7.5v7.5h-10.5c-2.49,0-4.5-2.01-4.5-4.5v-7.44l-.14-.14-2.86,2.86v4.72c0,4.14,3.36,7.5,7.5,7.5h11.01c1.99,0,3.9-.79,5.31-2.2l9.98-9.98c1.41-1.41,2.2-3.32,2.2-5.31v-11.01c0-4.14-3.36-7.5-7.5-7.5ZM37.68,27.7l-9.98,9.98c-.22.22-.45.41-.7.57v-6.75c0-2.49,2.01-4.5,4.5-4.5h6.75c-.16.25-.35.48-.57.7Z" fill="currentColor"/>
        <path d="M11.84,25.96c1.57,1.57,4.24.95,4.96-1.14l1.14-3.31c.26-.75.81-1.37,1.52-1.71l4.94-2.41c2.78-1.35,3.4-5.04,1.21-7.23l-5.78-5.78c-2.18-2.19-5.87-1.57-7.22,1.21l-2.41,4.94c-.35.72-.97,1.26-1.72,1.52l-3.3,1.15c-2.1.72-2.71,3.39-1.15,4.95l2.85,2.85-3.88,3.87v2.13h2.12l3.88-3.88,2.84,2.84Z" fill="currentColor"/>
        <path d="M0,0h48v48H0V0Z" fill="none"/>
    </symbol>
    <symbol id="icon-pause" viewBox="0 0 48 48">
        <path d="M12,8c-2.21,0-4,1.79-4,4v24c0,2.21,1.79,4,4,4h4c2.21,0,4-1.79,4-4V12c0-2.21-1.79-4-4-4h-4ZM32,8c-2.21,0-4,1.79-4,4v24c0,2.21,1.79,4,4,4h4c2.21,0,4-1.79,4-4V12c0-2.21-1.79-4-4-4h-4Z" fill="currentColor"/>
        <path d="M0,0h48v48H0V0Z" fill="none"/>
    </symbol>
    <symbol id="icon-people" viewBox="0 0 48 48">
        <path d="M16,24c4.42,0,8-3.58,8-8s-3.58-8-8-8-8,3.58-8,8,3.58,8,8,8ZM34,24c3.31,0,6-2.69,6-6s-2.69-6-6-6-6,2.69-6,6,2.69,6,6,6ZM9,28c-2.76,0-5,2.24-5,5,0,0,0,9,12,9,9.51,0,11.48-5.65,11.89-8,.11-.61.11-1,.11-1,0-2.76-2.24-5-5-5h-14ZM31.98,34.4c0,.16-.02.35-.05.57-.05.43-.14.96-.31,1.57-.25.9-.66,1.96-1.36,3.06,1.06.25,2.29.4,3.74.4,10,0,10-7,10-7,0-2.76-2.24-5-5-5h-8.52c.96,1.43,1.52,3.15,1.52,5v1l-.02.4Z" fill="currentColor"/>
        <path d="M0,0h48v48H0V0Z" fill="none"/>
    </symbol>
    <symbol id="icon-search-normal" viewBox="0 0 48 48">
        <path d="M43.12,38.88l-9.89-9.89c1.75-2.56,2.77-5.66,2.77-8.99,0-8.84-7.16-16-16-16S4,11.16,4,20s7.16,16,16,16c3.33,0,6.43-1.02,8.99-2.76l9.89,9.88c1.17,1.17,3.07,1.17,4.24,0s1.17-3.07,0-4.24ZM20,30c-5.52,0-10-4.48-10-10s4.48-10,10-10,10,4.48,10,10-4.48,10-10,10Z" fill="currentColor"/>
        <path d="M0,0h48v48H0V0Z" fill="none"/>
    </symbol>
    <symbol id="icon-search-visual" viewBox="0 0 18.5 18.5">
        <path d="M18.13,16.37l-4-4s0,0,0,0c-.02-.02-.02-.04-.04-.06-.49-.49-1.28-.49-1.77,0-1.09,1.09-2.53,1.69-4.07,1.69-3.17,0-5.75-2.58-5.75-5.75s2.58-5.75,5.75-5.75,5.75,2.58,5.75,5.75c0,.69.56,1.25,1.25,1.25s1.25-.56,1.25-1.25C16.5,3.7,12.8,0,8.25,0S0,3.7,0,8.25s3.7,8.25,8.25,8.25c1.78,0,3.47-.57,4.88-1.61l3.24,3.24c.24.24.56.37.88.37s.64-.12.88-.37c.49-.49.49-1.28,0-1.77Z" fill="currentColor"/>
    </symbol>
    <symbol id="icon-check" viewBox="0 0 32 24">
        <path d="M31.06.82c1.2,1.14,1.26,3.04.12,4.24L14.18,23.06c-.56.59-1.33.93-2.14.94-.81,0-1.59-.31-2.16-.88L.88,14.12c-1.17-1.17-1.17-3.07,0-4.24s3.07-1.17,4.24,0l6.82,6.82L26.82.94c1.14-1.2,3.04-1.26,4.24-.12Z" shape-rendering="optimizeSpeed" fill="currentColor"/>
    </symbol>
    <symbol id="icon-chip" viewBox="0 0 94.15 45.03">
        <path d="M88.02,0H6.13C2.75,0,0,2.75,0,6.13h0s1.5,0,1.5,0c5.93,0,10.73,4.8,10.73,10.73v8.19c0,3.25,1.89,6.21,4.85,7.58l24.06,11.1c3.77,1.74,8.11,1.74,11.88,0l24.06-11.1c2.96-1.36,4.85-4.32,4.85-7.58v-8.19c0-5.93,4.8-10.73,10.73-10.73h1.5c0-3.39-2.75-6.13-6.13-6.13Z" shape-rendering="optimizeSpeed"/>
    </symbol>
</svg>