<svg width="19" height="20" viewBox="0 0 19 20" fill="none" xmlns="http://www.w3.org/2000/svg">
<path d="M2.48924 3.0108C5.80853 -0.308441 11.1903 -0.308133 14.5098 3.0108C16.1539 4.65495 16.9816 6.80523 16.9971 8.96002C16.9974 8.9733 17 8.98669 17 9.00006C17 9.82848 16.3284 10.5001 15.5 10.5001C14.6716 10.5 14 9.82848 14 9.00006H13.999C13.9936 7.59958 13.4571 6.20041 12.3887 5.13189C10.2407 2.98453 6.75805 2.98423 4.61034 5.13189C2.46281 7.27962 2.46303 10.7624 4.61034 12.9102C6.56945 14.8693 9.63775 15.0397 11.792 13.4249C11.8607 13.2938 11.9504 13.1707 12.0605 13.0606C12.6463 12.475 13.5959 12.475 14.1816 13.0606L18.4248 17.3038C19.0102 17.8895 19.0103 18.8392 18.4248 19.4249C17.839 20.0106 16.8885 20.0106 16.3027 19.4249L13.0664 16.1885C9.77792 18.2882 5.36202 17.904 2.48924 15.0313C-0.829641 11.7119 -0.829854 6.3301 2.48924 3.0108Z" fill="currentColor"/>
</svg>
