<svg width="22" height="22" viewBox="0 0 22 22" fill="none" xmlns="http://www.w3.org/2000/svg">
<path d="M11 18C11.5523 18 12 18.4477 12 19V21C12 21.5523 11.5523 22 11 22C10.4477 22 10 21.5523 10 21V19C10 18.4477 10.4477 18 11 18ZM4.63574 15.9502C5.02627 15.5597 5.66026 15.5597 6.05078 15.9502C6.44087 16.3407 6.44109 16.9739 6.05078 17.3643L4.63574 18.7783C4.2452 19.1686 3.61212 19.1688 3.22168 18.7783C2.83132 18.3879 2.83144 17.7548 3.22168 17.3643L4.63574 15.9502ZM15.9502 15.9502C16.3407 15.5597 16.9737 15.5597 17.3643 15.9502L18.7783 17.3643C19.1686 17.7548 19.1688 18.3879 18.7783 18.7783C18.3879 19.1687 17.7548 19.1686 17.3643 18.7783L15.9502 17.3643C15.5597 16.9737 15.5597 16.3407 15.9502 15.9502ZM11 5C14.3137 5 17 7.68629 17 11C17 14.3137 14.3137 17 11 17C7.68629 17 5 14.3137 5 11C5 7.68629 7.68629 5 11 5ZM11 7C8.79086 7 7 8.79086 7 11C7 13.2091 8.79086 15 11 15C13.2091 15 15 13.2091 15 11C15 8.79086 13.2091 7 11 7ZM3 10C3.55228 10 4 10.4477 4 11C4 11.5523 3.55228 12 3 12H1C0.447715 12 7.03532e-08 11.5523 0 11C2.41411e-08 10.4477 0.447715 10 1 10H3ZM21 10C21.5523 10 22 10.4477 22 11C22 11.5523 21.5523 12 21 12H19C18.4477 12 18 11.5523 18 11C18 10.4477 18.4477 10 19 10H21ZM3.22168 3.22168C3.61212 2.83132 4.24522 2.83144 4.63574 3.22168L6.0498 4.63574C6.44033 5.02627 6.44033 5.66026 6.0498 6.05078C5.65927 6.44087 5.02613 6.44109 4.63574 6.05078L3.22168 4.63574C2.83142 4.2452 2.83124 3.61212 3.22168 3.22168ZM17.3643 3.22168C17.7548 2.83135 18.3879 2.83122 18.7783 3.22168C19.1687 3.61214 19.1686 4.24522 18.7783 4.63574L17.3643 6.0498C16.9737 6.44031 16.3407 6.44028 15.9502 6.0498C15.5597 5.65928 15.5597 5.02627 15.9502 4.63574L17.3643 3.22168ZM11 0C11.5523 0 12 0.447715 12 1V3C12 3.55228 11.5523 4 11 4C10.4477 4 10 3.55228 10 3V1C10 0.447715 10.4477 0 11 0Z" fill="#0A0D12"/>
</svg>
