<svg width="19" height="19" viewBox="0 0 19 19" fill="none" xmlns="http://www.w3.org/2000/svg">
<path d="M9.58789 0.00976562C14.3331 0.203638 18.1802 3.87674 18.6455 8.54688C18.6718 8.81046 18.6852 9.0772 18.6895 9.34668C18.6903 9.3977 18.6934 9.44878 18.6934 9.5C18.6934 14.7467 14.4401 19 9.19336 19C7.85602 19 6.58384 18.7224 5.42969 18.2236C5.18839 18.1194 4.95212 18.006 4.72168 17.8828C3.06879 16.999 1.70752 15.6412 0.820312 13.9902C0.46889 13.3363 0.191382 12.6368 0 11.9023C0.388649 11.9651 0.786968 12 1.19336 12C2.69025 12 4.08332 11.5593 5.25391 10.8037C5.2656 10.7962 5.27742 10.7888 5.28906 10.7812C5.46579 10.6658 5.63677 10.5426 5.80273 10.4131C5.8148 10.4037 5.82686 10.3943 5.83887 10.3848C5.9106 10.3281 5.98121 10.2702 6.05078 10.2109C6.07101 10.1937 6.09128 10.1766 6.11133 10.1592C6.18007 10.0994 6.24795 10.0388 6.31445 9.97656C6.3237 9.96792 6.33259 9.95889 6.3418 9.9502C6.78986 9.52679 7.18549 9.04935 7.51855 8.52734C7.54406 8.48739 7.56996 8.44769 7.59473 8.40723C7.63118 8.34763 7.66635 8.28725 7.70117 8.22656C7.7228 8.1889 7.74463 8.15135 7.76562 8.11328C7.80565 8.04064 7.8432 7.96666 7.88086 7.89258C7.89617 7.86248 7.91282 7.83306 7.92773 7.80273C7.95681 7.74356 7.98319 7.68309 8.01074 7.62305C8.03474 7.57078 8.05921 7.51872 8.08203 7.46582C8.10057 7.42282 8.11799 7.37935 8.13574 7.33594C8.16118 7.27378 8.18616 7.21142 8.20996 7.14844C8.23014 7.09501 8.24957 7.0413 8.26855 6.9873C8.28848 6.93065 8.30758 6.87368 8.32617 6.81641C8.34427 6.76064 8.36209 6.70476 8.37891 6.64844C8.39729 6.58691 8.41481 6.52507 8.43164 6.46289C8.44569 6.41097 8.4597 6.359 8.47266 6.30664C8.48819 6.24388 8.50168 6.18057 8.51562 6.11719C8.52748 6.06326 8.54009 6.00944 8.55078 5.95508C8.56264 5.89479 8.57358 5.83424 8.58398 5.77344C8.59447 5.71215 8.60429 5.65066 8.61328 5.58887C8.62736 5.49209 8.64004 5.39482 8.65039 5.29688C8.65207 5.28094 8.65369 5.26499 8.65527 5.24902C8.6642 5.15899 8.67104 5.06849 8.67676 4.97754C8.68136 4.90424 8.68501 4.8307 8.6875 4.75684C8.69037 4.67156 8.69336 4.58598 8.69336 4.5C8.69336 4.38146 8.6891 4.26365 8.68359 4.14648C8.68149 4.10111 8.67869 4.0559 8.67578 4.01074C8.67069 3.9326 8.66471 3.85481 8.65723 3.77734C8.65354 3.73881 8.6488 3.70047 8.64453 3.66211C8.6373 3.59775 8.62995 3.53359 8.62109 3.46973C8.61175 3.40173 8.60197 3.334 8.59082 3.2666C8.58657 3.24113 8.58165 3.21581 8.57715 3.19043C8.38253 2.08555 7.94473 1.06567 7.32324 0.18457C7.92791 0.0638509 8.55319 0 9.19336 0C9.32554 0 9.45702 0.00441861 9.58789 0.00976562ZM10.3848 2.09473C10.5853 2.86304 10.6934 3.66888 10.6934 4.5C10.6934 9.10746 7.41294 12.9468 3.06055 13.8145C4.41804 15.7405 6.65786 17 9.19336 17C13.3355 17 16.6934 13.6421 16.6934 9.5C16.6934 5.76335 13.9606 2.66555 10.3848 2.09473Z" fill="#666D75"/>
</svg>
