<svg width="22" height="19" viewBox="0 0 22 19" fill="none" xmlns="http://www.w3.org/2000/svg">
<path d="M17.5 0C18.8807 0 20 1.11929 20 2.5C20 3.88071 18.8807 5 17.5 5H2.5C1.11929 5 0 3.88071 0 2.5C0 1.11929 1.11929 0 2.5 0H17.5ZM2.5 2C2.22386 2 2 2.22386 2 2.5C2 2.77614 2.22386 3 2.5 3H17.5C17.7761 3 18 2.77614 18 2.5C18 2.22386 17.7761 2 17.5 2H2.5Z" fill="#545863"/>
<path d="M15.5 7C16.8807 7 18 8.11929 18 9.5C18 10.8807 16.8807 12 15.5 12H2.5C1.11929 12 0 10.8807 0 9.5C0 8.11929 1.11929 7 2.5 7H15.5ZM2.40039 9C2.12425 9 1.90039 9.22386 1.90039 9.5C1.90039 9.77614 2.12425 10 2.40039 10H15.4004C15.6764 9.99979 15.9004 9.77601 15.9004 9.5C15.9004 9.22399 15.6764 9.00021 15.4004 9H2.40039Z" fill="#545863"/>
<path d="M19.5 14C20.8807 14 22 15.1193 22 16.5C22 17.8807 20.8807 19 19.5 19H2.5C1.11929 19 0 17.8807 0 16.5C0 15.1193 1.11929 14 2.5 14H19.5ZM2.40039 16C2.12425 16 1.90039 16.2239 1.90039 16.5C1.90039 16.7761 2.12425 17 2.40039 17H19.4004C19.6764 16.9998 19.9004 16.776 19.9004 16.5C19.9004 16.224 19.6764 16.0002 19.4004 16H2.40039Z" fill="#545863"/>
</svg>
