<svg width="19" height="19" viewBox="0 0 19 19" fill="none" xmlns="http://www.w3.org/2000/svg">
<path d="M8.79283 6.67157C9.18335 7.0621 9.81652 7.0621 10.207 6.67157L16.571 0.307612C16.9615 -0.0829125 17.5947 -0.0829123 17.9852 0.307612L18.6923 1.01472C19.0828 1.40524 19.0828 2.03841 18.6923 2.42893L12.3284 8.79289C11.9378 9.18342 11.9378 9.81658 12.3284 10.2071L18.6923 16.5711C19.0828 16.9616 19.0828 17.5948 18.6923 17.9853L17.9852 18.6924C17.5947 19.0829 16.9615 19.0829 16.571 18.6924L10.207 12.3284C9.81652 11.9379 9.18335 11.9379 8.79283 12.3284L2.42887 18.6924C2.03834 19.0829 1.40518 19.0829 1.01465 18.6924L0.307547 17.9853C-0.0829775 17.5948 -0.0829774 16.9616 0.307547 16.5711L6.67151 10.2071C7.06203 9.81658 7.06203 9.18342 6.67151 8.79289L0.307547 2.42893C-0.0829776 2.03841 -0.0829774 1.40524 0.307547 1.01472L1.01465 0.307612C1.40518 -0.0829123 2.03834 -0.0829123 2.42887 0.307612L8.79283 6.67157Z" fill="currentColor"/>
</svg>
