<svg width="22" height="22" viewBox="0 0 22 22" fill="none" xmlns="http://www.w3.org/2000/svg">
<path d="M10.8154 0C14.6814 0 17.8154 3.13401 17.8154 7C17.8154 9.8402 16.123 12.2833 13.6924 13.3809C17.7418 14.4757 20.8638 17.8254 21.6309 22H19.498C18.4582 17.9665 14.9661 15 10.8154 15C6.66476 15 3.17268 17.9665 2.13281 22H0C0.766985 17.8257 3.8885 14.476 7.9375 13.3809C5.50735 12.2831 3.81543 9.83989 3.81543 7C3.81543 3.13401 6.94944 0 10.8154 0ZM10.8154 2C8.05401 2 5.81543 4.23858 5.81543 7C5.81543 9.76142 8.05401 12 10.8154 12C13.5769 12 15.8154 9.76142 15.8154 7C15.8154 4.23858 13.5769 2 10.8154 2Z" fill="#535762"/>
</svg>
