<svg width="22" height="22" viewBox="0 0 22 22" fill="none" xmlns="http://www.w3.org/2000/svg">
<path d="M11 0C14.3137 0 17 2.68629 17 6H15C15 3.79086 13.2091 2 11 2C8.79086 2 7 3.79086 7 6V8H16C19.3137 8 22 10.6863 22 14V16C22 19.3137 19.3137 22 16 22H6C2.68629 22 3.22139e-08 19.3137 0 16V14C0 11.0271 2.16237 8.56013 5 8.08398V6C5 2.68629 7.68629 0 11 0ZM6 10C3.79086 10 2 11.7909 2 14V16C2 18.2091 3.79086 20 6 20H16C18.2091 20 20 18.2091 20 16V14C20 11.7909 18.2091 10 16 10H6ZM11 13C11.5523 13 12 13.4477 12 14V16C12 16.5523 11.5523 17 11 17C10.4477 17 10 16.5523 10 16V14C10 13.4477 10.4477 13 11 13Z" fill="#575C67"/>
</svg>
