<svg width="18" height="18" viewBox="0 0 18 18" fill="none" xmlns="http://www.w3.org/2000/svg">
<path d="M15 0C16.6569 0 18 1.34315 18 3V12C18 13.6569 16.6569 15 15 15C15 16.6569 13.6569 18 12 18H3C1.34315 18 2.416e-08 16.6569 0 15V6C0 4.34315 1.34315 3 3 3C3 1.34315 4.34315 2.41596e-08 6 0H15ZM3 5.26953C2.40267 5.61546 2 6.26007 2 7V14C2 15.1046 2.89543 16 4 16H11C11.7399 16 12.3845 15.5973 12.7305 15H6C4.34315 15 3 13.6569 3 12V5.26953ZM7 2C5.89543 2 5 2.89543 5 4V11C5 12.1046 5.89543 13 7 13H14C15.1046 13 16 12.1046 16 11V4C16 2.89543 15.1046 2 14 2H7ZM13.1025 4.00488C13.6066 4.05631 14 4.48239 14 5V9C14 9.55222 13.5522 9.99989 13 10C12.4478 9.99987 12 9.5522 12 9V7.19238L8.12109 11.0713C7.7306 11.4615 7.09748 11.4616 6.70703 11.0713C6.31672 10.6808 6.31682 10.0477 6.70703 9.65723L10.3633 6H9C8.44783 5.99987 8 5.5522 8 5C8 4.4478 8.44783 4.00013 9 4H13C13.0345 4.00001 13.069 4.00148 13.1025 4.00488Z" fill="#717A89"/>
</svg>
