<svg xmlns="http://www.w3.org/2000/svg" style="display:none;">
    <symbol id="icon-user" viewBox="0 0 22 22">
        <path d="M10.8154 0C14.6814 0 17.8154 3.13401 17.8154 7C17.8154 9.8402 16.123 12.2833 13.6924 13.3809C17.7418 14.4757 20.8638 17.8254 21.6309 22H19.498C18.4582 17.9665 14.9661 15 10.8154 15C6.66476 15 3.17268 17.9665 2.13281 22H0C0.766985 17.8257 3.8885 14.476 7.9375 13.3809C5.50735 12.2831 3.81543 9.83989 3.81543 7C3.81543 3.13401 6.94944 0 10.8154 0ZM10.8154 2C8.05401 2 5.81543 4.23858 5.81543 7C5.81543 9.76142 8.05401 12 10.8154 12C13.5769 12 15.8154 9.76142 15.8154 7C15.8154 4.23858 13.5769 2 10.8154 2Z" fill="currentColor"/>
    </symbol>
    <symbol id="icon-menuBar" viewBox="0 0 22 19">
        <path d="M17.5 0C18.8807 0 20 1.11929 20 2.5C20 3.88071 18.8807 5 17.5 5H2.5C1.11929 5 0 3.88071 0 2.5C0 1.11929 1.11929 0 2.5 0H17.5ZM2.5 2C2.22386 2 2 2.22386 2 2.5C2 2.77614 2.22386 3 2.5 3H17.5C17.7761 3 18 2.77614 18 2.5C18 2.22386 17.7761 2 17.5 2H2.5Z" fill="currentColor"/>
        <path d="M15.5 7C16.8807 7 18 8.11929 18 9.5C18 10.8807 16.8807 12 15.5 12H2.5C1.11929 12 0 10.8807 0 9.5C0 8.11929 1.11929 7 2.5 7H15.5ZM2.40039 9C2.12425 9 1.90039 9.22386 1.90039 9.5C1.90039 9.77614 2.12425 10 2.40039 10H15.4004C15.6764 9.99979 15.9004 9.77601 15.9004 9.5C15.9004 9.22399 15.6764 9.00021 15.4004 9H2.40039Z" fill="currentColor"/>
        <path d="M19.5 14C20.8807 14 22 15.1193 22 16.5C22 17.8807 20.8807 19 19.5 19H2.5C1.11929 19 0 17.8807 0 16.5C0 15.1193 1.11929 14 2.5 14H19.5ZM2.40039 16C2.12425 16 1.90039 16.2239 1.90039 16.5C1.90039 16.7761 2.12425 17 2.40039 17H19.4004C19.6764 16.9998 19.9004 16.776 19.9004 16.5C19.9004 16.224 19.6764 16.0002 19.4004 16H2.40039Z" fill="currentColor"/>
    </symbol>
    <symbol id="icon-contrast-on" viewBox="0 0 22 22">
        <path d="M11 18C11.5523 18 12 18.4477 12 19V21C12 21.5523 11.5523 22 11 22C10.4477 22 10 21.5523 10 21V19C10 18.4477 10.4477 18 11 18ZM4.63574 15.9502C5.02627 15.5597 5.66026 15.5597 6.05078 15.9502C6.44087 16.3407 6.44109 16.9739 6.05078 17.3643L4.63574 18.7783C4.2452 19.1686 3.61212 19.1688 3.22168 18.7783C2.83132 18.3879 2.83144 17.7548 3.22168 17.3643L4.63574 15.9502ZM15.9502 15.9502C16.3407 15.5597 16.9737 15.5597 17.3643 15.9502L18.7783 17.3643C19.1686 17.7548 19.1688 18.3879 18.7783 18.7783C18.3879 19.1687 17.7548 19.1686 17.3643 18.7783L15.9502 17.3643C15.5597 16.9737 15.5597 16.3407 15.9502 15.9502ZM11 5C14.3137 5 17 7.68629 17 11C17 14.3137 14.3137 17 11 17C7.68629 17 5 14.3137 5 11C5 7.68629 7.68629 5 11 5ZM11 7C8.79086 7 7 8.79086 7 11C7 13.2091 8.79086 15 11 15C13.2091 15 15 13.2091 15 11C15 8.79086 13.2091 7 11 7ZM3 10C3.55228 10 4 10.4477 4 11C4 11.5523 3.55228 12 3 12H1C0.447715 12 7.03532e-08 11.5523 0 11C2.41411e-08 10.4477 0.447715 10 1 10H3ZM21 10C21.5523 10 22 10.4477 22 11C22 11.5523 21.5523 12 21 12H19C18.4477 12 18 11.5523 18 11C18 10.4477 18.4477 10 19 10H21ZM3.22168 3.22168C3.61212 2.83132 4.24522 2.83144 4.63574 3.22168L6.0498 4.63574C6.44033 5.02627 6.44033 5.66026 6.0498 6.05078C5.65927 6.44087 5.02613 6.44109 4.63574 6.05078L3.22168 4.63574C2.83142 4.2452 2.83124 3.61212 3.22168 3.22168ZM17.3643 3.22168C17.7548 2.83135 18.3879 2.83122 18.7783 3.22168C19.1687 3.61214 19.1686 4.24522 18.7783 4.63574L17.3643 6.0498C16.9737 6.44031 16.3407 6.44028 15.9502 6.0498C15.5597 5.65928 15.5597 5.02627 15.9502 4.63574L17.3643 3.22168ZM11 0C11.5523 0 12 0.447715 12 1V3C12 3.55228 11.5523 4 11 4C10.4477 4 10 3.55228 10 3V1C10 0.447715 10.4477 0 11 0Z" fill="currentColor"/>
    </symbol>
    <symbol id="icon-contrast-off" viewBox="0 0 19 19">
        <path d="M9.58789 0.00976562C14.3331 0.203638 18.1802 3.87674 18.6455 8.54688C18.6718 8.81046 18.6852 9.0772 18.6895 9.34668C18.6903 9.3977 18.6934 9.44878 18.6934 9.5C18.6934 14.7467 14.4401 19 9.19336 19C7.85602 19 6.58384 18.7224 5.42969 18.2236C5.18839 18.1194 4.95212 18.006 4.72168 17.8828C3.06879 16.999 1.70752 15.6412 0.820312 13.9902C0.46889 13.3363 0.191382 12.6368 0 11.9023C0.388649 11.9651 0.786968 12 1.19336 12C2.69025 12 4.08332 11.5593 5.25391 10.8037C5.2656 10.7962 5.27742 10.7888 5.28906 10.7812C5.46579 10.6658 5.63677 10.5426 5.80273 10.4131C5.8148 10.4037 5.82686 10.3943 5.83887 10.3848C5.9106 10.3281 5.98121 10.2702 6.05078 10.2109C6.07101 10.1937 6.09128 10.1766 6.11133 10.1592C6.18007 10.0994 6.24795 10.0388 6.31445 9.97656C6.3237 9.96792 6.33259 9.95889 6.3418 9.9502C6.78986 9.52679 7.18549 9.04935 7.51855 8.52734C7.54406 8.48739 7.56996 8.44769 7.59473 8.40723C7.63118 8.34763 7.66635 8.28725 7.70117 8.22656C7.7228 8.1889 7.74463 8.15135 7.76562 8.11328C7.80565 8.04064 7.8432 7.96666 7.88086 7.89258C7.89617 7.86248 7.91282 7.83306 7.92773 7.80273C7.95681 7.74356 7.98319 7.68309 8.01074 7.62305C8.03474 7.57078 8.05921 7.51872 8.08203 7.46582C8.10057 7.42282 8.11799 7.37935 8.13574 7.33594C8.16118 7.27378 8.18616 7.21142 8.20996 7.14844C8.23014 7.09501 8.24957 7.0413 8.26855 6.9873C8.28848 6.93065 8.30758 6.87368 8.32617 6.81641C8.34427 6.76064 8.36209 6.70476 8.37891 6.64844C8.39729 6.58691 8.41481 6.52507 8.43164 6.46289C8.44569 6.41097 8.4597 6.359 8.47266 6.30664C8.48819 6.24388 8.50168 6.18057 8.51562 6.11719C8.52748 6.06326 8.54009 6.00944 8.55078 5.95508C8.56264 5.89479 8.57358 5.83424 8.58398 5.77344C8.59447 5.71215 8.60429 5.65066 8.61328 5.58887C8.62736 5.49209 8.64004 5.39482 8.65039 5.29688C8.65207 5.28094 8.65369 5.26499 8.65527 5.24902C8.6642 5.15899 8.67104 5.06849 8.67676 4.97754C8.68136 4.90424 8.68501 4.8307 8.6875 4.75684C8.69037 4.67156 8.69336 4.58598 8.69336 4.5C8.69336 4.38146 8.6891 4.26365 8.68359 4.14648C8.68149 4.10111 8.67869 4.0559 8.67578 4.01074C8.67069 3.9326 8.66471 3.85481 8.65723 3.77734C8.65354 3.73881 8.6488 3.70047 8.64453 3.66211C8.6373 3.59775 8.62995 3.53359 8.62109 3.46973C8.61175 3.40173 8.60197 3.334 8.59082 3.2666C8.58657 3.24113 8.58165 3.21581 8.57715 3.19043C8.38253 2.08555 7.94473 1.06567 7.32324 0.18457C7.92791 0.0638509 8.55319 0 9.19336 0C9.32554 0 9.45702 0.00441861 9.58789 0.00976562ZM10.3848 2.09473C10.5853 2.86304 10.6934 3.66888 10.6934 4.5C10.6934 9.10746 7.41294 12.9468 3.06055 13.8145C4.41804 15.7405 6.65786 17 9.19336 17C13.3355 17 16.6934 13.6421 16.6934 9.5C16.6934 5.76335 13.9606 2.66555 10.3848 2.09473Z" fill="currentColor"/>
    </symbol>
    <symbol id="icon-arrTop" viewBox="0 0 9 6">
        <path d="M4 0C3.2 0 1 4 0 6H9C8 4 5.8 0 5 0H4Z" fill="currentColor"/>
    </symbol>
    <symbol id="icon-account-off" viewBox="0 0 22 22">
        <path d="M11 0C14.3137 0 17 2.68629 17 6H15C15 3.79086 13.2091 2 11 2C8.79086 2 7 3.79086 7 6V8H16C19.3137 8 22 10.6863 22 14V16C22 19.3137 19.3137 22 16 22H6C2.68629 22 3.22139e-08 19.3137 0 16V14C0 11.0271 2.16237 8.56013 5 8.08398V6C5 2.68629 7.68629 0 11 0ZM6 10C3.79086 10 2 11.7909 2 14V16C2 18.2091 3.79086 20 6 20H16C18.2091 20 20 18.2091 20 16V14C20 11.7909 18.2091 10 16 10H6ZM11 13C11.5523 13 12 13.4477 12 14V16C12 16.5523 11.5523 17 11 17C10.4477 17 10 16.5523 10 16V14C10 13.4477 10.4477 13 11 13Z" fill="currentColor"/>
    </symbol>
    <symbol id="icon-account-on" viewBox="0 0 22 22">
        <path d="M11 0C14.3137 0 17 2.68629 17 6V8.08398C19.8376 8.56013 22 11.0271 22 14V16C22 19.3137 19.3137 22 16 22H6C2.68629 22 3.22139e-08 19.3137 0 16V14C0 11.0271 2.16237 8.56013 5 8.08398V6C5 2.68629 7.68629 0 11 0ZM6 10C3.79086 10 2 11.7909 2 14V16C2 18.2091 3.79086 20 6 20H16C18.2091 20 20 18.2091 20 16V14C20 11.7909 18.2091 10 16 10H6ZM12 14C12.5523 14 13 14.4477 13 15C13 15.5523 12.5523 16 12 16H10C9.44772 16 9 15.5523 9 15C9 14.4477 9.44772 14 10 14H12ZM11 2C8.79086 2 7 3.79086 7 6V8H15V6C15 3.79086 13.2091 2 11 2Z" fill="currentColor"/>
    </symbol>
    <symbol id="icon-blank" viewBox="0 0 18 18">
        <path d="M15 0C16.6569 0 18 1.34315 18 3V12C18 13.6569 16.6569 15 15 15C15 16.6569 13.6569 18 12 18H3C1.34315 18 2.416e-08 16.6569 0 15V6C0 4.34315 1.34315 3 3 3C3 1.34315 4.34315 2.41596e-08 6 0H15ZM3 5.26953C2.40267 5.61546 2 6.26007 2 7V14C2 15.1046 2.89543 16 4 16H11C11.7399 16 12.3845 15.5973 12.7305 15H6C4.34315 15 3 13.6569 3 12V5.26953ZM7 2C5.89543 2 5 2.89543 5 4V11C5 12.1046 5.89543 13 7 13H14C15.1046 13 16 12.1046 16 11V4C16 2.89543 15.1046 2 14 2H7ZM13.1025 4.00488C13.6066 4.05631 14 4.48239 14 5V9C14 9.55222 13.5522 9.99989 13 10C12.4478 9.99987 12 9.5522 12 9V7.19238L8.12109 11.0713C7.7306 11.4615 7.09748 11.4616 6.70703 11.0713C6.31672 10.6808 6.31682 10.0477 6.70703 9.65723L10.3633 6H9C8.44783 5.99987 8 5.5522 8 5C8 4.4478 8.44783 4.00013 9 4H13C13.0345 4.00001 13.069 4.00148 13.1025 4.00488Z" fill="currentColor"/>
    </symbol>
    <symbol id="bullet-arrTop" viewBox="0 0 13 8">
        <path d="M11.6673 5.3033C12.2531 5.88909 12.2531 6.83883 11.6673 7.42462C11.0815 8.01041 10.1318 8.01041 9.54599 7.42462L6.36401 4.24264L3.18203 7.42462C2.59625 8.01041 1.6465 8.01041 1.06071 7.42462C0.474927 6.83883 0.474927 5.88909 1.06071 5.3033L5.30335 1.06066C5.88914 0.474874 6.83889 0.474874 7.42467 1.06066L11.6673 5.3033Z" fill="currentColor"/>
    </symbol>
    <symbol id="bullet-arrBottom" viewBox="0 0 13 9">
        <path d="M11.6673 3.42473C12.2531 2.83894 12.2531 1.88919 11.6673 1.30341C11.0815 0.71762 10.1318 0.71762 9.54599 1.30341L6.36401 4.48539L3.18203 1.30341C2.59625 0.71762 1.6465 0.71762 1.06071 1.30341C0.474927 1.88919 0.474927 2.83894 1.06071 3.42473L5.30335 7.66737C5.88914 8.25315 6.83889 8.25315 7.42467 7.66737L11.6673 3.42473Z" fill="currentColor"/>
    </symbol>
    <symbol id="icon-close" viewBox="0 0 19 19">
        <path d="M8.79283 6.67157C9.18335 7.0621 9.81652 7.0621 10.207 6.67157L16.571 0.307612C16.9615 -0.0829125 17.5947 -0.0829123 17.9852 0.307612L18.6923 1.01472C19.0828 1.40524 19.0828 2.03841 18.6923 2.42893L12.3284 8.79289C11.9378 9.18342 11.9378 9.81658 12.3284 10.2071L18.6923 16.5711C19.0828 16.9616 19.0828 17.5948 18.6923 17.9853L17.9852 18.6924C17.5947 19.0829 16.9615 19.0829 16.571 18.6924L10.207 12.3284C9.81652 11.9379 9.18335 11.9379 8.79283 12.3284L2.42887 18.6924C2.03834 19.0829 1.40518 19.0829 1.01465 18.6924L0.307547 17.9853C-0.0829775 17.5948 -0.0829774 16.9616 0.307547 16.5711L6.67151 10.2071C7.06203 9.81658 7.06203 9.18342 6.67151 8.79289L0.307547 2.42893C-0.0829776 2.03841 -0.0829774 1.40524 0.307547 1.01472L1.01465 0.307612C1.40518 -0.0829123 2.03834 -0.0829123 2.42887 0.307612L8.79283 6.67157Z" fill="currentColor"/>
    </symbol>
    <symbol id="icon-view" viewBox="0 0 19 20">
        <path d="M2.48924 3.0108C5.80853 -0.308441 11.1903 -0.308133 14.5098 3.0108C16.1539 4.65495 16.9816 6.80523 16.9971 8.96002C16.9974 8.9733 17 8.98669 17 9.00006C17 9.82848 16.3284 10.5001 15.5 10.5001C14.6716 10.5 14 9.82848 14 9.00006H13.999C13.9936 7.59958 13.4571 6.20041 12.3887 5.13189C10.2407 2.98453 6.75805 2.98423 4.61034 5.13189C2.46281 7.27962 2.46303 10.7624 4.61034 12.9102C6.56945 14.8693 9.63775 15.0397 11.792 13.4249C11.8607 13.2938 11.9504 13.1707 12.0605 13.0606C12.6463 12.475 13.5959 12.475 14.1816 13.0606L18.4248 17.3038C19.0102 17.8895 19.0103 18.8392 18.4248 19.4249C17.839 20.0106 16.8885 20.0106 16.3027 19.4249L13.0664 16.1885C9.77792 18.2882 5.36202 17.904 2.48924 15.0313C-0.829641 11.7119 -0.829854 6.3301 2.48924 3.0108Z" fill="currentColor"/>
    </symbol>
    <symbol id="icon-menu-arr" viewBox="0 0 13 8">
        <path d="M12.0206 5.65685C12.4111 6.04738 12.4111 6.68054 12.0206 7.07107C11.6301 7.46159 10.9969 7.46159 10.6064 7.07107L6.36377 2.82843L2.12113 7.07107C1.7306 7.46159 1.09744 7.46159 0.706915 7.07107C0.316391 6.68054 0.316391 6.04738 0.706915 5.65685L5.65666 0.707107C6.04719 0.316582 6.68035 0.316582 7.07088 0.707107L12.0206 5.65685Z" fill="currentColor"/>
    </symbol>
</svg>