<svg xmlns="http://www.w3.org/2000/svg" style="display:none;">
    <symbol id="icon-share" viewBox="0 0 48 48">
        <path d="M30.92 6.32C30.47 5.96 29.86 5.9 29.34 6.15 28.83 6.4 28.5 6.93 28.5 7.5L28.5 13.48C28.37 13.48 28.24 13.49 28.1 13.5 26.89 13.58 25.23 13.83 23.46 14.51 21.34 15.32 19.05 16.76 17.18 19.23 15.31 21.71 13.93 25.15 13.51 29.86 13.45 30.49 13.79 31.09 14.36 31.36 14.94 31.63 15.61 31.51 16.06 31.06 19.63 27.49 23.17 25.73 25.79 24.86 26.87 24.5 27.79 24.29 28.5 24.17L28.5 30C28.5 30.59 28.85 31.13 29.39 31.37 29.92 31.61 30.55 31.51 31 31.12L44.5 19.12C44.83 18.83 45.01 18.4 45 17.95 44.98 17.51 44.77 17.09 44.42 16.82L30.92 6.32ZM29.83 16.49L29.84 16.49C30.26 16.54 30.68 16.4 31 16.12 31.32 15.83 31.5 15.43 31.5 15L31.5 10.57 41.16 18.08 31.5 26.66 31.5 22.5C31.5 21.67 30.83 21 30 21L30 21 29.99 21 29.98 21 29.95 21 29.87 21C29.79 21 29.69 21.01 29.56 21.02 29.31 21.03 28.95 21.07 28.5 21.13 27.6 21.26 26.34 21.51 24.84 22.01 22.66 22.74 19.99 23.98 17.2 26.1 17.78 23.94 18.62 22.3 19.57 21.04 21.05 19.08 22.85 17.96 24.54 17.31 25.96 16.77 27.31 16.56 28.3 16.49 28.79 16.46 29.19 16.46 29.46 16.47 29.6 16.47 29.7 16.48 29.76 16.48L29.83 16.49ZM13.5 9C9.36 9 6 12.36 6 16.5L6 34.5C6 38.64 9.36 42 13.5 42L31.5 42C35.64 42 39 38.64 39 34.5L39 31.5C39 30.67 38.33 30 37.5 30 36.67 30 36 30.67 36 31.5L36 34.5C36 36.99 33.99 39 31.5 39L13.5 39C11.01 39 9 36.99 9 34.5L9 16.5C9 14.01 11.01 12 13.5 12L19.5 12C20.33 12 21 11.33 21 10.5 21 9.67 20.33 9 19.5 9L13.5 9Z" fill="currentColor"/>
    </symbol>
    <symbol id="icon-print" viewBox="0 0 48 48">
        <path d="M12 10.5C12 8.01 14.02 6 16.5 6L31.5 6C33.99 6 36 8.01 36 10.5L36 12 39 12C42.31 12 45 14.69 45 18L45 31.5C45 33.99 42.99 36 40.5 36L36.3 36 36.3 37.5C36.3 39.99 34.29 42 31.8 42L16.5 42C14.02 42 12 39.99 12 37.5L12 36 7.5 36C5.01 36 3 33.99 3 31.5L3 18C3 14.69 5.69 12 9 12L12 12 12 10.5ZM33 12L33 10.5C33 9.67 32.33 9 31.5 9L16.5 9C15.67 9 15 9.67 15 10.5L15 12 33 12ZM12 15L9 15C7.34 15 6 16.34 6 18L6 31.5C6 32.33 6.67 33 7.5 33L12 33 12 31.5C12 29.01 14.02 27 16.5 27L31.8 27C34.29 27 36.3 29.01 36.3 31.5L36.3 33 40.5 33C41.33 33 42 32.33 42 31.5L42 18C42 16.34 40.66 15 39 15L36 15 12 15ZM16.5 30C15.67 30 15 30.67 15 31.5L15 37.5C15 38.33 15.67 39 16.5 39L31.8 39C32.63 39 33.3 38.33 33.3 37.5L33.3 31.5C33.3 30.67 32.63 30 31.8 30L16.5 30Z" fill="currentColor"/>
    </symbol>
    <symbol id="icon-dismiss" viewBox="0 0 48 48">
        <path d="M8.35 8.86L8.59 8.59C9.28 7.89 10.36 7.81 11.14 8.35L11.41 8.59 24 21.17 36.59 8.59C37.37 7.8 38.63 7.8 39.41 8.59 40.2 9.37 40.2 10.63 39.41 11.41L26.83 24 39.41 36.59C40.11 37.28 40.19 38.36 39.65 39.14L39.41 39.41C38.72 40.11 37.64 40.19 36.86 39.65L36.59 39.41 24 26.83 11.41 39.41C10.63 40.2 9.37 40.2 8.59 39.41 7.8 38.63 7.8 37.37 8.59 36.59L21.17 24 8.59 11.41C7.89 10.72 7.81 9.64 8.35 8.86L8.59 8.59 8.35 8.86Z" fill="currentColor"/>
        <path d="M0 0L48 0 48 48 0 48Z" fill="none"/>
    </symbol>
</svg>